<svg width="166" height="166" viewBox="0 0 166 166" fill="none" xmlns="http://www.w3.org/2000/svg">
<path d="M0 0V57.4615H57.4615V0H0ZM70.2308 0V12.7692H83V0H70.2308ZM83 12.7692V25.5385H70.2308V51.0769H83V38.3077H95.7692V12.7692H83ZM83 51.0769V70.2308H25.5385V83H12.7692V95.7692H38.3077V83H51.0769V95.7692H83V83H95.7692V95.7692H114.923V83H127.692V70.2308H95.7692V51.0769H83ZM127.692 83V95.7692H166V83H153.231V70.2308H140.462V83H127.692ZM12.7692 83V70.2308H0V83H12.7692ZM108.538 0V57.4615H166V0H108.538ZM12.7692 12.7692H44.6923V44.6923H12.7692V12.7692ZM121.308 12.7692H153.231V44.6923H121.308V12.7692ZM19.1538 19.1538V38.3077H38.3077V19.1538H19.1538ZM127.692 19.1538V38.3077H146.846V19.1538H127.692ZM70.2308 102.154V114.923H83V102.154H70.2308ZM83 114.923V127.692H70.2308V153.231H83V140.462H108.538V127.692H121.308V114.923H134.077V127.692H121.308V140.462H108.538V166H121.308V153.231H134.077V140.462H140.462V153.231H134.077V166H146.846V153.231H153.231V140.462H166V114.923H153.231V102.154H108.538V114.923H83ZM153.231 153.231V166H166V153.231H153.231ZM83 153.231V166H95.7692V153.231H83ZM0 108.538V166H57.4615V108.538H0ZM12.7692 121.308H44.6923V153.231H12.7692V121.308ZM19.1538 127.692V146.846H38.3077V127.692H19.1538Z" fill="#4F4F4F"/>
</svg>
