<svg width="231" height="231" viewBox="0 0 231 231" fill="none" xmlns="http://www.w3.org/2000/svg">
<path d="M199.857 61.53C192.709 49.8969 180.799 41.8812 167.272 40.0655C162.006 39.3451 156.656 39.5294 151.453 40.6107C135.957 43.8909 122.472 55.4409 116.886 70.2849C113.597 78.9982 112.682 89.0375 106.44 95.9583C98.3182 104.963 84.5459 105.244 72.4138 104.875C60.2817 104.505 46.5002 104.819 38.4245 113.861C33.3425 119.525 31.7532 127.573 32.1644 135.159C33.2409 155.233 47.4104 173.182 65.4284 182.103C83.4464 191.024 104.657 191.805 124.375 187.901C151.998 182.398 178.258 167.3 194.04 143.979C209.083 121.756 213.421 91.8649 202.873 67.3235C202.01 65.3215 201.002 63.3852 199.857 61.53Z" fill="#EBEBEB"/>
<path d="M215.929 210.755C215.929 210.824 170.963 210.875 115.504 210.875C60.046 210.875 15.0703 210.824 15.0703 210.755C15.0703 210.686 60.0275 210.635 115.504 210.635C170.981 210.635 215.929 210.672 215.929 210.755Z" fill="#263238"/>
<path d="M19.8659 82.494C19.8659 82.494 56.3038 100.424 66.4263 103.894C74.7007 106.735 88.0017 107.636 96.0543 106.768C97.5764 106.63 99.0817 106.347 100.55 105.922C106.916 103.894 139.016 97.2457 139.016 97.2457L177.408 95.1713L176.549 89.9461L132.506 92.6164C132.506 92.6164 107.05 96.1461 103.488 100.346C103.488 100.346 100.462 104.545 95.1211 105.257C89.7804 105.968 66.1121 100.253 63.4417 97.5783C60.7714 94.9033 60.0599 93.6606 52.4046 91.8819C44.7492 90.1032 27.4843 77.9941 27.4843 77.9941L18.9419 82.2676" fill="#92E3A9"/>
<path opacity="0.5" d="M19.8659 82.494C19.8659 82.494 56.3038 100.424 66.4263 103.894C74.7007 106.735 88.0017 107.636 96.0543 106.768C97.5764 106.63 99.0817 106.347 100.55 105.922C106.916 103.894 139.016 97.2457 139.016 97.2457L177.408 95.1713L177.08 93.1708L176.549 89.9368L132.506 92.6072C132.506 92.6072 107.05 96.1369 103.488 100.336C103.488 100.336 100.462 104.536 95.1211 105.248C89.7804 105.959 66.1121 100.253 63.4417 97.5783C60.7714 94.9033 60.0599 93.6606 52.4046 91.8819C44.7492 90.1032 27.4843 77.9941 27.4843 77.9941L18.9419 82.2676" fill="black"/>
<path d="M168.838 68.8963L118.692 69.1134C117.429 69.039 116.194 68.7089 115.061 68.1432C113.319 67.3208 109.628 65.0709 108.501 64.3779C108.219 64.1976 107.879 64.13 107.549 64.1885C107.341 64.23 107.179 64.3271 107.267 64.5396C107.387 64.8214 110.501 67.5056 110.501 67.5056L104.957 65.7546C104.805 65.7041 104.643 65.6874 104.484 65.7057C104.324 65.7241 104.17 65.777 104.033 65.8609C103.908 65.9394 103.816 66.0457 103.839 66.1751C103.876 66.4107 107.193 67.9861 107.193 67.9861L102.984 67.2654C102.792 67.2272 102.593 67.2664 102.429 67.3745C102.266 67.4827 102.151 67.651 102.111 67.8429C102.109 67.8829 102.109 67.923 102.111 67.963C102.111 68.3557 108.117 70.273 108.117 70.273H102.573C102.433 70.2736 102.294 70.3099 102.171 70.3786C102.048 70.4472 101.945 70.546 101.87 70.6656C101.796 70.7852 101.753 70.9217 101.746 71.0623C101.739 71.2029 101.768 71.3431 101.829 71.4696C102.144 72.0933 110.487 72.3104 110.571 73.2437C110.654 74.1769 108.196 74.371 107.364 75.6322C107.246 75.7714 107.164 75.9379 107.127 76.1166C107.089 76.2954 107.096 76.4807 107.148 76.6558C107.2 76.831 107.294 76.9904 107.423 77.1199C107.552 77.2493 107.711 77.3445 107.886 77.397C108.736 76.3806 111.998 75.549 111.998 75.549L117.08 75.817L164.56 82.5807L171.873 77.933L174.687 72.851L168.838 68.8963Z" fill="#FFBE9D"/>
<path d="M156.493 68.7305L105.289 78.8945C103.984 79.0727 102.655 78.9815 101.386 78.6265C99.4405 78.1322 95.2271 76.5614 93.9335 76.0763C93.6103 75.9467 93.2496 75.9467 92.9263 76.0763C92.7231 76.1594 92.5752 76.2888 92.7092 76.4874C92.8432 76.6861 96.6131 78.8714 96.6131 78.8714L90.6071 78.1876C90.4416 78.1669 90.2736 78.1818 90.1142 78.2312C89.9549 78.2806 89.8079 78.3634 89.6831 78.474C89.6274 78.5151 89.5847 78.5714 89.5601 78.6361C89.5355 78.7009 89.5301 78.7713 89.5445 78.839C89.6323 79.0746 93.3329 80.0218 93.3329 80.0218L88.8885 80.1234C88.7874 80.1222 88.687 80.141 88.5932 80.1787C88.4994 80.2164 88.414 80.2722 88.3418 80.3431C88.2697 80.4139 88.2123 80.4984 88.1729 80.5915C88.1335 80.6846 88.1129 80.7846 88.1123 80.8857C88.1097 80.9257 88.1097 80.9658 88.1123 81.0058C88.2139 81.4031 94.7328 82.1885 94.7328 82.1885L89.0825 83.2835C88.9358 83.3103 88.7986 83.3746 88.6842 83.4702C88.5697 83.5657 88.482 83.6893 88.4294 83.8288C88.3768 83.9683 88.3613 84.1191 88.3843 84.2664C88.4072 84.4137 88.4679 84.5526 88.5604 84.6695C89.0224 85.2424 97.5741 83.8102 97.8466 84.748C98.1192 85.6859 95.6429 86.3696 95.0423 87.8249C94.9496 87.991 94.8995 88.1774 94.8964 88.3676C94.8934 88.5578 94.9376 88.7457 95.0251 88.9146C95.1125 89.0835 95.2404 89.2281 95.3974 89.3355C95.5544 89.4428 95.7356 89.5095 95.9247 89.5297C96.5946 88.3193 99.7639 86.827 99.7639 86.827L104.994 86.0971L154.853 83.593L161.409 77.393L163.257 71.6226L156.493 68.7305Z" fill="#FFBE9D"/>
<path d="M138.217 72.2886C138.108 72.3246 137.996 72.3539 137.884 72.3763L136.923 72.5935L133.389 73.3327L121.695 75.6427L110.002 77.9527L106.463 78.6642L105.498 78.849C105.385 78.8747 105.271 78.8917 105.156 78.8998C105.263 78.8563 105.375 78.8238 105.488 78.8028L106.44 78.5718C107.272 78.3777 108.478 78.1098 109.97 77.7864C112.95 77.1396 117.08 76.2895 121.649 75.3932L133.356 73.1479L136.904 72.4826L137.875 72.3117C137.987 72.2914 138.102 72.2836 138.217 72.2886Z" fill="#EB996E"/>
<path d="M171.665 45.4688C171.593 45.9333 171.394 46.369 171.091 46.7283C170.788 47.0877 170.392 47.3567 169.946 47.5062C169.438 47.6679 168.884 47.6633 168.385 47.8481C167.886 48.0329 167.415 48.518 167.526 49.04C167.604 49.4327 167.964 49.6914 168.26 49.964C168.556 50.2366 168.824 50.6524 168.648 51.0128C168.473 51.3731 167.886 51.4378 167.586 51.7612C167.451 51.9498 167.384 52.1785 167.395 52.41C167.407 52.6416 167.497 52.8624 167.65 53.0363C167.964 53.3786 168.328 53.6701 168.731 53.9003C169.135 54.1384 169.43 54.5246 169.554 54.9767" fill="#263238"/>
<path d="M189.905 53.6141C191.291 50.7589 190.316 47.1738 188.223 44.7945C186.13 42.4152 183.1 41.0523 180.06 40.1745C179.621 40.0452 179.08 39.9528 178.771 40.2854C178.653 40.4481 178.595 40.6469 178.607 40.8477C178.62 41.0484 178.702 41.2384 178.84 41.385C179.124 41.6689 179.473 41.8797 179.857 41.9994C178.633 41.3457 177.282 40.9673 175.897 40.8906C175.417 40.8508 174.936 40.9503 174.511 41.1771C174.3 41.2963 174.132 41.4796 174.031 41.7004C173.931 41.9213 173.903 42.1683 173.952 42.406C173.987 42.5185 174.048 42.6212 174.13 42.7059C174.212 42.7907 174.313 42.8551 174.424 42.8942C174.536 42.9332 174.654 42.9457 174.771 42.9307C174.888 42.9158 175 42.8737 175.098 42.8079C173.781 42.6543 172.45 42.9559 171.328 43.6626C170.529 44.1662 169.808 45.0486 169.988 45.9726C170.099 46.5132 170.496 46.9521 170.672 47.4787C170.986 48.4351 170.506 49.4515 170.131 50.394C169.506 51.8483 169.272 53.4411 169.452 55.014C169.555 55.7839 169.824 56.5223 170.24 57.1781C170.657 57.8338 171.211 58.3912 171.864 58.8116" fill="#263238"/>
<path d="M184.066 44.5073L183.604 44.3456C182.446 43.9922 181.229 43.8746 180.025 43.9996C178.821 44.1246 177.655 44.4897 176.594 45.0733C175.534 45.6569 174.601 46.4472 173.851 47.3974C173.102 48.3477 172.55 49.4386 172.229 50.6057L166.445 69.7602L176.558 78.3164L179.653 70.2822C179.653 70.2822 184.509 71.2663 186.265 66.6971C187.11 64.4888 188.487 59.7995 189.683 55.5398C190.308 53.3314 190.076 50.9686 189.035 48.9234C187.993 46.8783 186.219 45.3012 184.066 44.5073Z" fill="#FFBE9D"/>
<path d="M179.686 70.2237C177.552 69.4804 175.687 68.1181 174.331 66.3105C174.331 66.3105 174.52 70.1359 179.256 71.4156L179.686 70.2237Z" fill="#EB996E"/>
<path d="M178.983 47.123C178.614 46.2914 178.152 44.485 177.514 43.8336C176.876 43.1822 175.837 43.3716 174.954 43.6303C174.502 43.7587 174.086 43.9934 173.742 44.3148C173.398 44.6362 173.136 45.0351 172.977 45.4783C171.744 48.7862 171.591 51.914 170.644 55.1803C170.564 55.391 170.544 55.6194 170.584 55.841C170.75 56.3954 171.36 56.594 171.933 56.6818C173.342 56.8989 174.072 55.8733 174.747 54.6398C174.978 53.8847 175.148 53.1122 175.255 52.3298C175.349 51.2516 175.722 50.2164 176.337 49.3256C176.951 48.4348 177.787 47.7188 178.761 47.2478L178.983 47.123Z" fill="#263238"/>
<path d="M173.024 53.2589C172.959 53.1943 170.215 51.1568 169.157 54.3354C168.099 57.514 171.499 57.9205 171.536 57.8281C171.573 57.7357 173.024 53.2589 173.024 53.2589Z" fill="#FFBE9D"/>
<path d="M170.967 56.3029C170.967 56.3029 170.903 56.3029 170.792 56.3352C170.642 56.3461 170.493 56.2999 170.376 56.2059C170.215 56.0068 170.109 55.7684 170.07 55.5152C170.031 55.2619 170.06 55.0028 170.154 54.7644C170.237 54.4894 170.38 54.2367 170.575 54.0252C170.637 53.9361 170.72 53.8634 170.817 53.8135C170.913 53.7636 171.02 53.738 171.129 53.7388C171.199 53.7428 171.265 53.7714 171.316 53.8196C171.367 53.8679 171.399 53.9325 171.406 54.0021C171.406 54.1038 171.379 54.1592 171.406 54.1685C171.434 54.1777 171.494 54.1407 171.513 54.0021C171.52 53.9176 171.499 53.833 171.452 53.7619C171.386 53.668 171.287 53.6021 171.175 53.5771C171.036 53.559 170.894 53.5772 170.764 53.6298C170.634 53.6824 170.519 53.7677 170.431 53.8774C170.205 54.1067 170.037 54.3872 169.942 54.6951C169.752 55.3419 169.877 56.0534 170.293 56.3399C170.371 56.392 170.459 56.4264 170.552 56.4408C170.644 56.4552 170.739 56.4491 170.829 56.423C170.94 56.363 170.977 56.3121 170.967 56.3029Z" fill="#EB996E"/>
<path d="M177.75 47.8023C179.325 46.7444 180.937 47.2849 182.009 47.9178C183.081 48.5508 183.996 49.4517 185.1 50.0338C186.204 50.6159 187.65 50.8192 188.644 50.0661C188.99 49.7588 189.27 49.3839 189.466 48.9644C189.663 48.5449 189.771 48.0897 189.785 47.6268C189.861 46.7396 189.761 45.8461 189.491 44.9977C189.221 44.1492 188.785 43.3627 188.209 42.6834C187.904 42.3323 187.442 41.9858 187.017 42.1706C186.491 42.4016 186.555 43.1639 186.731 43.7136C186.731 43.7136 181.395 41.6993 178.119 42.7896C174.844 43.88 177.75 47.8023 177.75 47.8023Z" fill="#263238"/>
<path d="M179.82 40.0918C179.852 40.0918 179.88 40.3182 180.042 40.7063C180.29 41.2405 180.633 41.7257 181.053 42.1385C181.673 42.7534 182.389 43.2623 183.174 43.6446C183.635 43.8706 184.122 44.0382 184.625 44.1435C185.151 44.2637 185.71 44.3514 186.279 44.5131C186.845 44.6553 187.371 44.9256 187.817 45.3032C188.226 45.6671 188.543 46.1232 188.741 46.6337C188.919 47.0951 188.981 47.5934 188.921 48.0844C188.847 48.6049 188.627 49.0937 188.286 49.4937C187.945 49.8937 187.497 50.1884 186.995 50.3436C186.835 50.3889 186.671 50.4137 186.505 50.4175C186.394 50.4175 186.334 50.4175 186.334 50.4175C186.334 50.4175 186.57 50.3898 186.962 50.2512C187.509 50.0448 187.974 49.6672 188.288 49.1747C188.506 48.843 188.644 48.4649 188.69 48.0705C188.737 47.6182 188.672 47.1612 188.501 46.74C188.313 46.2725 188.016 45.8562 187.637 45.5249C187.217 45.1682 186.721 44.9136 186.186 44.7811C185.641 44.624 185.087 44.5362 184.551 44.4115C184.035 44.3 183.535 44.1246 183.063 43.8894C182.257 43.4854 181.528 42.9428 180.91 42.2863C180.487 41.8473 180.157 41.3271 179.94 40.7571C179.89 40.6065 179.853 40.452 179.829 40.2951C179.815 40.1519 179.811 40.0918 179.82 40.0918Z" fill="#455A64"/>
<path d="M176.276 41.0195C176.304 41.0195 176.354 41.2552 176.53 41.6571C176.795 42.2126 177.165 42.7115 177.62 43.1263C178.303 43.7342 179.103 44.195 179.972 44.4799C181.046 44.825 182.144 45.0906 183.257 45.2746C184.393 45.4494 185.501 45.7757 186.551 46.2448C187.025 46.4773 187.404 46.8677 187.623 47.3489C187.785 47.7775 187.808 48.2465 187.687 48.6887C187.501 49.3137 187.09 49.8472 186.532 50.1856C186.387 50.2817 186.232 50.3622 186.07 50.4259C185.959 50.4721 185.899 50.4859 185.895 50.4767C185.89 50.4674 186.112 50.3566 186.463 50.0978C186.962 49.746 187.323 49.2315 187.484 48.6425C187.586 48.2432 187.555 47.8217 187.396 47.4413C187.193 47.0152 186.849 46.6724 186.421 46.4711C185.387 46.0282 184.3 45.7177 183.187 45.5471C182.06 45.3646 180.949 45.0911 179.866 44.7294C178.97 44.4208 178.151 43.9246 177.463 43.2741C177.005 42.8316 176.648 42.2959 176.414 41.7033C176.353 41.5417 176.306 41.3747 176.276 41.2043C176.271 41.0842 176.267 41.0242 176.276 41.0195Z" fill="#455A64"/>
<path d="M187.733 58.373C187.613 58.4376 187.211 57.8417 186.44 57.5691C185.668 57.2965 184.971 57.4813 184.92 57.3566C184.869 57.2318 185.045 57.1671 185.354 57.0747C185.77 56.9614 186.211 56.9808 186.615 57.1302C187.015 57.2696 187.36 57.5335 187.599 57.8832C187.77 58.1512 187.793 58.3452 187.733 58.373Z" fill="#263238"/>
<path d="M180.378 56.1177C180.254 56.1777 179.856 55.5864 179.085 55.3138C178.313 55.0412 177.611 55.226 177.565 55.1013C177.537 55.0458 177.685 54.9119 177.999 54.8195C178.413 54.7066 178.852 54.7243 179.256 54.8703C179.657 55.0129 180.002 55.278 180.244 55.628C180.415 55.9005 180.434 56.09 180.378 56.1177Z" fill="#263238"/>
<path d="M181.104 61.4768C181.553 61.4927 181.999 61.5657 182.43 61.6939C182.638 61.7447 182.837 61.7724 182.915 61.6477C183.005 61.4513 183.032 61.2319 182.994 61.0194C182.994 60.4788 182.961 59.9106 182.943 59.3192C182.897 56.8983 182.943 54.9395 183.031 54.9395C183.118 54.9395 183.248 56.8983 183.298 59.3146C183.298 59.9106 183.298 60.4742 183.298 61.0194C183.337 61.2991 183.277 61.5836 183.128 61.8233C183.075 61.8828 183.009 61.9295 182.935 61.9599C182.862 61.9903 182.782 62.0036 182.703 61.9988C182.583 61.9873 182.465 61.9626 182.351 61.9249C181.918 61.8292 181.499 61.6786 181.104 61.4768Z" fill="#263238"/>
<path d="M178.66 61.204C178.789 61.241 178.494 62.0772 178.997 62.9226C179.501 63.7681 180.425 63.9945 180.383 64.1146C180.342 64.2347 180.129 64.207 179.75 64.0823C179.258 63.9153 178.841 63.5799 178.572 63.1352C178.313 62.709 178.23 62.1985 178.341 61.7122C178.438 61.3519 178.604 61.1763 178.66 61.204Z" fill="#263238"/>
<path d="M181.626 51.8302C181.473 52.0104 180.739 51.6408 179.801 51.4283C178.863 51.2158 178.041 51.2019 177.985 50.9663C177.962 50.8554 178.161 50.7076 178.526 50.6059C179.007 50.4964 179.507 50.4986 179.988 50.6123C180.468 50.726 180.916 50.9483 181.298 51.262C181.566 51.5161 181.69 51.7425 181.626 51.8302Z" fill="#263238"/>
<path d="M188.496 54.9762C188.297 55.1009 187.835 54.7313 187.197 54.5142C186.56 54.297 185.978 54.2139 185.922 53.9875C185.899 53.8766 186.042 53.7334 186.338 53.6502C186.726 53.5651 187.131 53.5968 187.501 53.7416C187.871 53.8863 188.19 54.1375 188.417 54.4633C188.56 54.7221 188.57 54.93 188.496 54.9762Z" fill="#263238"/>
<path d="M177.648 75.6701C177.888 76.936 178.23 85.7463 177.579 89.3176C176.359 95.9519 167.207 110.57 166.611 111.738C166.26 112.422 158.678 129.78 158.678 129.78C158.678 129.78 125.673 119.528 124.028 111.17C124.028 111.17 135.176 102.854 137.93 100.322C138.475 99.8142 148.579 82.4153 148.579 82.4153L154.673 71.8817C154.673 71.8817 159.385 67.2617 161.815 67.2617H167.165L177.648 75.6701Z" fill="#92E3A9"/>
<path opacity="0.4" d="M124.019 111.17C124.019 111.17 127.904 111.475 138.757 117.559C149.609 123.644 152.469 125.413 152.469 125.413L130.214 117.619C130.214 117.619 124.421 114.21 124.019 111.17Z" fill="black"/>
<path d="M161.238 67.2793L155.167 67.8198L137.736 71.3911L145.266 85.422L164.49 83.574C164.49 83.574 169.147 74.3941 167.419 72.3983C165.691 70.4024 161.238 67.2793 161.238 67.2793Z" fill="#92E3A9"/>
<path opacity="0.4" d="M146.958 85.2615L160.065 83.9355L144.315 89.7013L146.958 85.2615Z" fill="black"/>
<path d="M163.756 83.8431C163.756 83.9078 160.328 84.3051 156.087 84.6794C151.845 85.0536 148.394 85.34 148.39 85.2754C148.385 85.2107 151.818 84.8134 156.063 84.4391C160.309 84.0649 163.751 83.7785 163.756 83.8431Z" fill="#263238"/>
<path d="M167.147 75.7081C167.105 75.7081 167.054 75.1953 166.833 74.4052C166.254 72.3288 164.978 70.5147 163.22 69.2678C162.545 68.8058 162.079 68.5748 162.097 68.5332C162.219 68.5533 162.336 68.5939 162.444 68.6533C162.746 68.783 163.036 68.9376 163.312 69.1153C165.175 70.3184 166.5 72.196 167.008 74.3544C167.086 74.676 167.135 75.0037 167.156 75.3338C167.175 75.4582 167.172 75.5848 167.147 75.7081Z" fill="#263238"/>
<path d="M141.455 100.857C141.676 100.79 141.904 100.745 142.134 100.723C142.596 100.654 143.201 100.539 143.982 100.368C144.763 100.197 145.669 99.9564 146.666 99.6376C148.828 98.9336 150.898 97.9719 152.83 96.7732C153.717 96.2142 154.493 95.6783 155.14 95.1932C155.786 94.7081 156.267 94.3015 156.599 94.0105C156.768 93.8514 156.948 93.7062 157.14 93.5762C157.003 93.7589 156.848 93.9275 156.678 94.0798C156.359 94.3939 155.879 94.8236 155.26 95.3271C154.531 95.9126 153.771 96.457 152.982 96.958C152.013 97.5689 151.007 98.1197 149.97 98.6074C148.929 99.0863 147.86 99.4998 146.768 99.8455C145.876 100.124 144.969 100.353 144.052 100.534C143.266 100.682 142.629 100.779 142.18 100.816C141.94 100.85 141.698 100.864 141.455 100.857Z" fill="#263238"/>
<path d="M143.289 97.6716C143.289 97.593 144.92 97.5745 146.865 97.1172C148.81 96.6598 150.293 95.9668 150.321 96.0361C150.038 96.2463 149.727 96.4158 149.397 96.5397C147.807 97.2245 146.108 97.6204 144.379 97.7085C144.016 97.7448 143.649 97.7324 143.289 97.6716Z" fill="#263238"/>
<path d="M161.7 112.537C161.499 112.654 161.289 112.755 161.072 112.837C160.665 113.018 160.06 113.253 159.311 113.526C155.38 114.929 151.258 115.724 147.087 115.882C146.288 115.91 145.641 115.914 145.197 115.882C144.966 115.886 144.734 115.872 144.504 115.84C144.733 115.799 144.965 115.782 145.197 115.79C145.659 115.79 146.288 115.748 147.078 115.697C149.148 115.568 151.208 115.309 153.245 114.921C155.279 114.525 157.285 114.001 159.251 113.35C160.005 113.101 160.614 112.888 161.035 112.736C161.249 112.646 161.472 112.58 161.7 112.537Z" fill="#263238"/>
<path d="M177.741 88.3019L168.103 85.0078C166.717 90.4271 163.021 94.8946 158.355 98.9695L170.284 105.41C172.61 101.308 174.716 97.0853 176.595 92.7602C177.217 91.3464 177.604 89.8405 177.741 88.3019Z" fill="#F5F5F5"/>
<path d="M170.237 83.9355L169.424 86.5089L170.741 87.1326L171.513 84.4022L170.237 83.9355Z" fill="#E0E0E0"/>
<path d="M168.237 97.0561C168.825 96.995 169.416 96.9733 170.007 96.9915L172.261 92.487L169.67 91.1934L169.115 92.3068L170.312 92.9074L168.237 97.0561Z" fill="#92E3A9"/>
<path d="M175.343 95.5411H175.407C175.597 95.0052 175.809 94.4785 176.04 93.9611C175.834 93.7948 175.611 93.6508 175.375 93.5314C174.928 93.2781 174.426 93.1389 173.913 93.126C173.4 93.1131 172.891 93.227 172.432 93.4575L173.121 94.6125C173.36 94.4899 173.626 94.4278 173.895 94.4319C174.164 94.4359 174.428 94.5058 174.664 94.6356C175.158 94.8666 175.375 95.1715 175.343 95.5411Z" fill="#92E3A9"/>
<path d="M170.94 96.755C170.316 96.8566 169.808 96.8243 169.198 96.9768L168.819 97.716L170.205 98.409L171.051 96.7227L170.94 96.755Z" fill="#92E3A9"/>
<path d="M174.636 97.1211H174.553L171.619 98.0081L171.157 98.9321L173.176 99.9393C173.195 99.8762 173.218 99.8145 173.245 99.7545C173.399 99.4346 173.575 99.1259 173.772 98.8305L173.675 98.7843L173.832 98.7335L174.636 97.1211Z" fill="#92E3A9"/>
<path d="M173.795 96.1367C173.674 96.2009 173.545 96.2475 173.412 96.2753C173.157 96.3539 172.792 96.4463 172.335 96.5525C171.14 96.8221 169.931 97.0211 168.713 97.1485C167.498 97.2741 166.276 97.3266 165.054 97.3056C164.592 97.3056 164.204 97.2779 163.941 97.2548C163.805 97.2566 163.669 97.238 163.539 97.1993C164.04 97.1466 164.545 97.125 165.049 97.1346C165.973 97.1115 167.272 97.0515 168.69 96.9083C170.108 96.765 171.379 96.5525 172.298 96.3862C172.791 96.2713 173.291 96.188 173.795 96.1367Z" fill="#263238"/>
<path d="M151.134 127.681C150.88 128.444 131.041 158.219 113.998 164.327L106.606 163.181L67.4287 151.631L71.753 140.691L108.385 148.577L125.225 129.502L130.307 116.344L151.134 127.681Z" fill="#FFBE9D"/>
<path d="M69.7344 152.297L86.0568 157.107L89.9007 144.573L71.9381 140.322L69.7344 152.297Z" fill="#455A64"/>
<path d="M70.3718 152.163L70.0715 152.214C70.0715 152.214 60.5404 162.253 58.2812 161.454L68.1588 138.391L74.2018 140.945L73.6427 141.708C71.4113 144.762 70.4642 148.379 70.3718 152.163Z" fill="#92E3A9"/>
<g opacity="0.6">
<path opacity="0.6" d="M71.9287 143.118C71.9564 142.867 71.8907 142.614 71.7441 142.409C71.5975 142.204 71.3803 142.059 71.134 142.004C70.8845 141.968 70.6308 142.029 70.4247 142.174C70.2186 142.32 70.0757 142.538 70.0252 142.785C69.9954 143.051 70.066 143.319 70.2233 143.536C70.3805 143.753 70.613 143.904 70.8753 143.958C71.1369 143.969 71.3927 143.879 71.5902 143.708C71.7878 143.536 71.9122 143.295 71.9379 143.034" fill="white"/>
</g>
<g opacity="0.6">
<path opacity="0.6" d="M68.1586 138.383L70.0066 139.247L59.8426 161.035C59.8426 161.035 58.9555 161.871 58.2856 161.446L68.1586 138.383Z" fill="white"/>
</g>
<path d="M70.0298 152.639C69.9189 152.588 70.1083 152.001 69.9836 151.295C69.8588 150.588 69.5216 150.089 69.6001 150.001C69.6786 149.913 70.27 150.366 70.404 151.225C70.538 152.085 70.1222 152.708 70.0298 152.639Z" fill="#263238"/>
<path d="M67.9923 154.631C67.8722 154.608 67.8906 154.039 67.5765 153.453C67.2623 152.866 66.8096 152.529 66.8604 152.432C66.9112 152.335 67.5811 152.524 67.9553 153.259C68.3295 153.993 68.1032 154.672 67.9923 154.631Z" fill="#263238"/>
<path d="M64.509 154.769C64.5321 154.658 65.1604 154.741 65.6547 155.296C66.149 155.85 66.1675 156.478 66.052 156.488C65.9365 156.497 65.7471 156.026 65.3359 155.564C64.9248 155.102 64.472 154.88 64.509 154.769Z" fill="#263238"/>
<path d="M70.2241 152.418C70.2841 151.996 70.4582 151.598 70.7277 151.268C70.9802 150.882 71.278 150.529 71.6147 150.214C71.8146 150.03 72.0277 149.86 72.2523 149.706C72.3786 149.605 72.5206 149.525 72.6727 149.47C72.7842 149.43 72.906 149.429 73.0183 149.467C73.1307 149.505 73.227 149.579 73.2918 149.678C73.3472 149.767 73.3804 149.868 73.3885 149.973C73.3965 150.078 73.3792 150.182 73.338 150.279C73.2798 150.427 73.1971 150.565 73.0931 150.685C72.9277 150.907 72.7421 151.113 72.5387 151.3C72.1968 151.615 71.8069 151.874 71.3837 152.067C71.0119 152.282 70.5831 152.379 70.1548 152.344C70.1548 152.275 70.6168 152.169 71.2451 151.799C71.6183 151.583 71.9628 151.32 72.2707 151.018C72.4465 150.838 72.6087 150.645 72.7558 150.441C72.9268 150.223 73.0146 150.016 72.936 149.909C72.8575 149.803 72.8898 149.859 72.7928 149.877C72.6835 149.919 72.5809 149.977 72.4879 150.048C72.2758 150.19 72.0722 150.344 71.878 150.51C71.5408 150.787 71.2314 151.097 70.954 151.434C70.4782 152.025 70.261 152.46 70.2241 152.418Z" fill="#263238"/>
<path d="M70.1036 152.2C70.5275 152.124 70.9647 152.185 71.351 152.375C71.7868 152.538 72.1914 152.774 72.5476 153.073C72.7579 153.252 72.9498 153.452 73.1205 153.669C73.2471 153.795 73.3385 153.953 73.3855 154.125C73.4325 154.298 73.4335 154.48 73.3885 154.653C73.3437 154.756 73.2701 154.843 73.1766 154.905C73.0831 154.966 72.9737 154.999 72.8618 155C72.7055 155 72.5499 154.978 72.3998 154.935C72.1254 154.865 71.8636 154.753 71.6236 154.602C71.2171 154.355 70.8788 154.011 70.6396 153.6C70.2376 152.893 70.3023 152.366 70.3439 152.371C70.5074 152.735 70.6909 153.09 70.8937 153.433C71.1365 153.775 71.4521 154.059 71.8177 154.265C72.0284 154.385 72.2556 154.474 72.4922 154.528C72.7555 154.598 72.9911 154.593 73.005 154.491C73.0136 154.388 72.9999 154.283 72.9648 154.185C72.9298 154.087 72.8742 153.998 72.8017 153.923C72.6508 153.724 72.4822 153.538 72.2982 153.369C71.9804 153.082 71.6243 152.841 71.2402 152.653C70.5656 152.329 70.0944 152.269 70.1036 152.2Z" fill="#263238"/>
<path d="M87.9511 144.453C87.9399 144.611 87.9056 144.767 87.8494 144.915C87.7478 145.262 87.6231 145.682 87.4798 146.176L86.2278 150.334C85.7658 151.928 85.3038 153.37 84.985 154.492C84.8326 154.982 84.7032 155.416 84.5923 155.749C84.5589 155.911 84.5012 156.066 84.4214 156.211C84.4304 156.054 84.4584 155.899 84.5046 155.749C84.5739 155.444 84.6801 155.005 84.8187 154.469C85.0959 153.393 85.5071 151.91 85.9968 150.288C86.4865 148.667 86.9578 147.202 87.3181 146.13C87.4983 145.603 87.6461 145.178 87.757 144.887C87.8045 144.736 87.8697 144.59 87.9511 144.453Z" fill="#FAFAFA"/>
<path d="M86.4491 144.453C86.4318 144.611 86.3962 144.766 86.3428 144.915C86.2412 145.262 86.1211 145.682 85.9732 146.176L84.7212 150.334C84.2592 151.928 83.7972 153.37 83.4785 154.492L83.0904 155.749C83.0515 155.909 82.9941 156.064 82.9194 156.211C82.9252 156.054 82.9516 155.899 82.998 155.749C83.0673 155.444 83.1735 155.005 83.3168 154.469C83.594 153.393 84.0051 151.91 84.4902 150.288C84.9753 148.667 85.4512 147.202 85.8115 146.13C85.9917 145.603 86.1442 145.178 86.2735 144.887C86.3152 144.736 86.3741 144.591 86.4491 144.453Z" fill="#FAFAFA"/>
<path d="M154.239 126.588C155.001 127.096 181.155 153.661 181.663 155.694C182.171 157.727 191.333 198.429 191.333 198.429L182.43 200.97C182.43 200.97 169.956 176.549 169.956 175.786C169.956 175.024 165.733 163.774 165.733 163.774L149.868 149.826L133.329 134.821L154.239 126.588Z" fill="#FFBE9D"/>
<path d="M194.377 201.358L188.759 185.299L176.336 189.485L183.363 206.551L194.377 201.358Z" fill="#455A64"/>
<path d="M193.897 200.918L194.114 201.13C194.114 201.13 207.826 203.02 208.487 205.325L184.001 210.754L182.545 204.36H183.493C187.276 204.392 190.764 203.052 193.897 200.918Z" fill="#92E3A9"/>
<g opacity="0.6">
<path opacity="0.6" d="M185.641 204.928C185.42 205.053 185.254 205.254 185.173 205.493C185.092 205.733 185.102 205.994 185.202 206.227C185.315 206.454 185.511 206.628 185.749 206.714C185.987 206.801 186.25 206.791 186.482 206.689C186.718 206.557 186.897 206.342 186.982 206.085C187.068 205.829 187.054 205.55 186.944 205.303C186.799 205.081 186.573 204.923 186.315 204.864C186.056 204.805 185.785 204.848 185.558 204.984" fill="white"/>
</g>
<g opacity="0.6">
<path opacity="0.6" d="M183.996 210.753L183.622 208.757L207.244 204.299C207.244 204.299 208.44 204.53 208.486 205.324L183.996 210.753Z" fill="white"/>
</g>
<path d="M194.502 200.918C194.525 201.039 193.938 201.223 193.434 201.741C192.931 202.258 192.728 202.826 192.608 202.803C192.487 202.78 192.51 202.05 193.134 201.417C193.758 200.784 194.502 200.803 194.502 200.918Z" fill="#263238"/>
<path d="M197.274 201.431C197.325 201.538 196.854 201.856 196.558 202.452C196.262 203.048 196.267 203.612 196.147 203.631C196.027 203.649 195.8 202.993 196.179 202.245C196.558 201.496 197.274 201.297 197.274 201.431Z" fill="#263238"/>
<path d="M199.427 204.161C199.325 204.212 199.025 203.649 199.187 202.928C199.348 202.207 199.852 201.819 199.921 201.907C199.99 201.995 199.727 202.424 199.602 203.02C199.478 203.616 199.542 204.124 199.427 204.161Z" fill="#263238"/>
<path d="M194.202 200.909C193.823 201.104 193.399 201.195 192.973 201.172C192.508 201.194 192.042 201.157 191.587 201.062C191.32 201.009 191.057 200.936 190.801 200.844C190.646 200.801 190.5 200.733 190.367 200.641C190.27 200.573 190.199 200.475 190.163 200.363C190.127 200.25 190.129 200.129 190.169 200.017C190.211 199.921 190.275 199.836 190.355 199.768C190.435 199.7 190.529 199.651 190.631 199.625C190.782 199.589 190.938 199.577 191.093 199.588C191.369 199.592 191.644 199.622 191.915 199.68C192.368 199.777 192.805 199.942 193.208 200.17C193.897 200.572 194.188 200.974 194.132 201.006C194.077 201.038 193.731 200.747 193.056 200.438C192.662 200.264 192.247 200.14 191.822 200.068C191.574 200.025 191.322 200.003 191.069 200.004C190.797 200.004 190.575 200.04 190.533 200.17C190.533 200.221 190.533 200.239 190.594 200.304C190.692 200.368 190.799 200.418 190.912 200.452C191.15 200.545 191.394 200.621 191.642 200.678C192.063 200.785 192.493 200.85 192.927 200.872C193.352 200.854 193.778 200.866 194.202 200.909Z" fill="#263238"/>
<path d="M194.082 201.113C194.045 201.14 193.712 200.766 193.495 199.999C193.373 199.548 193.329 199.079 193.366 198.613C193.389 198.337 193.439 198.063 193.513 197.796C193.544 197.619 193.619 197.454 193.733 197.315C193.846 197.177 193.993 197.07 194.16 197.006C194.269 196.984 194.382 196.993 194.486 197.033C194.59 197.074 194.681 197.142 194.747 197.232C194.842 197.362 194.918 197.505 194.973 197.657C195.076 197.92 195.138 198.197 195.158 198.479C195.192 198.954 195.108 199.431 194.913 199.865C194.576 200.604 194.109 200.859 194.091 200.822C194.29 200.476 194.47 200.12 194.631 199.754C194.767 199.357 194.813 198.934 194.765 198.516C194.738 198.275 194.677 198.039 194.585 197.814C194.488 197.56 194.345 197.352 194.253 197.421C194.16 197.491 193.966 197.689 193.915 197.916C193.84 198.155 193.787 198.401 193.758 198.65C193.709 199.075 193.72 199.504 193.791 199.925C193.915 200.66 194.142 201.08 194.082 201.113Z" fill="#263238"/>
<path d="M177.375 191.137C177.52 191.052 177.676 190.987 177.837 190.943L179.08 190.509L183.183 189.1L187.29 187.686L188.537 187.265C188.686 187.207 188.841 187.165 188.999 187.141C188.866 187.232 188.719 187.304 188.565 187.353C188.279 187.478 187.858 187.644 187.341 187.843C186.306 188.245 184.865 188.767 183.257 189.326C181.649 189.885 180.18 190.342 179.117 190.67L177.851 191.035C177.697 191.087 177.537 191.121 177.375 191.137Z" fill="#FAFAFA"/>
<path d="M178.253 192.357C178.398 192.274 178.554 192.21 178.715 192.167L179.954 191.729L184.061 190.319L188.163 188.906C188.653 188.744 189.087 188.605 189.411 188.485C189.559 188.425 189.714 188.384 189.873 188.365C189.737 188.452 189.591 188.522 189.438 188.573C189.152 188.698 188.732 188.864 188.214 189.067C187.175 189.465 185.733 189.991 184.13 190.55C182.527 191.11 181.062 191.567 180 191.89C179.464 192.052 179.034 192.177 178.734 192.255C178.578 192.307 178.417 192.342 178.253 192.357Z" fill="#FAFAFA"/>
<path d="M130.339 116.321C130.339 116.321 116.364 133.877 113.023 135.263C111.956 135.725 115.795 140.202 115.795 140.202L117.694 138.053C123.728 141.227 128.399 145.385 133.204 151.23L141.52 143.403L148.523 152.676L168.459 140.34L158.669 129.797C158.669 129.797 145.479 117.91 133.578 114.722C133.587 114.704 132.21 114.695 130.339 116.321Z" fill="#263238"/>
<path d="M151.73 132.131C151.684 132.209 151.63 132.282 151.568 132.348L151.074 132.949C150.635 133.461 149.993 134.191 149.193 135.092C147.59 136.889 145.35 139.347 142.809 142.022C140.268 144.697 137.916 147.035 136.147 148.675C135.259 149.488 134.539 150.144 134.017 150.574L133.416 151.073C133.35 151.136 133.276 151.189 133.194 151.23C133.25 151.158 133.314 151.093 133.384 151.036L133.952 150.505C134.451 150.043 135.153 149.382 136.026 148.555C137.759 146.887 140.097 144.522 142.633 141.861C145.169 139.199 147.429 136.779 149.059 134.995L151 132.902L151.531 132.339C151.59 132.263 151.657 132.193 151.73 132.131Z" fill="#455A64"/>
<path d="M133.361 150.935C133.361 150.935 133.287 150.879 133.167 150.754L132.659 150.205C132.22 149.743 131.573 149.04 130.755 148.213C129.938 147.386 128.94 146.425 127.799 145.4C126.657 144.374 125.35 143.298 123.936 142.221C122.523 141.145 121.127 140.202 119.834 139.366C118.54 138.53 117.344 137.841 116.322 137.282C115.301 136.723 114.474 136.284 113.888 135.993L113.222 135.652C113.143 135.614 113.067 135.569 112.996 135.518C113.081 135.536 113.164 135.565 113.241 135.605L113.929 135.91C114.525 136.174 115.371 136.589 116.406 137.135C117.441 137.68 118.642 138.364 119.954 139.181C121.266 139.999 122.661 140.96 124.084 142.032C125.507 143.104 126.796 144.203 127.946 145.233C129.097 146.264 130.081 147.243 130.88 148.093C131.679 148.943 132.312 149.641 132.728 150.145L133.19 150.722C133.256 150.786 133.313 150.857 133.361 150.935Z" fill="#455A64"/>
<path d="M141.044 117.152C140.989 117.237 140.927 117.318 140.859 117.393L140.296 118.058L138.203 120.493C136.438 122.549 134.022 125.404 131.416 128.61C128.81 131.816 126.514 134.778 124.865 136.926L122.915 139.476L122.379 140.165C122.319 140.246 122.252 140.324 122.181 140.396C122.226 140.303 122.28 140.214 122.342 140.132C122.472 139.952 122.638 139.712 122.841 139.416C123.28 138.797 123.922 137.91 124.731 136.824C126.343 134.644 128.621 131.673 131.231 128.462C133.842 125.251 136.29 122.428 138.073 120.382C138.974 119.365 139.709 118.534 140.226 117.998L140.822 117.36C140.887 117.282 140.962 117.212 141.044 117.152Z" fill="#FAFAFA"/>
<path d="M139.524 117.061C139.468 117.142 139.407 117.219 139.339 117.292L138.771 117.934L136.66 120.244C134.881 122.212 132.442 124.952 129.813 128.028C127.184 131.105 124.851 133.979 123.178 136.035L121.206 138.479C120.984 138.751 120.804 138.973 120.661 139.14C120.602 139.22 120.536 139.294 120.462 139.361C120.503 139.271 120.558 139.187 120.624 139.112L121.132 138.423C121.594 137.827 122.227 136.973 123.044 135.929C124.685 133.836 126.99 130.981 129.623 127.899C132.257 124.818 134.705 122.092 136.53 120.151C137.454 119.177 138.175 118.4 138.697 117.869L139.298 117.259C139.363 117.183 139.44 117.116 139.524 117.061Z" fill="#FAFAFA"/>
<path d="M155.32 147.84C155.264 147.877 153.527 145.53 151.439 142.582C149.351 139.635 147.701 137.228 147.743 137.186C147.785 137.145 149.531 139.496 151.624 142.444C153.717 145.391 155.375 147.84 155.32 147.84Z" fill="#455A64"/>
<path d="M178.905 96.6306C178.854 97.1619 177.935 98.4416 176.798 99.1069C175.53 99.885 174.219 100.591 172.871 101.223C170.307 102.466 150.27 109.65 150.27 109.65L152.035 105.718L151.601 103.149C157.121 101.953 172.284 97.4298 176.193 94.8334C176.997 94.2975 177.533 93.124 176.817 92.3109L176.904 92.0337C176.904 92.0337 177.279 91.9505 178.466 93.9741C178.897 94.7882 179.052 95.7209 178.905 96.6306Z" fill="#92E3A9"/>
<g opacity="0.3">
<path opacity="0.3" d="M178.905 96.6306C178.854 97.1619 177.935 98.4416 176.798 99.1069C175.53 99.885 174.219 100.591 172.871 101.223C170.307 102.466 150.27 109.65 150.27 109.65L152.035 105.718L151.601 103.149C157.121 101.953 172.284 97.4298 176.193 94.8334C176.997 94.2975 177.533 93.124 176.817 92.3109L176.904 92.0337C176.904 92.0337 177.279 91.9505 178.466 93.9741C178.897 94.7882 179.052 95.7209 178.905 96.6306Z" fill="black"/>
</g>
<path d="M121.044 105.848L140.48 103.459L142.859 104.748L138.323 110.033C138.323 110.033 113.73 112.094 107.831 115.614C102.176 118.978 100.586 127.46 91.6144 128.292C82.6424 129.123 59.9859 119.694 55.4814 121.824L52.811 114.787C52.811 114.787 66.3199 115.037 76.3084 118.64C86.2968 122.244 89.4523 123.057 94.562 118.64C99.6717 114.224 104.033 110.001 112.899 107.89C118.309 106.582 121.044 105.848 121.044 105.848Z" fill="#92E3A9"/>
<g opacity="0.3">
<path opacity="0.3" d="M121.044 105.848L140.48 103.459L142.859 104.748L138.323 110.033C138.323 110.033 113.73 112.094 107.831 115.614C102.176 118.978 100.586 127.46 91.6144 128.292C82.6424 129.123 59.9859 119.694 55.4814 121.824L52.811 114.787C52.811 114.787 66.3199 115.037 76.3084 118.64C86.2968 122.244 89.4523 123.057 94.562 118.64C99.6717 114.224 104.033 110.001 112.899 107.89C118.309 106.582 121.044 105.848 121.044 105.848Z" fill="black"/>
</g>
<path d="M104.028 60.0264C104.028 60.091 96.5577 60.1465 87.3454 60.1465C78.1331 60.1465 70.6626 60.091 70.6626 60.0264C70.6626 59.9617 78.1285 59.9062 87.3454 59.9062C96.5623 59.9062 104.028 59.9617 104.028 60.0264Z" fill="#455A64"/>
<path d="M82.4762 67.9717C82.4762 68.0364 78.8311 68.0918 74.3404 68.0918C69.8498 68.0918 66.2046 68.0364 66.2046 67.9717C66.2046 67.907 69.8452 67.8516 74.3404 67.8516C78.8357 67.8516 82.4762 67.9116 82.4762 67.9717Z" fill="#455A64"/>
<path d="M93.4627 64.1162C93.4627 64.1809 78.5216 64.2363 60.0878 64.2363C41.654 64.2363 26.7129 64.1809 26.7129 64.1162C26.7129 64.0515 41.654 63.9961 60.0878 63.9961C78.5216 63.9961 93.4627 64.0469 93.4627 64.1162Z" fill="#455A64"/>
<path d="M153.093 177.069C153.093 177.139 145.627 177.189 136.41 177.189C127.193 177.189 119.727 177.139 119.727 177.069C119.727 177 127.198 176.949 136.41 176.949C145.622 176.949 153.093 177.005 153.093 177.069Z" fill="#455A64"/>
<path d="M142.532 181.159C142.532 181.224 127.586 181.279 109.157 181.279C90.7277 181.279 75.7773 181.224 75.7773 181.159C75.7773 181.095 90.7184 181.039 109.157 181.039C127.595 181.039 142.532 181.104 142.532 181.159Z" fill="#455A64"/>
<path d="M34.9042 202.415C35.2045 201.251 34.4422 200.082 33.5829 199.232C32.7236 198.382 31.7026 197.629 31.2729 196.511C30.5476 194.7 31.5224 192.353 30.2888 190.842C29.5635 189.955 28.2607 189.655 27.6185 188.708C27.3231 188.181 27.1274 187.605 27.041 187.007C26.354 183.998 24.8736 181.227 22.7536 178.982C22.609 181.665 23.1899 184.336 24.4353 186.716C24.9343 187.668 25.5441 188.597 25.7104 189.655C25.9784 191.378 25.0174 193.152 25.4425 194.843C25.9276 196.779 28.099 198.077 28.2145 200.063C28.3022 201.745 26.8285 203.224 26.944 204.905C27.0314 205.621 27.2879 206.305 27.6924 206.901C28.9952 209.063 30.9264 210.555 33.8047 210.509L37.3528 210.629L34.9042 202.415Z" fill="#92E3A9"/>
<g opacity="0.3">
<path opacity="0.3" d="M34.9042 202.415C35.2045 201.251 34.4422 200.082 33.5829 199.232C32.7236 198.382 31.7026 197.629 31.2729 196.511C30.5476 194.7 31.5224 192.353 30.2888 190.842C29.5635 189.955 28.2607 189.655 27.6185 188.708C27.3231 188.181 27.1274 187.605 27.041 187.007C26.354 183.998 24.8736 181.227 22.7536 178.982C22.609 181.665 23.1899 184.336 24.4353 186.716C24.9343 187.668 25.5441 188.597 25.7104 189.655C25.9784 191.378 25.0174 193.152 25.4425 194.843C25.9276 196.779 28.099 198.077 28.2145 200.063C28.3022 201.745 26.8285 203.224 26.944 204.905C27.0314 205.621 27.2879 206.305 27.6924 206.901C28.9952 209.063 30.9264 210.555 33.8047 210.509L37.3528 210.629L34.9042 202.415Z" fill="black"/>
</g>
<path d="M38.046 210.727C38.3698 210.776 38.6997 210.768 39.0208 210.703C39.4148 210.647 39.8019 210.549 40.1758 210.412C40.6848 210.233 41.1597 209.969 41.5803 209.632C41.839 209.425 42.0409 209.157 42.167 208.851C42.2772 208.509 42.3333 208.152 42.3334 207.793C42.3334 207.419 42.3334 207.035 42.4165 206.642C42.4875 206.238 42.6349 205.851 42.8508 205.501C43.2712 204.767 43.9642 204.069 44.1906 203.071C44.3604 202.038 44.3275 200.982 44.0936 199.962C43.9273 198.895 43.7702 197.735 44.1768 196.626C44.5833 195.517 45.3548 194.501 45.7383 193.263C46.1218 192.025 45.9462 190.639 46.0294 189.299C46.0537 188.618 46.2106 187.947 46.4914 187.326C46.7778 186.698 47.1751 186.107 47.4847 185.446C48.1176 184.106 48.2285 182.591 48.4087 181.108C48.4918 180.359 48.5796 179.602 48.6628 178.839C48.7163 178.071 48.8494 177.311 49.0601 176.571C49.2999 175.822 49.5822 175.088 49.9055 174.372C50.0764 174.002 50.2155 173.619 50.3213 173.226C50.3807 172.822 50.4178 172.415 50.4322 172.006C50.4788 171.188 50.4541 170.367 50.3583 169.553C50.2613 168.731 50.1134 167.922 50.0257 167.1V166.957V166.795L49.8778 166.869C49.1259 167.252 48.4728 167.804 47.9698 168.481C47.475 169.141 47.0782 169.87 46.7917 170.643C46.2866 172.157 45.917 173.712 45.6875 175.291C45.466 176.799 44.9712 178.253 44.2276 179.583C43.8395 180.216 43.3683 180.794 42.9571 181.431C42.5089 182.016 42.1965 182.693 42.0423 183.413C41.8298 184.915 42.6568 186.236 42.5043 187.571C42.4249 188.227 42.2042 188.857 41.8575 189.419C41.5341 189.987 41.1553 190.514 40.7949 191.041C40.4278 191.557 40.1092 192.106 39.8432 192.681C39.5944 193.243 39.4474 193.846 39.4089 194.459C39.3211 195.656 39.4921 196.769 39.4089 197.864C39.3082 198.884 39.0101 199.874 38.5311 200.78C38.1015 201.657 37.6071 202.443 37.2237 203.21C37.0262 203.578 36.8473 203.956 36.6877 204.342C36.5439 204.704 36.4385 205.08 36.3736 205.464C36.2746 206.135 36.2746 206.817 36.3736 207.488C36.4654 208.427 36.8156 209.323 37.3854 210.075C37.4743 210.186 37.5716 210.289 37.6764 210.385C37.7459 210.459 37.8233 210.526 37.9074 210.583L38.1107 210.727C37.8582 210.523 37.6276 210.294 37.4223 210.043C36.8767 209.29 36.5447 208.404 36.4614 207.479C36.3793 206.815 36.3933 206.143 36.5029 205.483C36.5717 205.108 36.6769 204.742 36.8171 204.388C36.9591 204.011 37.1195 203.641 37.2976 203.279C37.6995 202.521 38.18 201.736 38.6189 200.854C39.1187 199.935 39.4327 198.927 39.5429 197.888C39.6399 196.793 39.4736 195.651 39.5429 194.483C39.58 193.889 39.724 193.307 39.9679 192.764C40.2255 192.202 40.5349 191.665 40.8919 191.161C41.2523 190.634 41.6358 190.107 41.9638 189.525C42.3249 188.942 42.5565 188.288 42.6429 187.608C42.8139 186.194 41.9915 184.864 42.2086 183.45C42.3453 182.75 42.6357 182.089 43.0587 181.514C43.4606 180.909 43.9365 180.332 44.3384 179.666C45.0947 178.313 45.6002 176.834 45.8307 175.3C46.0561 173.731 46.4225 172.184 46.9256 170.68C47.2168 169.945 47.6103 169.254 48.0945 168.629C48.582 167.977 49.2147 167.447 49.9425 167.081L49.7762 166.989C49.7762 167.035 49.7762 167.086 49.7762 167.132C49.864 167.964 50.0118 168.777 50.1088 169.59C50.2109 170.391 50.2418 171.2 50.2012 172.006C50.2012 172.404 50.155 172.819 50.095 173.194C49.9905 173.572 49.8561 173.941 49.693 174.298C49.3667 175.022 49.0814 175.764 48.8383 176.52C48.6274 177.274 48.4943 178.048 48.441 178.83C48.3532 179.597 48.2701 180.355 48.1869 181.103C48.0206 182.591 47.9051 184.083 47.2999 185.377C46.9996 186.019 46.6023 186.61 46.3066 187.262C46.023 187.906 45.8661 188.6 45.8446 189.304C45.7707 190.69 45.9462 192.016 45.5766 193.226C45.207 194.436 44.4355 195.444 44.0428 196.589C43.6501 197.735 43.7979 198.946 43.9642 200.003C44.2032 201.004 44.2424 202.042 44.0797 203.057C43.8765 204.009 43.2019 204.702 42.7723 205.455C42.5428 205.817 42.3859 206.22 42.3103 206.642C42.2638 207.029 42.2391 207.417 42.2363 207.807C42.235 208.156 42.1837 208.503 42.0839 208.837C41.9647 209.128 41.7759 209.385 41.5341 209.585C41.1195 209.922 40.6509 210.186 40.1481 210.366C39.7809 210.508 39.4 210.612 39.0116 210.676C38.7738 210.719 38.5327 210.743 38.2909 210.745L38.046 210.727Z" fill="#263238"/>
<path d="M49.2634 168.906C49.2449 168.941 49.2324 168.978 49.2264 169.017C49.2264 169.1 49.1802 169.207 49.1479 169.336C49.0786 169.613 48.9954 170.038 48.8615 170.565C48.7275 171.092 48.3995 171.683 48.1269 172.413C47.8543 173.143 47.5494 173.984 47.2814 174.931C47.0135 175.878 46.7686 176.931 46.5191 178.054C46.3029 179.257 45.9204 180.425 45.3826 181.523C45.0915 182.096 44.7635 182.683 44.5048 183.321C44.2487 183.975 44.0764 184.66 43.992 185.358C43.8139 186.801 43.5595 188.234 43.2297 189.65C42.5182 192.561 41.8437 195.333 41.22 197.855L39.5383 204.54L38.4249 209.059C38.3001 209.576 38.2031 209.983 38.1338 210.288C38.1061 210.417 38.083 210.523 38.0599 210.606C38.0536 210.645 38.0536 210.684 38.0599 210.722C38.078 210.689 38.0905 210.653 38.0969 210.616C38.1246 210.532 38.1523 210.426 38.1893 210.297C38.2724 209.989 38.3833 209.582 38.5219 209.077C38.8083 208.001 39.2103 206.467 39.7092 204.582C40.2082 202.697 40.7903 200.424 41.4371 197.906C42.0839 195.388 42.7446 192.611 43.4653 189.701C43.797 188.279 44.0514 186.84 44.2276 185.39C44.3086 184.71 44.4746 184.043 44.7219 183.404C44.9714 182.78 45.2948 182.198 45.5859 181.616C46.125 180.501 46.506 179.316 46.7178 178.095C46.9626 176.968 47.1798 175.919 47.4524 174.972C47.7249 174.025 47.9837 173.189 48.2562 172.459C48.5288 171.729 48.8291 171.128 48.9631 170.583C49.0971 170.038 49.1525 169.627 49.208 169.341L49.2634 169.017V168.906Z" fill="#263238"/>
<path d="M38.674 210.736C40.984 209.35 41.6539 205.192 40.6883 202.656C39.7227 200.119 38.0272 197.837 37.7685 195.153C37.5652 193.092 38.2305 190.972 37.7685 188.957C37.1171 186.236 34.4606 184.125 34.4929 181.33C34.4929 179.759 35.4169 178.281 35.3291 176.71C35.2413 174.783 33.7676 173.259 32.8528 171.563C31.4668 168.971 31.3605 165.904 30.8801 162.993C30.3996 160.082 29.2954 156.987 26.7221 155.541C26.3386 158.013 25.6918 159.699 25.8951 163.049C25.969 164.25 27.3642 166.546 27.5537 169.179C27.6692 170.755 27.7477 172.33 27.8401 173.906C27.8582 175.444 28.109 176.97 28.5839 178.433C29.0043 179.533 29.6835 180.531 29.993 181.667C30.5844 183.802 29.8082 186.112 30.2841 188.274C30.686 190.122 31.9565 191.683 32.2152 193.541C32.5756 196.151 30.8893 198.863 31.7532 201.353C32.1829 202.586 33.1993 203.58 33.4857 204.855C33.7121 205.844 33.4857 206.892 33.6705 207.886C33.9939 209.489 37.0524 210.732 38.6832 210.63" fill="#92E3A9"/>
<path d="M27.3505 158.004C27.3454 158.05 27.3454 158.096 27.3505 158.143L27.406 158.549C27.4568 158.905 27.5168 159.427 27.637 160.106C27.7571 160.785 28.099 161.552 28.3993 162.476C28.6996 163.4 28.9906 164.463 29.2493 165.65C29.5081 166.837 29.7113 168.159 29.9654 169.572C30.1538 171.101 30.5551 172.595 31.1574 174.012C31.4808 174.751 31.8458 175.495 32.1184 176.285C32.3907 177.097 32.5583 177.94 32.6173 178.794C32.7463 180.605 32.973 182.408 33.2965 184.195C34.0079 187.854 34.6825 191.337 35.3015 194.511C35.9206 197.685 36.5351 200.517 37.0248 202.91C37.5145 205.303 37.9488 207.221 38.2075 208.574C38.3507 209.226 38.4616 209.743 38.5402 210.108C38.5817 210.275 38.6095 210.404 38.6326 210.506C38.6557 210.607 38.6695 210.644 38.6741 210.64C38.6788 210.635 38.6741 210.593 38.6741 210.501C38.6741 210.409 38.6326 210.265 38.6048 210.099C38.5355 209.729 38.4385 209.212 38.3138 208.556C38.0504 207.198 37.6716 205.267 37.2004 202.878C36.7291 200.489 36.1562 197.63 35.5233 194.47L33.5413 184.158C33.2187 182.375 32.9905 180.577 32.8576 178.771C32.7951 177.898 32.6212 177.036 32.3401 176.207C32.0583 175.403 31.6887 174.654 31.3607 173.92C30.7615 172.527 30.3588 171.058 30.1641 169.554C29.9239 168.136 29.7021 166.819 29.4157 165.627C29.1734 164.553 28.8773 163.492 28.5286 162.448C28.2329 161.524 27.8726 160.757 27.734 160.097C27.5954 159.436 27.5261 158.9 27.4614 158.549C27.4291 158.383 27.406 158.249 27.3829 158.147C27.3793 158.098 27.3684 158.05 27.3505 158.004Z" fill="#263238"/>
<path d="M154.151 192.807C154.616 192.887 155.061 193.061 155.458 193.317C155.855 193.574 156.196 193.908 156.461 194.299C156.985 195.085 157.322 195.981 157.445 196.918C157.736 198.72 157.237 200.753 156.562 202.462C154.714 201.589 153.79 199.45 153.352 198.332C152.686 196.567 152.557 192.978 154.155 192.821" fill="#92E3A9"/>
<path d="M159.067 204.846C158.828 204.376 158.718 203.851 158.747 203.325C158.776 202.798 158.944 202.289 159.233 201.848C159.53 201.411 159.91 201.039 160.353 200.751C160.796 200.464 161.292 200.268 161.811 200.175C162.043 200.107 162.288 200.09 162.527 200.126C162.767 200.162 162.995 200.25 163.197 200.383C163.364 200.538 163.487 200.736 163.552 200.954C163.617 201.173 163.622 201.405 163.567 201.626C163.458 202.077 163.227 202.489 162.901 202.818C161.853 203.973 160.628 204.897 159.067 204.869" fill="#92E3A9"/>
<path d="M158.683 210.718C158.654 210.595 158.637 210.47 158.632 210.344C158.609 210.081 158.577 209.739 158.54 209.328C158.402 208.203 158.447 207.065 158.674 205.955C158.919 204.84 159.459 203.811 160.235 202.975C160.471 202.727 160.737 202.508 161.025 202.324C161.103 202.271 161.185 202.225 161.27 202.185C161.326 202.153 161.353 202.139 161.358 202.143C160.976 202.406 160.622 202.706 160.3 203.04C159.56 203.88 159.045 204.894 158.803 205.987C158.58 207.084 158.523 208.209 158.632 209.323C158.66 209.753 158.678 210.099 158.683 210.344C158.692 210.469 158.692 210.594 158.683 210.718Z" fill="#263238"/>
<path d="M154.493 195.531C154.518 195.58 154.538 195.631 154.553 195.684L154.706 196.123C154.835 196.511 155.015 197.07 155.237 197.758C155.671 199.144 156.249 201.066 156.836 203.2C157.422 205.335 157.912 207.28 158.222 208.694C158.388 209.4 158.517 209.973 158.6 210.366C158.642 210.555 158.674 210.708 158.697 210.828C158.71 210.88 158.718 210.932 158.72 210.985C158.699 210.936 158.682 210.885 158.67 210.833C158.642 210.717 158.6 210.565 158.554 210.371C158.448 209.96 158.305 209.396 158.129 208.707C157.773 207.321 157.27 205.358 156.683 203.224C156.096 201.089 155.537 199.167 155.121 197.777C154.918 197.093 154.757 196.534 154.636 196.132C154.581 195.947 154.539 195.799 154.507 195.67C154.499 195.624 154.494 195.578 154.493 195.531Z" fill="#263238"/>
<path d="M156.826 206.616C156.351 205.607 155.642 204.726 154.758 204.047C153.874 203.367 152.841 202.908 151.744 202.707C151.19 202.61 150.506 202.638 150.201 203.114C149.896 203.59 150.173 204.223 150.515 204.675C151.24 205.608 152.225 206.305 153.346 206.678C154.467 207.051 155.673 207.084 156.812 206.773" fill="#92E3A9"/>
<path d="M152.46 204.297C152.577 204.302 152.693 204.317 152.806 204.343C152.922 204.366 153.056 204.389 153.213 204.435C153.37 204.482 153.55 204.514 153.74 204.588C153.95 204.658 154.157 204.74 154.359 204.833C154.593 204.935 154.821 205.049 155.043 205.175C156.067 205.757 156.935 206.58 157.57 207.572C157.706 207.787 157.829 208.009 157.939 208.238C158.042 208.437 158.131 208.642 158.207 208.852C158.275 209.023 158.332 209.197 158.378 209.374C158.421 209.506 158.455 209.64 158.48 209.776C158.511 209.889 158.53 210.006 158.535 210.123C158.508 210.123 158.42 209.633 158.119 208.885C158.038 208.681 157.945 208.482 157.842 208.289C157.728 208.065 157.604 207.848 157.468 207.637C157.149 207.156 156.779 206.712 156.364 206.311C155.939 205.92 155.475 205.575 154.978 205.281C154.761 205.154 154.537 205.038 154.308 204.934C154.112 204.835 153.91 204.751 153.703 204.68C152.954 204.403 152.46 204.325 152.46 204.297Z" fill="#263238"/>
<path d="M153.633 52.8764L151.651 46.2513C153.582 43.9829 154.225 41.9686 154.714 38.8085C155.29 35.0839 154.588 31.274 152.721 27.9999C150.854 24.7257 147.934 22.1803 144.435 20.7785C140.937 19.3768 137.066 19.2013 133.455 20.2806C129.844 21.36 126.705 23.6306 124.55 26.7224C122.395 29.8141 121.35 33.5448 121.587 37.3062C121.823 41.0677 123.326 44.6382 125.852 47.4358C128.377 50.2334 131.776 52.0932 135.493 52.7121C139.211 53.3309 143.029 52.6723 146.324 50.8436L147.373 50.0443L153.633 52.8764Z" fill="white"/>
<path d="M141.104 34.0901H140.078L137.838 30.9532V28.9204C137.838 28.9204 136.253 28.8233 136.452 31.5029C136.65 34.1825 136.452 33.5034 136.452 33.5034C136.452 33.5034 133.084 33.5034 132.802 33.8083C132.599 34.0208 132.506 37.3703 132.474 39.1814C132.451 39.619 132.574 40.0519 132.826 40.4111C133.077 40.7703 133.441 41.0351 133.86 41.1634C133.98 41.1924 134.102 41.2079 134.225 41.2096C135.061 41.2096 139.358 40.5258 139.358 40.5258H141.127L141.104 34.0901Z" fill="#92E3A9"/>
<path d="M144.042 33.5273L143.414 40.5497H141.654V33.6706L144.042 33.5273Z" fill="#92E3A9"/>
<path d="M138.244 19.4269H137.953L137.098 19.4546C136.914 19.4546 136.701 19.4546 136.47 19.4823L135.717 19.584L134.839 19.7133L133.86 19.9536C132.171 20.3793 130.563 21.0801 129.101 22.0279C126.938 23.4042 125.119 25.2571 123.782 27.4448C122.446 29.6325 121.628 32.0971 121.39 34.6498C121.323 35.4179 121.308 36.1896 121.344 36.9598C121.372 37.3479 121.344 37.7406 121.418 38.1333L121.598 39.3206C121.898 40.9507 122.437 42.5276 123.197 44.0007C124.007 45.5442 125.038 46.9619 126.255 48.2095C127.552 49.4835 129.037 50.5509 130.658 51.3742C132.337 52.234 134.154 52.7907 136.027 53.0189C136.501 53.0929 136.979 53.1346 137.459 53.1436C137.942 53.1714 138.426 53.1714 138.909 53.1436C139.884 53.1069 140.853 52.9848 141.806 52.7786C143.866 52.3353 145.824 51.5112 147.581 50.3485H147.406L153.287 52.7094L153.633 52.848L153.536 52.4876C152.942 50.3316 152.366 48.2357 151.808 46.1998L151.776 46.3568C153.371 44.2416 154.446 41.7805 154.913 39.1728C155.142 37.9549 155.219 36.7136 155.144 35.4768C155.131 34.8852 155.076 34.2954 154.978 33.7119C154.932 33.4209 154.885 33.1344 154.844 32.8526C154.802 32.5708 154.705 32.2936 154.636 32.0164C153.652 28.1515 151.327 24.762 148.075 22.453C146.875 21.5895 145.562 20.8961 144.172 20.3925L143.294 20.0783L142.458 19.8658L141.695 19.6764C141.45 19.6302 141.233 19.6071 140.993 19.5701C140.531 19.5147 140.157 19.4361 139.815 19.4223L138.951 19.3945H138.42H138.244C138.301 19.4124 138.36 19.4217 138.42 19.4223L138.946 19.4638L139.806 19.5193C140.143 19.547 140.531 19.6302 140.97 19.6995C144.16 20.25 147.122 21.7147 149.496 23.9158C151.871 26.117 153.555 28.9599 154.345 32.0995C154.41 32.3721 154.493 32.6401 154.543 32.9219L154.668 33.7627C154.763 34.3372 154.815 34.9178 154.825 35.4998C154.889 36.7079 154.809 37.9192 154.585 39.1081C154.119 41.6608 153.058 44.0679 151.49 46.1351L151.439 46.2044V46.2922C151.993 48.3204 152.566 50.4225 153.153 52.58L153.402 52.3582L147.526 49.9928L147.433 49.9558L147.35 50.0113C144.825 51.6752 141.894 52.6192 138.872 52.7417C138.4 52.7602 137.926 52.7509 137.454 52.714C136.99 52.7072 136.527 52.6686 136.068 52.5985C134.236 52.3753 132.458 51.831 130.815 50.9907C129.227 50.1889 127.772 49.1481 126.5 47.9046C125.307 46.6849 124.296 45.3002 123.497 43.7928C122.759 42.3682 122.23 40.8449 121.926 39.2698L121.746 38.1055C121.691 37.7221 121.695 37.334 121.668 36.9552C121.631 36.2021 121.643 35.4474 121.705 34.696C121.926 32.1826 122.718 29.7528 124.02 27.5913C125.322 25.4298 127.099 23.5935 129.217 22.222C130.652 21.2712 132.233 20.5597 133.897 20.1153L134.867 19.8565L135.735 19.7133L136.479 19.5886C136.71 19.5886 136.918 19.5562 137.103 19.5424L137.953 19.4823C138.052 19.474 138.149 19.4554 138.244 19.4269Z" fill="#263238"/>
</svg>
