<svg width="273" height="273" viewBox="0 0 273 273" fill="none" xmlns="http://www.w3.org/2000/svg">
<path d="M227.841 114.158C231.663 100.678 234.393 87.9503 223.937 74.535C210.904 57.8001 191.723 57.5053 171.99 62.2391C150.511 67.3988 129.402 75.8564 107.781 66.0611C99.6779 62.3865 92.5362 56.7791 83.904 54.3767C59.5142 47.6391 40.1093 69.5446 34.5783 89.4518C31.1714 101.807 31.1488 114.851 34.5128 127.219C37.5322 138.33 48.545 145.695 50.6853 156.894C53.4809 171.516 37.5813 186.454 54.2616 198.39C60.5679 202.905 69.0309 204.145 76.8879 203.118C94.8622 200.776 109.844 189.271 125.913 182.321C141.889 175.409 160.18 171.526 176.566 179.476C186.213 184.155 199.891 191.379 210.827 186.083C222.326 180.519 229.014 168.119 227.573 156.342C226.426 146.918 222.037 137.118 224.215 127.568C225.258 122.965 226.59 118.521 227.841 114.158Z" fill="#92E3A9"/>
<path opacity="0.5" d="M227.841 114.158C231.663 100.678 234.393 87.9503 223.937 74.535C210.904 57.8001 191.723 57.5053 171.99 62.2391C150.511 67.3988 129.402 75.8564 107.781 66.0611C99.6779 62.3865 92.5362 56.7791 83.904 54.3767C59.5142 47.6391 40.1093 69.5446 34.5783 89.4518C31.1714 101.807 31.1488 114.851 34.5128 127.219C37.5322 138.33 48.545 145.695 50.6853 156.894C53.4809 171.516 37.5813 186.454 54.2616 198.39C60.5679 202.905 69.0309 204.145 76.8879 203.118C94.8622 200.776 109.844 189.271 125.913 182.321C141.889 175.409 160.18 171.526 176.566 179.476C186.213 184.155 199.891 191.379 210.827 186.083C222.326 180.519 229.014 168.119 227.573 156.342C226.426 146.918 222.037 137.118 224.215 127.568C225.258 122.965 226.59 118.521 227.841 114.158Z" fill="white"/>
<path d="M141.594 216.217C189.657 216.217 228.621 213.144 228.621 209.353C228.621 205.563 189.657 202.49 141.594 202.49C93.5302 202.49 54.5669 205.563 54.5669 209.353C54.5669 213.144 93.5302 216.217 141.594 216.217Z" fill="#92E3A9"/>
<path opacity="0.3" d="M141.594 216.217C189.657 216.217 228.621 213.144 228.621 209.353C228.621 205.563 189.657 202.49 141.594 202.49C93.5302 202.49 54.5669 205.563 54.5669 209.353C54.5669 213.144 93.5302 216.217 141.594 216.217Z" fill="white"/>
<path d="M234.78 220.951H40.4038V227.137H234.78V220.951Z" fill="#92E3A9"/>
<path opacity="0.5" d="M234.78 220.951H40.4038V227.137H234.78V220.951Z" fill="white"/>
<path d="M52.4654 178.7C53.1669 178.165 53.7851 177.528 54.2999 176.811C54.492 176.484 54.6111 176.12 54.6488 175.743C54.6865 175.366 54.642 174.985 54.5183 174.627C54.4445 174.468 54.3382 174.327 54.2062 174.212C54.0743 174.097 53.9197 174.011 53.7524 173.96C53.5852 173.908 53.409 173.892 53.2352 173.913C53.0615 173.934 52.8941 173.991 52.7438 174.081C51.8484 174.627 51.7501 176.544 51.9794 177.455C52.0013 177.51 52.4544 178.711 52.4654 178.7Z" fill="#2E353A"/>
<path d="M38.9901 188.288C39.0502 188.343 40.0821 189.096 40.0821 189.08C40.0821 189.063 40.6609 187.316 40.5681 186.492C40.5506 186.114 40.4512 185.744 40.2768 185.409C40.1024 185.073 39.8571 184.779 39.558 184.548C39.4098 184.454 39.2436 184.392 39.07 184.367C38.8965 184.341 38.7195 184.353 38.5506 184.4C38.3817 184.447 38.2246 184.53 38.0896 184.642C37.9546 184.754 37.8448 184.893 37.7671 185.05C37.3248 186.011 38.2967 187.649 38.9901 188.288Z" fill="#2E353A"/>
<path d="M69.5333 180.441C69.5333 180.441 64.1989 185.951 64.2262 192.715C64.2535 199.48 69.637 204.946 69.637 204.946C69.637 204.946 74.9715 199.437 74.9442 192.672C74.9169 185.907 69.5333 180.441 69.5333 180.441Z" fill="#2E353A"/>
<path d="M61.922 196.767C61.9927 196.692 62.0584 196.611 62.1186 196.527C62.3486 196.224 62.5097 195.875 62.5908 195.503C62.6719 195.132 62.671 194.747 62.5882 194.376C62.5349 194.208 62.447 194.054 62.3301 193.923C62.2133 193.792 62.07 193.687 61.9098 193.614C61.7496 193.542 61.576 193.505 61.4003 193.504C61.2246 193.504 61.0507 193.54 60.8901 193.611C60.1694 193.95 59.7981 195.113 59.738 196.063C59.4487 195.997 59.192 195.948 58.9627 195.91C58.8699 195.692 58.7716 195.479 58.6733 195.26C58.5751 195.042 58.4932 194.807 58.4003 194.578C58.2748 194.239 58.1601 193.884 58.0454 193.529C58.8089 193.218 59.5197 192.791 60.153 192.263C60.4259 191.998 60.638 191.678 60.7747 191.323C60.9114 190.969 60.9694 190.589 60.9447 190.21C60.9178 190.036 60.8545 189.87 60.7591 189.722C60.6636 189.575 60.5382 189.449 60.3908 189.353C60.2434 189.257 60.0775 189.194 59.9039 189.166C59.7303 189.139 59.5528 189.148 59.3831 189.194C58.373 189.495 57.7779 191.302 57.7451 192.246C57.7451 192.279 57.7451 192.476 57.7779 192.716C57.6796 192.367 57.5759 192.017 57.4831 191.662C57.221 190.647 56.9917 189.609 56.7514 188.566C56.7023 188.348 56.6477 188.135 56.5985 187.917C57.3883 187.597 58.1247 187.159 58.7825 186.617C59.0576 186.351 59.2706 186.028 59.4065 185.67C59.5424 185.312 59.5978 184.929 59.5688 184.548C59.5426 184.374 59.48 184.208 59.3851 184.061C59.2902 183.913 59.1652 183.787 59.0183 183.691C58.8713 183.595 58.7058 183.532 58.5325 183.504C58.3592 183.477 58.1821 183.486 58.0127 183.532C56.9971 183.833 56.3747 185.645 56.3747 186.59C56.3747 186.623 56.3747 186.863 56.4184 187.136C56.2819 186.59 56.1399 186.017 55.9761 185.465C55.7066 184.516 55.3746 183.586 54.9824 182.68C55.7913 182.354 56.546 181.906 57.221 181.354C57.4948 181.09 57.7075 180.77 57.8443 180.415C57.9811 180.06 58.0385 179.68 58.0127 179.301C57.9858 179.127 57.9225 178.961 57.8271 178.813C57.7316 178.666 57.6061 178.54 57.4588 178.444C57.3114 178.348 57.1455 178.285 56.9719 178.257C56.7983 178.23 56.6208 178.239 56.4511 178.285C55.441 178.585 54.8459 180.398 54.8131 181.337C54.8131 181.408 54.8896 182.271 54.9278 182.577V182.544C54.5178 181.666 54.0318 180.826 53.4754 180.032C52.9797 179.323 52.4437 178.643 51.8702 177.996C51.3242 177.39 50.8273 176.871 50.3632 176.412C50.1121 176.167 49.8773 175.943 49.6534 175.741C49.6534 175.741 49.162 174.561 49.1074 174.49C48.6324 173.671 47.2346 172.372 46.2027 172.596C46.0329 172.638 45.8739 172.716 45.736 172.823C45.598 172.931 45.4842 173.066 45.4018 173.221C45.3195 173.375 45.2705 173.545 45.2579 173.72C45.2454 173.894 45.2697 174.069 45.3291 174.234C45.4891 174.579 45.7225 174.884 46.013 175.13C46.3035 175.375 46.644 175.554 47.0108 175.653C47.8495 175.812 48.7075 175.841 49.5551 175.741C49.779 175.959 50.0192 176.189 50.2759 176.456C50.729 176.92 51.2368 177.455 51.7446 178.067C51.8811 178.231 52.0231 178.411 52.1596 178.613C51.8647 178.373 51.4552 178.039 51.4115 178.012C50.6144 177.51 48.7798 176.997 47.9663 177.674C47.8363 177.791 47.7323 177.935 47.6612 178.095C47.5901 178.256 47.5533 178.429 47.5533 178.605C47.5533 178.78 47.5901 178.953 47.6612 179.114C47.7323 179.274 47.8363 179.418 47.9663 179.536C48.2681 179.766 48.6162 179.928 48.9866 180.011C49.357 180.094 49.7409 180.095 50.1121 180.016C50.9343 179.775 51.7136 179.407 52.4216 178.924C52.7274 179.317 53.0277 179.721 53.3171 180.163C53.8502 180.958 54.3107 181.798 54.693 182.675C54.693 182.724 54.7312 182.779 54.7531 182.828C54.6275 182.686 53.8904 181.932 53.8303 181.889C53.0932 181.299 51.3242 180.589 50.4451 181.168C50.3011 181.269 50.1798 181.399 50.0892 181.549C49.9985 181.7 49.9405 181.868 49.9189 182.043C49.8973 182.217 49.9125 182.394 49.9637 182.562C50.0148 182.731 50.1007 182.886 50.2158 183.019C50.4904 183.281 50.8185 183.481 51.1776 183.604C51.5367 183.728 51.9182 183.772 52.2961 183.734C53.159 183.569 53.9926 183.277 54.7694 182.866C55.1294 183.755 55.4303 184.667 55.6703 185.596C55.856 186.279 56.0089 186.977 56.1617 187.682C55.9925 187.496 55.3045 186.797 55.2499 186.754C54.5128 186.164 52.7438 185.454 51.8593 186.033C51.7156 186.134 51.5948 186.264 51.5047 186.415C51.4145 186.566 51.3571 186.734 51.336 186.909C51.3149 187.083 51.3306 187.26 51.3822 187.428C51.4338 187.596 51.52 187.751 51.6354 187.884C51.909 188.148 52.2369 188.348 52.5963 188.472C52.9557 188.595 53.3377 188.639 53.7157 188.599C54.5735 188.437 55.4019 188.146 56.1727 187.736C56.2436 188.059 56.3092 188.375 56.3747 188.697C56.5931 189.74 56.806 190.789 57.0463 191.815C57.1282 192.17 57.221 192.519 57.3193 192.869C57.0572 192.596 56.5767 192.115 56.533 192.077C55.7959 191.487 54.0269 190.778 53.1424 191.362C52.9989 191.463 52.8782 191.592 52.7881 191.743C52.698 191.893 52.6405 192.061 52.6194 192.235C52.5983 192.409 52.614 192.585 52.6655 192.753C52.7171 192.92 52.8033 193.075 52.9185 193.207C53.1921 193.471 53.52 193.672 53.8794 193.795C54.2388 193.919 54.6208 193.962 54.9988 193.923C55.8289 193.771 56.6315 193.495 57.3793 193.104C57.5395 193.682 57.7215 194.25 57.9253 194.807C58.0181 195.042 58.0946 195.293 58.1929 195.517L58.3403 195.872H58.1383C58.1383 195.872 58.1383 196.205 58.1383 196.74C57.3629 196.194 56.2436 195.708 55.512 196.047C55.3553 196.125 55.2167 196.235 55.1052 196.37C54.9936 196.505 54.9115 196.662 54.8642 196.831C54.8169 196.999 54.8054 197.176 54.8305 197.349C54.8555 197.523 54.9166 197.689 55.0097 197.837C55.0594 197.916 55.1141 197.99 55.1735 198.061C55.3111 198.88 55.6571 199.649 56.1781 200.294C56.2163 200.344 56.7241 200.84 57.019 201.07L56.2163 200.633C55.8178 200.409 55.4083 200.163 55.0097 199.929C54.8022 199.803 54.6002 199.672 54.3927 199.535C54.1852 199.399 53.9941 199.262 53.7921 199.121C53.4973 198.908 53.2079 198.678 52.913 198.443C53.3806 197.763 53.7381 197.013 53.9723 196.221C54.0554 195.851 54.056 195.466 53.9739 195.095C53.8918 194.725 53.7291 194.376 53.4973 194.075C53.3805 193.945 53.2375 193.84 53.0775 193.769C52.9176 193.697 52.7443 193.66 52.5691 193.66C52.3938 193.66 52.2206 193.697 52.0606 193.769C51.9007 193.84 51.7576 193.945 51.6409 194.075C50.9584 194.884 51.4607 196.724 51.963 197.521C51.963 197.548 52.105 197.706 52.2524 197.892C51.9739 197.657 51.7064 197.422 51.4225 197.177C50.6471 196.478 49.8773 195.735 49.1074 194.993L48.6215 194.54C49.0998 193.839 49.468 193.069 49.7135 192.257C49.7963 191.886 49.7972 191.501 49.7161 191.13C49.635 190.758 49.4739 190.409 49.2439 190.106C49.1262 189.976 48.9825 189.872 48.8222 189.801C48.6619 189.73 48.4884 189.693 48.313 189.693C48.1376 189.693 47.9641 189.73 47.8038 189.801C47.6435 189.872 47.4998 189.976 47.3821 190.106C46.705 190.914 47.2073 192.754 47.7097 193.551C47.7097 193.579 47.8735 193.77 48.0427 193.977C47.6168 193.584 47.1855 193.196 46.7487 192.825C46.0008 192.184 45.211 191.593 44.3845 191.056C44.8765 190.334 45.2591 189.542 45.5202 188.708C45.6007 188.338 45.5999 187.954 45.5179 187.583C45.4359 187.213 45.2747 186.865 45.0452 186.563C44.9279 186.432 44.7844 186.327 44.624 186.256C44.4636 186.184 44.2899 186.147 44.1143 186.147C43.9386 186.147 43.7649 186.184 43.6045 186.256C43.4441 186.327 43.3006 186.432 43.1833 186.563C42.5063 187.371 43.0086 189.211 43.5109 190.008C43.5491 190.068 44.0897 190.745 44.2917 190.98H44.2589C43.4337 190.474 42.5659 190.041 41.6654 189.686C40.8608 189.368 40.0386 189.096 39.203 188.872C38.4331 188.659 37.7124 188.506 37.0736 188.381L36.1126 188.211C36.1126 188.211 35.0206 187.502 34.9769 187.463C34.1306 187.043 32.2469 186.732 31.5153 187.463C31.3957 187.592 31.3047 187.744 31.2483 187.911C31.1918 188.077 31.1711 188.253 31.1876 188.428C31.2041 188.603 31.2574 188.772 31.344 188.925C31.4306 189.078 31.5485 189.21 31.69 189.314C32.0132 189.514 32.3762 189.641 32.7535 189.685C33.1309 189.729 33.5134 189.69 33.874 189.571C34.6652 189.242 35.4016 188.795 36.058 188.244C36.3638 188.299 36.6914 188.359 37.0517 188.435C37.6851 188.577 38.4004 188.741 39.1648 188.981C39.3722 189.041 39.5906 189.118 39.7981 189.183L38.8481 189.096C37.9035 189.096 36.1181 189.702 35.785 190.734C35.7383 190.903 35.7277 191.08 35.7541 191.253C35.7804 191.426 35.843 191.592 35.9379 191.74C36.0327 191.887 36.1576 192.013 36.3044 192.109C36.4512 192.204 36.6165 192.268 36.7897 192.296C37.1689 192.323 37.5495 192.267 37.905 192.132C38.2605 191.997 38.5824 191.787 38.8481 191.515C39.3959 190.857 39.8413 190.121 40.1694 189.331C40.6335 189.489 41.1085 189.658 41.5945 189.877C42.4771 190.242 43.325 190.686 44.1279 191.204L44.2644 191.302C44.0788 191.253 43.0468 191.034 42.9758 191.029C42.0367 190.941 40.1694 191.329 39.7544 192.301C39.6927 192.463 39.6654 192.635 39.6744 192.808C39.6833 192.981 39.7283 193.15 39.8065 193.304C39.8847 193.458 39.9943 193.594 40.1282 193.704C40.2622 193.813 40.4176 193.893 40.5844 193.939C40.9577 194.008 41.3416 193.995 41.7094 193.901C42.0771 193.807 42.4199 193.633 42.7138 193.393C43.3409 192.779 43.8744 192.076 44.2972 191.307C45.0839 191.844 45.8353 192.432 46.5467 193.065C47.0927 193.535 47.5895 194.032 48.1028 194.534C47.8625 194.469 46.9016 194.272 46.8306 194.267C45.8915 194.179 44.0242 194.561 43.6092 195.533C43.5446 195.697 43.5151 195.871 43.5226 196.047C43.5301 196.222 43.5745 196.394 43.6528 196.551C43.731 196.708 43.8415 196.847 43.977 196.959C44.1125 197.07 44.2699 197.152 44.4391 197.199C44.8124 197.268 45.1963 197.255 45.5641 197.161C45.9319 197.066 46.2747 196.893 46.5685 196.653C47.194 196.045 47.7257 195.347 48.1465 194.583L48.8399 195.266C49.5988 196.019 50.3523 196.778 51.1222 197.499C51.3842 197.75 51.6682 197.99 51.9302 198.231C51.5644 198.149 50.8983 198.007 50.8382 198.001C49.8991 197.914 48.0318 198.302 47.6168 199.273C47.5523 199.437 47.5228 199.612 47.5303 199.787C47.5378 199.962 47.5821 200.134 47.6604 200.291C47.7387 200.448 47.8492 200.587 47.9846 200.699C48.1201 200.81 48.2776 200.892 48.4468 200.939C48.8201 201.008 49.204 200.995 49.5718 200.901C49.9395 200.807 50.2823 200.633 50.5762 200.393C51.1889 199.812 51.705 199.138 52.105 198.394C52.5636 198.793 53.0222 199.175 53.4863 199.525C53.6938 199.677 53.8958 199.841 54.0979 199.972L54.7094 200.376C55.1298 200.638 55.5229 200.884 55.927 201.119L56.5166 201.463C56.1617 201.321 55.5884 201.108 55.5393 201.097C54.622 200.868 52.7165 200.966 52.1596 201.861C52.0699 202.012 52.0127 202.179 51.9918 202.353C51.9709 202.527 51.9866 202.703 52.0381 202.87C52.0896 203.037 52.1756 203.192 52.2905 203.324C52.4055 203.456 52.5469 203.562 52.7056 203.636C53.0639 203.76 53.4451 203.804 53.8223 203.765C54.1995 203.727 54.5638 203.606 54.8896 203.412C55.5984 202.91 56.2263 202.302 56.7514 201.61C57.2374 201.889 57.7124 202.156 58.1601 202.391C59.3613 203.035 60.4042 203.543 61.2177 203.925C63.8494 206.202 67.5622 206.453 67.5622 206.453C67.5622 206.453 67.7533 202.014 65.138 199.088C64.2491 198.088 63.1512 197.296 61.922 196.767ZM57.221 201.103C57.5792 200.343 57.8326 199.539 57.9745 198.711L58.4113 198.618C58.6826 200.022 59.2402 201.354 60.0493 202.533C59.5688 202.304 59.0501 202.053 58.4986 201.769C58.0891 201.567 57.6578 201.337 57.221 201.103Z" fill="#2E353A"/>
<path d="M81.3544 195.922C81.3544 195.922 76.91 196.058 74.1909 198.881C71.4719 201.704 71.5264 206.154 71.5264 206.154C71.5264 206.154 75.9709 206.017 78.69 203.195C81.409 200.372 81.3544 195.922 81.3544 195.922Z" fill="#2E353A"/>
<path d="M69.7517 198.782L74.1197 194.856L73.9286 194.648L69.7517 198.405L69.7299 193.261L69.7517 193.278L73.4427 187.878L73.2134 187.72L69.7244 192.819L69.6698 180.441H69.3914L69.4296 188.844L66.6505 186.436L66.4648 186.649L69.4296 189.216L69.4569 195.222L65.2418 191.498L65.0562 191.705L69.4569 195.598L69.4787 201.064L66.3174 198.58L66.1427 198.803L69.4842 201.424L69.4951 204.946L69.779 204.94L69.7517 198.782Z" fill="white"/>
<path d="M65.7333 200.295L65.4548 200.268L65.0999 203.375L63.2271 201.278L62.7521 197.516L62.4736 197.554L62.8995 200.918L58.2421 195.709L58.0347 195.895L61.196 199.427L59.1922 199.455L59.1976 199.733L61.4417 199.706L63.6585 202.185L60.5299 202.19V202.468L63.9096 202.463L65.9244 204.718L63.7185 204.849L63.7349 205.127L66.1646 204.986L67.5078 206.482L67.7152 206.296L65.3511 203.653L65.7333 200.295Z" fill="white"/>
<path d="M76.2766 201.402L79.9948 200.649L79.9402 200.376L76.6151 201.053L81.4636 196.013L81.2615 195.822L77.9692 199.24L77.7999 197.242L77.5214 197.269L77.7125 199.508L75.4084 201.899L75.1736 198.782L74.8897 198.803L75.1464 202.172L73.0497 204.351L72.7549 202.156L72.4764 202.194L72.804 204.607L71.4062 206.054L71.6083 206.251L74.0707 203.696L77.445 203.827L77.4559 203.548L74.3274 203.428L76.2766 201.402Z" fill="white"/>
<path d="M221.092 178.7C220.394 178.162 219.778 177.526 219.263 176.811C219.071 176.484 218.952 176.12 218.914 175.743C218.876 175.366 218.921 174.985 219.044 174.627C219.118 174.468 219.223 174.327 219.355 174.212C219.486 174.097 219.64 174.011 219.807 173.96C219.974 173.908 220.15 173.892 220.323 173.913C220.497 173.934 220.664 173.991 220.813 174.081C221.714 174.627 221.807 176.543 221.583 177.455C221.561 177.51 221.13 178.711 221.092 178.7Z" fill="#2E353A"/>
<path d="M234.573 188.288C234.513 188.343 233.481 189.096 233.481 189.08C233.481 189.063 232.902 187.316 232.995 186.492C233.014 186.113 233.116 185.742 233.294 185.407C233.471 185.071 233.719 184.778 234.021 184.548C234.17 184.454 234.336 184.392 234.509 184.367C234.683 184.341 234.86 184.353 235.029 184.4C235.198 184.447 235.355 184.53 235.49 184.642C235.625 184.754 235.735 184.893 235.812 185.05C236.238 186.011 235.266 187.649 234.573 188.288Z" fill="#2E353A"/>
<path d="M204.03 180.441C204.03 180.441 209.364 185.951 209.337 192.715C209.309 199.48 203.926 204.946 203.926 204.946C203.926 204.946 198.586 199.437 198.619 192.672C198.652 185.907 204.03 180.441 204.03 180.441Z" fill="#2E353A"/>
<path d="M211.635 196.767C211.566 196.692 211.503 196.611 211.444 196.527C211.214 196.224 211.053 195.875 210.972 195.503C210.891 195.132 210.892 194.747 210.975 194.376C211.027 194.209 211.115 194.054 211.231 193.923C211.347 193.792 211.49 193.687 211.65 193.615C211.81 193.543 211.983 193.505 212.158 193.504C212.334 193.504 212.507 193.54 212.667 193.611C213.394 193.95 213.759 195.113 213.825 196.063C214.114 195.997 214.371 195.948 214.6 195.91C214.693 195.692 214.791 195.479 214.89 195.26C214.988 195.042 215.07 194.807 215.163 194.578C215.288 194.239 215.403 193.884 215.518 193.529C214.754 193.218 214.043 192.791 213.41 192.263C213.137 191.998 212.925 191.678 212.788 191.323C212.652 190.969 212.594 190.589 212.618 190.21C212.645 190.036 212.708 189.87 212.804 189.722C212.899 189.575 213.025 189.449 213.172 189.353C213.32 189.257 213.485 189.194 213.659 189.166C213.833 189.139 214.01 189.148 214.18 189.194C215.19 189.495 215.785 191.302 215.818 192.246C215.818 192.279 215.818 192.476 215.78 192.716C215.883 192.367 215.987 192.017 216.08 191.662C216.342 190.647 216.571 189.609 216.812 188.566C216.861 188.348 216.915 188.135 216.964 187.917C216.175 187.597 215.438 187.159 214.78 186.617C214.508 186.353 214.296 186.032 214.159 185.678C214.023 185.323 213.964 184.943 213.989 184.564C214.016 184.391 214.08 184.225 214.176 184.078C214.272 183.931 214.397 183.805 214.544 183.71C214.691 183.614 214.857 183.55 215.03 183.523C215.203 183.495 215.381 183.504 215.55 183.549C216.566 183.849 217.188 185.662 217.188 186.606C217.188 186.639 217.188 186.879 217.139 187.152C217.281 186.606 217.423 186.033 217.587 185.481C217.856 184.532 218.188 183.602 218.581 182.697C217.772 182.37 217.017 181.923 216.342 181.37C216.068 181.106 215.855 180.786 215.719 180.431C215.582 180.077 215.524 179.696 215.55 179.317C215.577 179.144 215.64 178.979 215.736 178.831C215.831 178.684 215.956 178.559 216.102 178.463C216.249 178.367 216.414 178.303 216.587 178.276C216.76 178.248 216.937 178.257 217.106 178.302C218.122 178.602 218.717 180.415 218.744 181.354C218.744 181.425 218.668 182.287 218.63 182.593C218.63 182.593 218.63 182.593 218.63 182.56C219.038 181.681 219.524 180.841 220.082 180.049C220.574 179.334 221.106 178.649 221.676 177.996C222.222 177.39 222.719 176.871 223.183 176.412C223.435 176.167 223.669 175.943 223.893 175.741H223.86C223.86 175.741 224.357 174.561 224.406 174.49C224.881 173.671 226.274 172.372 227.311 172.596C227.48 172.639 227.639 172.717 227.776 172.825C227.914 172.932 228.027 173.068 228.11 173.222C228.192 173.376 228.241 173.546 228.254 173.72C228.267 173.894 228.243 174.069 228.185 174.234C228.025 174.579 227.791 174.884 227.501 175.13C227.21 175.375 226.87 175.554 226.503 175.653C225.664 175.812 224.806 175.841 223.959 175.741C223.735 175.959 223.495 176.189 223.233 176.456C222.785 176.92 222.277 177.455 221.769 178.067C221.633 178.231 221.491 178.411 221.354 178.613C221.649 178.373 222.059 178.039 222.102 178.012C222.894 177.51 224.734 176.997 225.548 177.674C225.678 177.791 225.781 177.935 225.853 178.095C225.924 178.256 225.96 178.429 225.96 178.605C225.96 178.78 225.924 178.953 225.853 179.114C225.781 179.274 225.678 179.418 225.548 179.536C225.246 179.766 224.898 179.928 224.527 180.011C224.157 180.094 223.773 180.095 223.402 180.016C222.578 179.773 221.798 179.405 221.087 178.924C220.786 179.317 220.486 179.721 220.197 180.163C219.664 180.959 219.202 181.799 218.815 182.675C218.815 182.724 218.777 182.779 218.761 182.828C218.881 182.686 219.623 181.932 219.683 181.889C220.421 181.299 222.19 180.589 223.069 181.168C223.213 181.269 223.334 181.399 223.425 181.549C223.515 181.7 223.573 181.868 223.595 182.043C223.617 182.217 223.601 182.394 223.55 182.562C223.499 182.73 223.413 182.886 223.298 183.019C223.023 183.281 222.695 183.481 222.336 183.604C221.977 183.728 221.596 183.772 221.218 183.734C220.355 183.569 219.521 183.277 218.744 182.866C218.384 183.755 218.083 184.667 217.843 185.596C217.658 186.279 217.505 186.977 217.352 187.682C217.521 187.496 218.209 186.797 218.264 186.754C219.001 186.164 220.77 185.454 221.655 186.033C221.798 186.134 221.919 186.264 222.009 186.415C222.099 186.566 222.157 186.734 222.178 186.909C222.199 187.083 222.183 187.26 222.132 187.428C222.08 187.596 221.994 187.751 221.878 187.884C221.605 188.148 221.277 188.348 220.918 188.472C220.558 188.595 220.176 188.639 219.798 188.599C218.94 188.438 218.111 188.147 217.341 187.736C217.27 188.059 217.205 188.375 217.134 188.697C216.921 189.74 216.708 190.789 216.468 191.815C216.386 192.17 216.287 192.519 216.195 192.869C216.457 192.596 216.937 192.115 216.981 192.077C217.718 191.487 219.487 190.778 220.366 191.362C220.51 191.462 220.631 191.592 220.722 191.742C220.812 191.892 220.87 192.059 220.892 192.234C220.914 192.408 220.898 192.584 220.847 192.752C220.796 192.92 220.71 193.075 220.595 193.207C220.322 193.471 219.994 193.671 219.634 193.795C219.275 193.918 218.893 193.962 218.515 193.923C217.685 193.771 216.882 193.495 216.134 193.104C215.976 193.682 215.801 194.25 215.588 194.807C215.501 195.042 215.425 195.293 215.326 195.517L215.179 195.872H215.381C215.381 195.872 215.381 196.205 215.381 196.74C216.156 196.194 217.276 195.708 218.002 196.047C218.16 196.124 218.299 196.233 218.412 196.368C218.525 196.503 218.607 196.66 218.655 196.829C218.703 196.998 218.715 197.175 218.69 197.349C218.665 197.522 218.603 197.689 218.51 197.837C218.46 197.916 218.405 197.99 218.346 198.061C218.208 198.88 217.862 199.649 217.341 200.294C217.303 200.344 216.795 200.84 216.5 201.07L217.303 200.633C217.702 200.409 218.111 200.163 218.51 199.929C218.717 199.803 218.919 199.672 219.127 199.535C219.334 199.399 219.525 199.262 219.727 199.121C220.022 198.908 220.311 198.678 220.606 198.443C220.139 197.763 219.781 197.013 219.547 196.221C219.464 195.851 219.463 195.467 219.544 195.096C219.626 194.726 219.787 194.377 220.017 194.075C220.134 193.945 220.277 193.84 220.438 193.768C220.598 193.697 220.772 193.66 220.947 193.66C221.123 193.66 221.297 193.697 221.457 193.768C221.618 193.84 221.761 193.945 221.878 194.075C222.561 194.884 222.059 196.724 221.556 197.521C221.556 197.548 221.414 197.706 221.267 197.892C221.545 197.657 221.813 197.422 222.097 197.177C222.872 196.478 223.642 195.735 224.412 194.993L224.898 194.54C224.422 193.838 224.053 193.068 223.806 192.257C223.725 191.886 223.726 191.501 223.808 191.13C223.89 190.758 224.051 190.409 224.281 190.106C224.399 189.976 224.542 189.872 224.703 189.801C224.863 189.73 225.036 189.693 225.212 189.693C225.387 189.693 225.561 189.73 225.721 189.801C225.881 189.872 226.025 189.976 226.143 190.106C226.82 190.914 226.317 192.754 225.815 193.551C225.815 193.579 225.651 193.77 225.482 193.977C225.908 193.584 226.339 193.196 226.776 192.825C227.524 192.184 228.314 191.593 229.14 191.056C228.646 190.335 228.263 189.543 228.005 188.708C227.923 188.338 227.923 187.954 228.005 187.583C228.087 187.212 228.249 186.864 228.48 186.563C228.597 186.432 228.74 186.327 228.901 186.256C229.061 186.184 229.235 186.147 229.41 186.147C229.586 186.147 229.76 186.184 229.92 186.256C230.081 186.327 230.224 186.432 230.341 186.563C231.018 187.371 230.516 189.211 230.014 190.008C229.976 190.068 229.435 190.745 229.233 190.98H229.266C230.091 190.474 230.959 190.041 231.859 189.686C232.664 189.367 233.486 189.095 234.322 188.872C235.092 188.659 235.812 188.506 236.451 188.381L237.412 188.211C237.412 188.211 238.477 187.502 238.548 187.463C239.394 187.043 241.278 186.732 242.009 187.463C242.128 187.592 242.218 187.745 242.274 187.911C242.33 188.077 242.351 188.253 242.334 188.428C242.318 188.602 242.265 188.772 242.179 188.924C242.093 189.077 241.976 189.21 241.835 189.314C241.512 189.514 241.149 189.641 240.771 189.685C240.394 189.729 240.011 189.69 239.651 189.571C238.86 189.242 238.123 188.795 237.467 188.244C237.161 188.299 236.833 188.359 236.473 188.435C235.834 188.577 235.124 188.741 234.355 188.981L233.727 189.183L234.677 189.096C235.621 189.096 237.434 189.702 237.74 190.734C237.786 190.903 237.797 191.081 237.77 191.254C237.743 191.428 237.68 191.594 237.585 191.741C237.49 191.889 237.364 192.014 237.217 192.11C237.069 192.206 236.903 192.269 236.73 192.296C236.351 192.322 235.972 192.266 235.617 192.131C235.263 191.996 234.942 191.786 234.677 191.515C234.129 190.857 233.683 190.121 233.355 189.331C232.891 189.489 232.416 189.658 231.93 189.877C231.047 190.241 230.199 190.685 229.397 191.204L229.26 191.302C229.446 191.253 230.478 191.034 230.549 191.029C231.488 190.941 233.355 191.329 233.77 192.301C233.832 192.463 233.859 192.635 233.85 192.808C233.841 192.981 233.796 193.15 233.718 193.304C233.64 193.458 233.53 193.594 233.397 193.704C233.263 193.813 233.107 193.893 232.94 193.939C232.567 194.008 232.183 193.995 231.815 193.901C231.448 193.807 231.105 193.633 230.811 193.393C230.184 192.779 229.65 192.076 229.228 191.307C228.441 191.844 227.689 192.432 226.978 193.065C226.432 193.535 225.935 194.032 225.422 194.534C225.662 194.469 226.623 194.272 226.694 194.267C227.633 194.179 229.501 194.561 229.916 195.533C229.98 195.697 230.01 195.871 230.002 196.047C229.995 196.222 229.95 196.394 229.872 196.551C229.794 196.708 229.683 196.847 229.548 196.959C229.412 197.07 229.255 197.152 229.086 197.199C228.712 197.268 228.328 197.255 227.961 197.161C227.593 197.066 227.25 196.893 226.956 196.653C226.331 196.045 225.799 195.347 225.378 194.583L224.685 195.266C223.926 196.019 223.172 196.778 222.403 197.499C222.135 197.75 221.857 197.99 221.594 198.231C221.96 198.149 222.626 198.007 222.686 198.001C223.626 197.914 225.493 198.302 225.908 199.273C225.972 199.437 226.002 199.612 225.994 199.787C225.987 199.962 225.943 200.134 225.864 200.291C225.786 200.448 225.676 200.587 225.54 200.699C225.405 200.81 225.247 200.892 225.078 200.939C224.705 201.008 224.321 200.995 223.953 200.901C223.585 200.807 223.242 200.633 222.949 200.393C222.336 199.811 221.818 199.136 221.414 198.394C220.961 198.793 220.502 199.175 220.033 199.525C219.831 199.677 219.629 199.841 219.421 199.972L218.815 200.376C218.395 200.638 218.002 200.884 217.598 201.119L217.008 201.463C217.363 201.321 217.931 201.108 217.985 201.097C218.903 200.868 220.808 200.966 221.365 201.861C221.454 202.012 221.511 202.179 221.531 202.353C221.551 202.526 221.535 202.702 221.484 202.869C221.433 203.036 221.347 203.191 221.233 203.323C221.118 203.455 220.977 203.561 220.819 203.636C220.461 203.76 220.08 203.804 219.702 203.765C219.325 203.727 218.961 203.606 218.635 203.412C217.927 202.908 217.297 202.3 216.768 201.61C216.287 201.889 215.812 202.156 215.359 202.391C214.163 203.035 213.121 203.543 212.307 203.925C209.664 206.137 205.952 206.388 205.952 206.388C205.952 206.388 205.755 201.949 208.37 199.022C209.282 198.042 210.396 197.273 211.635 196.767ZM216.342 201.103C215.984 200.343 215.73 199.539 215.588 198.711L215.152 198.618C214.88 200.022 214.323 201.354 213.514 202.533C213.994 202.304 214.513 202.053 215.059 201.769C215.474 201.567 215.905 201.337 216.342 201.103Z" fill="#2E353A"/>
<path d="M192.192 195.922C192.192 195.922 196.637 196.058 199.356 198.881C202.075 201.704 202.042 206.154 202.042 206.154C202.042 206.154 197.598 206.017 194.879 203.195C192.16 200.372 192.192 195.922 192.192 195.922Z" fill="#2E353A"/>
<path d="M203.811 198.782L199.443 194.856L199.634 194.648L203.811 198.405L203.833 193.261L203.811 193.278L200.12 187.878L200.349 187.72L203.838 192.819L203.887 180.441H204.171L204.133 188.844L206.912 186.436L207.098 186.649L204.133 189.216L204.106 195.222L208.321 191.498L208.506 191.705L204.106 195.598L204.078 201.064L207.245 198.58L207.42 198.803L204.078 201.424L204.062 204.946L203.784 204.94L203.811 198.782Z" fill="white"/>
<path d="M207.83 200.295L208.108 200.268L208.463 203.375L210.336 201.278L210.811 197.516L211.084 197.554L210.663 200.918L215.321 195.709L215.528 195.895L212.367 199.427L214.371 199.455L214.365 199.733L212.121 199.706L209.904 202.185L213.033 202.19V202.468L209.653 202.463L207.639 204.718L209.844 204.849L209.828 205.127L207.398 204.986L206.055 206.482L205.848 206.296L208.212 203.653L207.83 200.295Z" fill="white"/>
<path d="M197.281 201.402L193.568 200.649L193.622 200.376L196.948 201.053L192.099 196.013L192.301 195.822L195.588 199.24L195.763 197.242L196.041 197.269L195.85 199.508L198.154 201.899L198.389 198.782L198.673 198.803L198.416 202.172L200.513 204.351L200.808 202.156L201.086 202.194L200.759 204.607L202.156 206.054L201.954 206.251L199.492 203.696L196.118 203.827L196.107 203.548L199.235 203.428L197.286 201.402H197.281Z" fill="white"/>
<path d="M178.542 76.8113C174.981 76.8165 171.53 75.5787 168.785 73.3115C165.618 70.6797 164.564 67.4256 163.451 63.9749C161.567 58.1436 156.189 54.0759 150.347 54.0759C148.457 54.1033 146.594 54.5166 144.87 55.2903C143.146 56.0639 141.598 57.1817 140.322 58.5749C138.924 60.1365 138.138 62.1403 137.292 64.2588C136.445 66.3773 135.539 68.6705 133.928 70.5815C132.265 72.5421 130.193 74.1155 127.858 75.1916C125.523 76.2677 122.981 76.8205 120.409 76.8113C116.068 76.8164 111.869 75.2669 108.572 72.4433C105.793 70.0573 104.373 66.7704 103.047 63.3306C101.54 59.4267 99.6723 55.4354 96.1888 52.6617C92.9637 50.0707 88.958 48.645 84.8211 48.6159C74.3925 48.6159 65.9076 60.2511 65.9076 71.3404H63.3032C63.3032 58.7223 72.9565 45.8477 84.8211 45.8477C89.5231 45.8874 94.0736 47.5152 97.734 50.4668C101.72 53.6336 103.795 58.0235 105.438 62.2932C106.634 65.389 107.895 68.3319 110.194 70.3085C113.039 72.7311 116.656 74.0559 120.393 74.0431C122.594 74.0552 124.771 73.586 126.771 72.6683C128.772 71.7506 130.547 70.4066 131.974 68.7305C133.29 67.169 134.059 65.2307 134.873 63.1832C135.768 60.9282 136.691 58.5968 138.416 56.6694C139.929 54.9972 141.774 53.6584 143.832 52.7381C145.891 51.8178 148.119 51.3362 150.374 51.324C157.292 51.324 163.685 56.1616 165.918 63.0903C167.01 66.4046 167.835 69.0199 170.396 71.1493C172.692 73.0316 175.573 74.0549 178.542 74.0431C181.246 74.0172 183.87 73.1234 186.028 71.4933C187.84 70.1392 188.927 68.1354 190.079 66.0333C191.105 64.1387 192.17 62.1785 193.814 60.5733C196.319 58.1185 199.67 56.7175 203.178 56.6585C210.822 56.6585 217.062 63.276 217.062 71.4005H214.458C214.458 64.7884 209.396 59.3885 203.178 59.3885C200.325 59.4433 197.601 60.5882 195.566 62.588C194.223 63.882 193.306 65.5746 192.334 67.3601C191.095 69.6478 189.811 72.012 187.529 73.721C184.943 75.6893 181.792 76.7728 178.542 76.8113Z" fill="#92E3A9" stroke="#2E353A" stroke-linecap="round" stroke-linejoin="round"/>
<path d="M65.9076 71.3574L69.3584 79.5911H66.8741L63.3032 71.3574H65.9076Z" fill="#92E3A9" stroke="#2E353A" stroke-linecap="round" stroke-linejoin="round"/>
<path d="M203.183 59.426C200.33 59.4809 197.607 60.6258 195.572 62.6256C194.229 63.9196 193.311 65.6122 192.339 67.3976C191.1 69.6854 189.817 72.0495 187.535 73.7585C184.82 75.8133 181.488 76.8876 178.084 76.8063C174.68 76.725 171.404 75.4928 168.79 73.3108C165.624 70.6791 164.57 67.4249 163.456 63.9742C161.572 58.1429 156.194 54.0752 150.352 54.0752C148.462 54.102 146.597 54.5149 144.872 55.2885C143.147 56.0622 141.599 57.1804 140.322 58.5743C138.924 60.1358 138.138 62.1397 137.292 64.2581C136.445 66.3766 135.539 68.6698 133.928 70.5808C132.265 72.5414 130.193 74.1148 127.858 75.1909C125.523 76.267 122.981 76.8198 120.409 76.8107C116.069 76.8158 111.869 75.2663 108.572 72.4427C105.793 70.0566 104.373 66.7697 103.047 63.3299C101.54 59.426 99.6724 55.4348 96.1889 52.6611C92.9638 50.07 88.958 48.6444 84.8212 48.6152C74.3926 48.6152 65.9077 60.2505 65.9077 71.3398L69.3421 79.5898C69.3421 69.0193 77.4338 57.8044 87.3601 57.8044C91.3037 57.8326 95.1224 59.1908 98.1982 61.6592C101.518 64.3018 103.303 68.1074 104.75 71.8311C106.011 75.1071 107.365 78.2466 110.019 80.5235C113.165 83.2097 117.168 84.6816 121.305 84.6731C123.757 84.6822 126.182 84.1547 128.409 83.1276C130.636 82.1004 132.611 80.5985 134.196 78.7271C135.73 76.9089 136.582 74.7686 137.401 72.7211C138.22 70.6736 138.963 68.7954 140.295 67.3048C141.514 65.9721 142.993 64.9037 144.641 64.1655C146.289 63.4273 148.071 63.0352 149.877 63.0133C155.43 63.0133 160.562 66.8953 162.353 72.4536C163.418 75.7296 164.417 78.8472 167.442 81.3588C170.055 83.5147 173.336 84.6942 176.724 84.6949C179.818 84.6686 182.821 83.6484 185.291 81.7847C187.475 80.1467 188.692 77.9027 189.872 75.7187C190.8 74.0151 191.673 72.399 192.956 71.1705C194.896 69.2593 197.496 68.1666 200.218 68.1184C206.148 68.1184 210.974 73.2453 210.974 79.5516L215.113 71.438H214.42C214.463 64.8041 209.402 59.426 203.183 59.426Z" fill="#2E353A" stroke="#2E353A" stroke-linecap="round" stroke-linejoin="round"/>
<path d="M213.497 79.5315L217.068 71.418H214.463L211.018 79.5315H213.497Z" fill="#92E3A9" stroke="#2E353A" stroke-linecap="round" stroke-linejoin="round"/>
<path d="M206.333 80.0645H73.4751V205.142H206.333V80.0645Z" fill="#92E3A9" stroke="#2E353A" stroke-linecap="round" stroke-linejoin="round"/>
<path opacity="0.3" d="M206.333 80.0645H73.4751V205.142H206.333V80.0645Z" fill="black"/>
<path d="M141.96 80.0645H137.849V205.142H141.96V80.0645Z" fill="#2E353A" stroke="#2E353A" stroke-linecap="round" stroke-linejoin="round"/>
<path d="M86.4262 180.447H83.1938V209.986H86.4262V180.447Z" fill="white" stroke="#2E353A" stroke-linecap="round" stroke-linejoin="round"/>
<path d="M142.042 180.447H138.81V209.986H142.042V180.447Z" fill="white" stroke="#2E353A" stroke-linecap="round" stroke-linejoin="round"/>
<path d="M198.58 180.447H195.348V209.986H198.58V180.447Z" fill="white" stroke="#2E353A" stroke-linecap="round" stroke-linejoin="round"/>
<path d="M199.792 178.832H81.0537V183.053H199.792V178.832Z" fill="white" stroke="#2E353A" stroke-linecap="round" stroke-linejoin="round"/>
<path d="M199.732 178.832H81.1138L88.2336 174.912H192.612L199.732 178.832Z" fill="#2E353A" stroke="#2E353A" stroke-linecap="round" stroke-linejoin="round"/>
<path d="M78.4983 81.9102H73.4751V206.988H78.4983V81.9102Z" fill="#2E353A" stroke="#2E353A" stroke-linecap="round" stroke-linejoin="round"/>
<path d="M73.0003 81.9102H67.9771V211.602H73.0003V81.9102Z" fill="white" stroke="#2E353A" stroke-linecap="round" stroke-linejoin="round"/>
<path d="M212.809 81.9102H207.786V211.602H212.809V81.9102Z" fill="white" stroke="#2E353A" stroke-linecap="round" stroke-linejoin="round"/>
<path d="M231.575 220.951H234.78" stroke="#2E353A" stroke-linecap="round" stroke-linejoin="round"/>
<path d="M220.955 220.951H230.303" stroke="#2E353A" stroke-linecap="round" stroke-linejoin="round"/>
<path d="M55.7031 220.951H218.619" stroke="#2E353A" stroke-linecap="round" stroke-linejoin="round"/>
<path d="M39.312 220.951H52.3014" stroke="#2E353A" stroke-linecap="round" stroke-linejoin="round"/>
<path d="M231.362 227.135H234.78" stroke="#2E353A" stroke-linecap="round" stroke-linejoin="round"/>
<path d="M66.5356 227.135H229.025" stroke="#2E353A" stroke-linecap="round" stroke-linejoin="round"/>
<path d="M39.312 227.135H63.3469" stroke="#2E353A" stroke-linecap="round" stroke-linejoin="round"/>
<path d="M207.311 81.9102H202.288V206.988H207.311V81.9102Z" fill="#2E353A" stroke="#2E353A" stroke-linecap="round" stroke-linejoin="round"/>
<path d="M213.967 79.2246H66.0552V87.8405H213.967V79.2246Z" fill="white" stroke="#2E353A" stroke-linecap="round" stroke-linejoin="round"/>
<path d="M53.8193 214.612L52.083 216.037V99.9844H53.8193V214.612Z" fill="#2E353A" stroke="#2E353A" stroke-linecap="round" stroke-linejoin="round"/>
<path d="M56.9151 106.202H48.9927V69.4727L56.9151 71.6075V106.202Z" fill="#2E353A" stroke="#2E353A" stroke-linecap="round" stroke-linejoin="round"/>
<path d="M56.1449 102.626H49.7622V73.0488L56.1449 74.4903V102.626Z" fill="#92E3A9" stroke="#2E353A" stroke-linecap="round" stroke-linejoin="round"/>
<path d="M156.702 137.781C157.292 138.101 157.794 138.56 158.165 139.119C158.536 139.678 158.765 140.319 158.831 140.986C159.126 143.35 164.177 159.168 164.177 160.353C164.177 161.538 161.769 163.329 159.694 163.329C157.619 163.329 156.243 156.029 156.243 156.029L156.702 137.781Z" fill="white" stroke="#2E353A" stroke-linecap="round" stroke-linejoin="round"/>
<path d="M157.887 143.678L156.478 147.434L158.826 145.556" stroke="#2E353A" stroke-width="0.5" stroke-linecap="round" stroke-linejoin="round"/>
<path d="M129.56 137.756C129.56 137.756 127.049 138.908 126.656 141.081C126.262 143.254 122.304 161.654 122.522 162.544C122.741 163.434 128.343 164.908 129.227 164.515C130.112 164.122 130.494 154.256 130.494 154.256L129.56 137.756Z" fill="white" stroke="#2E353A" stroke-linecap="round" stroke-linejoin="round"/>
<path d="M130.292 147.436L127.944 142.506" stroke="#2E353A" stroke-width="0.5" stroke-linecap="round" stroke-linejoin="round"/>
<path d="M129.942 148.025L127.005 145.088" stroke="#2E353A" stroke-width="0.5" stroke-linecap="round" stroke-linejoin="round"/>
<path d="M138.586 134.382C138.586 134.382 129.948 137.112 129.56 137.756C129.173 138.401 131.553 162.872 131.553 164.439C131.553 166.006 132.17 167.219 134.491 167.912C136.811 168.605 147.393 168.458 149.942 168.223C152.492 167.988 155.271 166.214 155.506 164.592C155.741 162.971 156.746 139.263 156.975 138.128C157.073 137.625 155.086 136.812 153.044 135.993C151.28 135.288 147.005 133.459 145.4 133.459C143.794 133.459 141.6 132.995 138.586 134.382Z" fill="white" stroke="#2E353A" stroke-linecap="round" stroke-linejoin="round"/>
<path d="M144.144 161.07C143.953 161.76 143.834 162.469 143.789 163.183C143.789 164.008 145.667 163.773 145.667 164.947C145.667 166.121 143.554 167.175 143.554 167.175" stroke="#2E353A" stroke-width="0.5" stroke-linecap="round" stroke-linejoin="round"/>
<path d="M137.789 161.484C137.789 161.484 140.246 164.384 148.709 162.937" stroke="#2E353A" stroke-width="0.5" stroke-linecap="round" stroke-linejoin="round"/>
<path d="M140.131 132.607C140.131 132.607 138.122 133.153 137.734 133.918C137.346 134.682 137.969 135.774 138.045 136.648C138.122 137.521 136.953 140.819 136.953 140.819C136.953 140.819 139.268 140.743 139.683 141.048C140.098 141.354 144.007 144.062 144.007 144.062C144.007 144.062 145.323 140.819 146.868 140.355C148.414 139.891 149.806 139.427 149.806 139.427C149.806 139.427 147.95 136.8 147.333 134.715C146.716 132.629 142.757 131.138 140.131 132.607Z" fill="#2E353A" stroke="#2E353A" stroke-linecap="round" stroke-linejoin="round"/>
<path d="M139.279 131.139C139.279 131.139 140.671 137.243 140.748 140.967C140.824 144.69 138.509 152.864 139.59 155.163C140.671 157.461 143.609 159.798 143.838 159.798C144.067 159.798 146.235 155.78 146.388 152.919C146.541 150.058 144.302 142.643 144.995 139.4C145.467 136.848 145.751 134.266 145.847 131.674L139.279 131.139Z" fill="white" stroke="#2E353A" stroke-linecap="round" stroke-linejoin="round"/>
<g style="mix-blend-mode:multiply" opacity="0.54">
<path d="M139.279 131.139C139.279 131.139 139.568 132.411 139.89 134.147C141.059 134.822 142.396 135.15 143.745 135.092C144.412 135.055 145.064 134.883 145.662 134.584C145.804 132.946 145.847 131.679 145.847 131.679L139.279 131.139Z" fill="#92E3A9"/>
</g>
<path d="M143.838 159.803C144.073 159.803 146.235 155.785 146.388 152.924C146.541 150.063 144.302 142.648 144.996 139.405C145.065 139.073 145.13 138.73 145.192 138.373C144.68 138.492 144.157 138.557 143.631 138.569C142.556 138.609 141.486 138.403 140.502 137.969C140.635 138.958 140.717 139.953 140.748 140.95C140.824 144.657 138.509 152.847 139.59 155.146C140.671 157.445 143.598 159.803 143.838 159.803Z" fill="white" stroke="#2E353A" stroke-linecap="round" stroke-linejoin="round"/>
<path d="M158.078 161.293C158.078 161.293 172.383 171.563 172.498 172.715C172.612 173.867 166.038 181.14 163.614 180.905C161.19 180.671 152.88 166.371 152.88 166.371L158.078 161.293Z" fill="#92E3A9" stroke="#2E353A" stroke-linecap="round" stroke-linejoin="round"/>
<path d="M133.557 136.199L156.162 165.503L157.838 161.654L136.718 135.025L133.557 136.199Z" fill="#92E3A9" stroke="#2E353A" stroke-linecap="round" stroke-linejoin="round"/>
<path d="M127.944 201.217L128.146 205.585C128.146 205.585 124.985 207.769 123.603 208.642C122.222 209.516 119.858 210.908 120.644 211.503C121.43 212.099 132.11 211.503 132.11 211.503C132.11 211.503 132.405 211.307 132.405 210.024C132.405 208.741 132.208 203.019 132.208 203.019L127.944 201.217Z" fill="white" stroke="#2E353A" stroke-linecap="round" stroke-linejoin="round"/>
<path d="M132.383 209.998C132.383 209.637 132.383 208.906 132.345 208.081L129.129 208.321C129.129 208.321 129.129 207.923 129.031 206.738C128.932 205.553 128.146 205.559 128.146 205.559C128.146 205.559 124.985 207.743 123.603 208.616C122.222 209.49 119.858 210.882 120.644 211.477C121.43 212.072 132.11 211.477 132.11 211.477C132.11 211.477 132.383 211.302 132.383 209.998Z" fill="#2E353A" stroke="#2E353A" stroke-linecap="round" stroke-linejoin="round"/>
<path d="M120.595 210.881C120.453 211.116 120.442 211.323 120.644 211.476C121.436 212.066 132.11 211.476 132.11 211.476C132.11 211.476 132.252 211.372 132.34 210.881H120.595Z" fill="white" stroke="#2E353A" stroke-linecap="round" stroke-linejoin="round"/>
<path d="M156.063 201.217L155.866 205.585C155.866 205.585 159.022 207.769 160.404 208.642C161.785 209.516 164.149 210.908 163.363 211.503C162.577 212.099 151.897 211.503 151.897 211.503C151.897 211.503 151.602 211.307 151.602 210.024C151.602 208.741 151.799 203.019 151.799 203.019L156.063 201.217Z" fill="white" stroke="#2E353A" stroke-linecap="round" stroke-linejoin="round"/>
<path d="M151.624 209.998C151.624 209.637 151.624 208.906 151.662 208.081L154.878 208.321C154.878 208.321 154.878 207.923 154.976 206.738C155.075 205.553 155.866 205.559 155.866 205.559C155.866 205.559 159.022 207.743 160.404 208.616C161.785 209.49 164.149 210.882 163.363 211.477C162.577 212.072 151.897 211.477 151.897 211.477C151.897 211.477 151.624 211.302 151.624 209.998Z" fill="#2E353A" stroke="#2E353A" stroke-linecap="round" stroke-linejoin="round"/>
<path d="M163.412 210.881C163.56 211.116 163.565 211.323 163.363 211.476C162.572 212.066 151.897 211.476 151.897 211.476C151.897 211.476 151.755 211.372 151.668 210.881H163.412Z" fill="white" stroke="#2E353A" stroke-linecap="round" stroke-linejoin="round"/>
<path d="M132.285 166.492C132.285 166.492 125.678 168.562 123.308 170.238C120.939 171.914 122.216 175.468 124.69 177.734C127.163 180 130.805 181.485 133.469 180.301C136.134 179.116 139.093 176.451 143.041 176.451C146.988 176.451 150.439 179.514 153.961 180.792C157.482 182.07 162.151 177.931 163.041 174.48C163.931 171.029 161.708 167.175 156.232 167.573C144.651 168.42 142.216 169.26 132.285 166.492Z" fill="#2E353A" stroke="#2E353A" stroke-linecap="round" stroke-linejoin="round"/>
<path d="M125.383 170.433C125.383 170.433 122.026 169.45 121.043 172.617C120.06 175.784 122.719 193.726 123.227 197.187C123.735 200.649 123.62 201.233 123.62 201.233C123.62 201.233 127.862 201.921 129.244 202.713C130.625 203.504 132.798 203.499 132.798 203.499C132.798 203.499 130.822 190.673 131.22 187.714C131.619 184.755 133.191 182.685 132.798 179.628C132.405 176.57 129.741 172.53 129.741 172.53" fill="#2E353A"/>
<path d="M125.383 170.433C125.383 170.433 122.026 169.45 121.043 172.617C120.06 175.784 122.719 193.726 123.227 197.187C123.735 200.649 123.62 201.233 123.62 201.233C123.62 201.233 127.862 201.921 129.244 202.713C130.625 203.504 132.798 203.499 132.798 203.499C132.798 203.499 130.822 190.673 131.22 187.714C131.619 184.755 133.191 182.685 132.798 179.628C132.405 176.57 129.741 172.53 129.741 172.53" stroke="#2E353A" stroke-linecap="round" stroke-linejoin="round"/>
<path d="M158.771 170.433C158.771 170.433 162.124 169.45 163.112 172.617C164.1 175.784 161.43 193.726 160.928 197.187C160.426 200.649 160.535 201.233 160.535 201.233C160.535 201.233 156.292 201.921 154.911 202.713C153.53 203.504 151.357 203.499 151.357 203.499C151.357 203.499 153.333 190.673 152.94 187.714C152.547 184.755 150.964 182.685 151.357 179.628C151.75 176.57 154.42 172.53 154.42 172.53" fill="#2E353A"/>
<path d="M158.771 170.433C158.771 170.433 162.124 169.45 163.112 172.617C164.1 175.784 161.43 193.726 160.928 197.187C160.426 200.649 160.535 201.233 160.535 201.233C160.535 201.233 156.292 201.921 154.911 202.713C153.53 203.504 151.357 203.499 151.357 203.499C151.357 203.499 153.333 190.673 152.94 187.714C152.547 184.755 150.964 182.685 151.357 179.628C151.75 176.57 154.42 172.53 154.42 172.53" stroke="#2E353A" stroke-linecap="round" stroke-linejoin="round"/>
<path d="M154.179 173.186C153.069 175.031 152.154 176.987 151.449 179.022C151.329 177.156 151.824 175.301 152.858 173.742" stroke="white" stroke-width="0.5" stroke-linecap="round" stroke-linejoin="round"/>
<path d="M156.363 170.805C155.936 171.074 155.553 171.408 155.228 171.793" stroke="white" stroke-width="0.5" stroke-linecap="round" stroke-linejoin="round"/>
<path d="M129.353 172.684C129.353 172.684 132.629 176.91 132.76 179.962" stroke="white" stroke-width="0.5" stroke-linecap="round" stroke-linejoin="round"/>
<path d="M131.466 173.508C132.056 174.916 132.055 176.09 132.76 178.788" stroke="white" stroke-width="0.5" stroke-linecap="round" stroke-linejoin="round"/>
<path d="M126.759 198.6L122.189 184.191" stroke="white" stroke-width="0.5" stroke-linecap="round" stroke-linejoin="round"/>
<path d="M127.474 200.868L127.016 199.416" stroke="white" stroke-width="0.5" stroke-linecap="round" stroke-linejoin="round"/>
<path d="M158.242 198.007L161.174 189.473" stroke="white" stroke-width="0.5" stroke-linecap="round" stroke-linejoin="round"/>
<path d="M157.302 200.748L157.843 199.17" stroke="white" stroke-width="0.5" stroke-linecap="round" stroke-linejoin="round"/>
<path d="M133.797 119.028L135.261 125.361C135.261 125.361 133.562 124.269 133.562 125.825C133.562 127.382 134.261 128.217 135.201 128.555C135.776 128.741 136.391 128.767 136.98 128.632C137.429 129.57 138.058 130.411 138.831 131.105C140.209 132.339 142.006 133.001 143.855 132.956C145.629 132.956 147.95 131.182 148.567 129.096C149.184 127.01 147.174 123.09 146.869 120.442C146.563 117.794 149.107 117.892 147.961 115.73C146.814 113.568 140.622 113.18 136.833 114.092C133.044 115.004 133.797 119.028 133.797 119.028Z" fill="white" stroke="#2E353A" stroke-linecap="round" stroke-linejoin="round"/>
<path d="M146.076 121.402C145.884 121.436 145.701 121.512 145.541 121.625C145.382 121.737 145.249 121.884 145.153 122.055C145.057 122.225 145 122.414 144.986 122.609C144.972 122.804 145.001 123 145.072 123.182C145.221 124.004 145.661 124.744 146.311 125.268C146.311 125.268 146.699 126.426 144.919 126.273" stroke="#2E353A" stroke-linecap="round" stroke-linejoin="round"/>
<path d="M142.817 121.959C142.317 121.793 141.776 121.79 141.273 121.948C140.771 122.107 140.331 122.421 140.016 122.844" stroke="#2E353A" stroke-linecap="round" stroke-linejoin="round"/>
<path d="M142.828 124.187C142.899 124.52 142.828 124.82 142.62 124.864C142.413 124.908 142.222 124.673 142.145 124.318C142.069 123.963 142.145 123.679 142.347 123.636C142.549 123.592 142.751 123.854 142.828 124.187Z" fill="#2E353A"/>
<path d="M146.377 123.395C146.453 123.728 146.377 124.034 146.175 124.077C145.973 124.121 145.776 123.881 145.7 123.531C145.624 123.182 145.7 122.898 145.902 122.854C146.104 122.811 146.328 123.078 146.377 123.395Z" fill="#2E353A"/>
<path d="M145.924 128.283L144.766 128.436" stroke="#2E353A" stroke-linecap="round" stroke-linejoin="round"/>
<path d="M136.527 166.982L137.909 168.56L135.741 170.237L134.458 169.15L136.527 166.982Z" fill="#2E353A" stroke="#2E353A" stroke-linecap="round" stroke-linejoin="round"/>
<path d="M127.453 159.088C127.453 159.088 128.042 158.793 129.424 159.683C130.805 160.573 137.319 165.984 136.827 167.18C136.57 167.773 136.159 168.287 135.639 168.67C135.118 169.054 134.505 169.293 133.863 169.364C132.487 169.56 126.268 165.711 124.581 164.624C122.893 163.538 122.397 163.046 122.511 162.555C122.626 162.064 122.413 160.682 123.603 160.087" fill="white"/>
<path d="M127.453 159.088C127.453 159.088 128.042 158.793 129.424 159.683C130.805 160.573 137.319 165.984 136.827 167.18C136.57 167.773 136.159 168.287 135.639 168.67C135.118 169.054 134.505 169.293 133.863 169.364C132.487 169.56 126.268 165.711 124.581 164.624C122.893 163.538 122.397 163.046 122.511 162.555C122.626 162.064 122.413 160.682 123.603 160.087" stroke="#2E353A" stroke-linecap="round" stroke-linejoin="round"/>
<path d="M149.156 166.191L147.283 167.671L149.254 169.844L150.93 168.364L149.156 166.191Z" fill="#2E353A" stroke="#2E353A" stroke-linecap="round" stroke-linejoin="round"/>
<path d="M159.317 158.301C159.317 158.301 157.051 158.89 155.965 159.879C154.585 161.016 153.148 162.08 151.657 163.067C150.767 163.712 149.599 164.241 148.927 165.164C148.042 166.425 148.982 167.13 149.893 168.036C152.105 170.22 154.78 168.32 156.866 167.08C158.952 165.841 161.278 164.667 163.047 163.035C164.33 161.85 164.625 159.879 163.145 158.667" fill="white"/>
<path d="M159.317 158.301C159.317 158.301 157.051 158.89 155.965 159.879C154.585 161.016 153.148 162.08 151.657 163.067C150.767 163.712 149.599 164.241 148.927 165.164C148.042 166.425 148.982 167.13 149.893 168.036C152.105 170.22 154.78 168.32 156.866 167.08C158.952 165.841 161.278 164.667 163.047 163.035C164.33 161.85 164.625 159.879 163.145 158.667" stroke="#2E353A" stroke-linecap="round" stroke-linejoin="round"/>
<path d="M137.908 168.561C138.796 168.893 139.628 169.359 140.376 169.942C141.064 170.63 142.249 174.283 142.249 175.074C142.249 175.866 142.347 176.652 141.758 176.652C141.168 176.652 140.769 176.155 140.475 176.155C140.18 176.155 139.093 175.467 138.105 174.872C137.117 174.277 136.429 172.41 136.134 171.52C135.839 170.63 135.741 170.237 135.741 170.237L137.908 168.561Z" fill="white" stroke="#2E353A" stroke-linecap="round" stroke-linejoin="round"/>
<path d="M139.82 175.811L138.247 173.605" stroke="#2E353A" stroke-width="0.5" stroke-linecap="round" stroke-linejoin="round"/>
<path d="M140.895 176.313L139.383 173.162" stroke="#2E353A" stroke-width="0.5" stroke-linecap="round" stroke-linejoin="round"/>
<path d="M141.965 176.379L140.579 172.721" stroke="#2E353A" stroke-width="0.5" stroke-linecap="round" stroke-linejoin="round"/>
<path d="M147.283 167.672C146.426 168.286 145.602 168.946 144.815 169.648C144.127 170.336 142.943 174.016 142.943 174.775C142.943 175.534 142.844 176.353 143.434 176.353C144.024 176.353 144.422 175.862 144.717 175.862C145.012 175.862 146.099 175.174 147.087 174.579C148.075 173.984 148.763 172.111 149.058 171.226C149.231 170.788 149.299 170.314 149.254 169.845L147.283 167.672Z" fill="white" stroke="#2E353A" stroke-linecap="round" stroke-linejoin="round"/>
<path d="M143.434 176.352L144.865 172.787" stroke="#2E353A" stroke-width="0.5" stroke-linecap="round" stroke-linejoin="round"/>
<path d="M144.488 175.938L146.251 172.662" stroke="#2E353A" stroke-width="0.5" stroke-linecap="round" stroke-linejoin="round"/>
<path d="M146.061 175.178L147.256 172.912" stroke="#2E353A" stroke-width="0.5" stroke-linecap="round" stroke-linejoin="round"/>
<path d="M147.933 115.686C146.775 113.502 140.595 113.136 136.805 114.048C133.016 114.96 133.797 118.995 133.797 118.995L135.189 125.001L135.571 125.476C135.571 125.476 136.117 125.94 136.347 125.399C136.576 124.859 135.571 123.466 135.959 122.926C136.347 122.385 137.892 122.926 137.428 121.075C136.964 119.224 136.964 118.061 139.126 117.286C141.288 116.51 143.914 116.194 145.072 117.056C146.229 117.919 146.852 120.376 146.852 120.376C146.541 117.772 149.09 117.848 147.933 115.686Z" fill="#2E353A" stroke="#2E353A" stroke-linecap="round" stroke-linejoin="round"/>
<path d="M134.354 118.584C135.03 118.692 135.72 118.692 136.396 118.584C137.488 118.404 137.734 116.166 141.414 115.636C145.094 115.106 145.072 117.077 145.072 117.077C145.072 117.077 147.081 115.041 146.251 114.397C145.421 113.752 139.536 113.9 137.046 115.985" stroke="white" stroke-width="0.5" stroke-linecap="round" stroke-linejoin="round"/>
<path d="M169.959 174.254C169.742 174.515 169.509 174.761 169.26 174.991" stroke="#2E353A" stroke-width="0.5" stroke-linecap="round" stroke-linejoin="round"/>
<path d="M164.253 167.289C164.253 167.289 170.838 171.755 170.728 172.749C170.708 172.917 170.662 173.081 170.592 173.235" stroke="#2E353A" stroke-width="0.5" stroke-linecap="round" stroke-linejoin="round"/>
</svg>
