<svg width="230" height="230" viewBox="0 0 230 230" fill="none" xmlns="http://www.w3.org/2000/svg">
<path opacity="0.7" d="M31.248 76.8608C31.248 76.8608 18.4232 109.981 36.446 143.331C54.4688 176.681 91.5909 194.299 121.302 209.364C151.014 224.429 181.866 217.092 196.526 192.417C211.186 167.743 191.08 150.13 191.052 114.944C191.024 79.7588 196.319 70.4438 177.252 40.7186C158.185 10.9934 111.444 4.41078 76.098 26.4586C40.7516 48.5064 31.248 76.8608 31.248 76.8608Z" fill="white"/>
<path d="M108.155 16.4312C165.195 11.3712 165.31 43.5391 191.019 73.531C216.728 103.523 222.225 117.116 212.519 151.69C202.813 186.263 170.199 213.362 129.784 198.007C89.3683 182.652 66.2395 197.395 40.7601 183.747C15.2807 170.099 5.80005 143.768 24.4669 112.718C43.1337 81.6684 37.8023 22.6964 108.155 16.4312Z" fill="#92E3A9"/>
<path opacity="0.7" d="M108.155 16.4312C165.195 11.3712 165.31 43.5391 191.019 73.531C216.728 103.523 222.225 117.116 212.519 151.69C202.813 186.263 170.199 213.362 129.784 198.007C89.3683 182.652 66.2395 197.395 40.7601 183.747C15.2807 170.099 5.80005 143.768 24.4669 112.718C43.1337 81.6684 37.8023 22.6964 108.155 16.4312Z" fill="white"/>
<path d="M146.138 30.1964L56.4805 40.1738L70.3505 164.81L160.008 154.832L146.138 30.1964Z" fill="white" stroke="#263238" stroke-linecap="round" stroke-linejoin="round"/>
<path d="M146.138 30.1964L56.4805 40.1738L58.3995 57.4186L148.057 47.4411L146.138 30.1964Z" fill="#BFBFBF" stroke="#263238" stroke-linecap="round" stroke-linejoin="round"/>
<path d="M121.229 38.1422L82.5245 42.4478C82.3446 42.4567 82.1685 42.5023 82.0068 42.5816C81.8452 42.6609 81.7014 42.7724 81.5842 42.9092C81.4671 43.0459 81.3791 43.2051 81.3255 43.3771C81.272 43.549 81.2541 43.7301 81.2729 43.9091C81.2916 44.0882 81.3467 44.2616 81.4348 44.4187C81.5228 44.5758 81.642 44.7133 81.785 44.8228C81.9279 44.9322 82.0917 45.0114 82.2663 45.0555C82.4409 45.0995 82.6227 45.1075 82.8005 45.079L121.505 40.7734C121.844 40.7222 122.149 40.5418 122.358 40.2701C122.566 39.9984 122.661 39.6565 122.623 39.3162C122.585 38.9758 122.417 38.6634 122.153 38.4445C121.89 38.2256 121.552 38.1173 121.21 38.1422H121.229Z" fill="white"/>
<path d="M112.151 44.6189L92.8036 46.7717C92.7172 46.7803 92.6334 46.806 92.557 46.8474C92.4807 46.8887 92.4133 46.9449 92.3589 47.0125C92.3045 47.0802 92.2642 47.158 92.2402 47.2415C92.2163 47.3249 92.2092 47.4123 92.2194 47.4985C92.2379 47.6729 92.3248 47.8328 92.4611 47.9431C92.5973 48.0535 92.7718 48.1054 92.9462 48.0873L112.298 45.9345C112.468 45.9089 112.621 45.8187 112.725 45.6829C112.829 45.5471 112.877 45.3761 112.858 45.2059C112.839 45.0357 112.754 44.8796 112.623 44.7701C112.491 44.6607 112.322 44.6065 112.151 44.6189Z" fill="white"/>
<path opacity="0.3" d="M126.614 59.5324L75.8987 65.172C75.7688 65.1866 75.65 65.2523 75.5685 65.3545C75.487 65.4567 75.4494 65.5872 75.464 65.7171C75.4787 65.847 75.5443 65.9658 75.6466 66.0473C75.7488 66.1289 75.8792 66.1664 76.0091 66.1518L126.71 60.5122C126.84 60.4976 126.959 60.4319 127.041 60.3297C127.122 60.2275 127.16 60.097 127.145 59.9671C127.13 59.8372 127.065 59.7184 126.963 59.6369C126.86 59.5553 126.73 59.5178 126.6 59.5324H126.614Z" fill="black"/>
<path opacity="0.3" d="M127.005 63.0509L68.6956 69.5368C68.5657 69.5515 68.4469 69.6171 68.3654 69.7194C68.2838 69.8216 68.2463 69.952 68.2609 70.0819C68.2756 70.2119 68.3412 70.3307 68.4434 70.4122C68.5457 70.4937 68.6761 70.5313 68.806 70.5166L127.116 64.0306C127.182 64.0267 127.247 64.0093 127.306 63.9795C127.366 63.9498 127.419 63.9083 127.462 63.8576C127.505 63.8068 127.537 63.7479 127.556 63.6844C127.576 63.6208 127.583 63.554 127.576 63.4879C127.568 63.4211 127.548 63.3565 127.515 63.298C127.482 63.2394 127.437 63.1882 127.384 63.1474C127.331 63.1065 127.27 63.0769 127.204 63.0603C127.139 63.0437 127.072 63.0405 127.005 63.0509Z" fill="black"/>
<path opacity="0.3" d="M112.179 68.265L69.0862 73.0582C68.9563 73.0729 68.8375 73.1385 68.756 73.2407C68.6745 73.343 68.6369 73.4734 68.6515 73.6033C68.6662 73.7332 68.7318 73.852 68.8341 73.9336C68.9363 74.0151 69.0667 74.0527 69.1966 74.038L112.285 69.2448C112.351 69.2408 112.416 69.2234 112.476 69.1937C112.535 69.1639 112.588 69.1224 112.631 69.0717C112.674 69.021 112.706 68.9621 112.726 68.8985C112.745 68.835 112.752 68.7681 112.745 68.702C112.738 68.6357 112.717 68.5715 112.684 68.5134C112.652 68.4552 112.608 68.4042 112.555 68.3634C112.502 68.3226 112.441 68.2929 112.377 68.276C112.312 68.2591 112.245 68.2553 112.179 68.265Z" fill="black"/>
<path opacity="0.3" d="M139.474 57.6652L134.331 58.2376C133.639 58.3145 133.141 58.9378 133.218 59.6296L133.79 64.7729C133.867 65.4647 134.49 65.9631 135.182 65.8861L140.325 65.3138C141.017 65.2368 141.515 64.6135 141.438 63.9217L140.866 58.7784C140.789 58.0866 140.166 57.5882 139.474 57.6652Z" stroke="#263238" stroke-linecap="round" stroke-linejoin="round"/>
<path d="M135.242 61.6171L136.935 63.2133L139.161 59.8047" stroke="#92E3A9" stroke-width="3" stroke-linecap="round" stroke-linejoin="round"/>
<path opacity="0.3" d="M128.467 76.2043L77.7659 81.8439C77.636 81.8585 77.5172 81.9242 77.4357 82.0264C77.3542 82.1286 77.3166 82.259 77.3312 82.389C77.3459 82.5189 77.4115 82.6377 77.5137 82.7192C77.616 82.8007 77.7464 82.8383 77.8763 82.8237L128.578 77.1841C128.642 77.1768 128.704 77.157 128.761 77.1257C128.817 77.0943 128.867 77.0522 128.908 77.0015C128.948 76.9509 128.978 76.8929 128.996 76.8307C129.014 76.7684 129.019 76.7033 129.012 76.639C129.005 76.5746 128.985 76.5124 128.954 76.4557C128.922 76.399 128.88 76.3491 128.83 76.3087C128.779 76.2684 128.721 76.2384 128.659 76.2204C128.597 76.2025 128.531 76.197 128.467 76.2043Z" fill="black"/>
<path opacity="0.3" d="M128.857 79.7219L70.5472 86.2079C70.4828 86.2151 70.4206 86.2349 70.3639 86.2663C70.3072 86.2976 70.2573 86.3398 70.2169 86.3904C70.1766 86.441 70.1466 86.4991 70.1286 86.5613C70.1107 86.6235 70.1052 86.6886 70.1125 86.753C70.1197 86.8173 70.1396 86.8796 70.1709 86.9362C70.2022 86.9929 70.2444 87.0428 70.295 87.0832C70.3456 87.1236 70.4037 87.1536 70.4659 87.1715C70.5281 87.1894 70.5932 87.1949 70.6576 87.1876L128.967 80.7017C129.097 80.687 129.216 80.6214 129.297 80.5191C129.379 80.4169 129.417 80.2865 129.402 80.1566C129.387 80.0266 129.322 79.9078 129.219 79.8263C129.117 79.7448 128.987 79.7072 128.857 79.7219Z" fill="black"/>
<path opacity="0.3" d="M114.035 84.9349L70.9417 89.7281C70.8118 89.7428 70.693 89.8084 70.6115 89.9107C70.5299 90.0129 70.4924 90.1433 70.507 90.2732C70.5216 90.4032 70.5873 90.522 70.6895 90.6035C70.7918 90.685 70.9222 90.7226 71.0521 90.7079L114.14 85.9147C114.207 85.9108 114.272 85.8934 114.331 85.8636C114.39 85.8339 114.443 85.7924 114.486 85.7416C114.529 85.6909 114.562 85.632 114.581 85.5685C114.601 85.5049 114.607 85.4381 114.6 85.3719C114.593 85.3056 114.572 85.2415 114.54 85.1833C114.507 85.1251 114.463 85.0741 114.41 85.0333C114.357 84.9925 114.297 84.9628 114.232 84.9459C114.168 84.929 114.101 84.9253 114.035 84.9349Z" fill="black"/>
<path opacity="0.3" d="M141.33 74.3312L136.186 74.9036C135.494 74.9806 134.996 75.6038 135.073 76.2956L135.645 81.4389C135.722 82.1307 136.346 82.6291 137.037 82.5521L142.181 81.9798C142.873 81.9028 143.371 81.2795 143.294 80.5877L142.722 75.4445C142.645 74.7526 142.021 74.2542 141.33 74.3312Z" stroke="#263238" stroke-linecap="round" stroke-linejoin="round"/>
<path d="M137.102 78.287L138.79 79.8832L141.016 76.4746" stroke="#92E3A9" stroke-width="3" stroke-linecap="round" stroke-linejoin="round"/>
<path opacity="0.3" d="M130.323 92.8743L79.6217 98.5139C79.5 98.5374 79.3916 98.6059 79.3183 98.7057C79.2449 98.8056 79.2118 98.9295 79.2258 99.0526C79.2397 99.1757 79.2996 99.2891 79.3935 99.37C79.4873 99.4509 79.6082 99.4935 79.7321 99.4891L130.433 93.8403C130.498 93.8331 130.56 93.8132 130.617 93.7819C130.673 93.7506 130.723 93.7084 130.764 93.6578C130.804 93.6072 130.834 93.5491 130.852 93.4869C130.87 93.4247 130.875 93.3596 130.868 93.2952C130.861 93.2309 130.841 93.1686 130.81 93.112C130.778 93.0553 130.736 93.0053 130.685 92.965C130.635 92.9246 130.577 92.8946 130.515 92.8767C130.452 92.8588 130.387 92.8533 130.323 92.8605V92.8743Z" fill="black"/>
<path opacity="0.3" d="M130.715 96.3927L72.4012 102.879C72.3368 102.885 72.2743 102.904 72.2174 102.935C72.1605 102.966 72.1104 103.008 72.0701 103.059C72.0297 103.109 72 103.167 71.9826 103.23C71.9652 103.292 71.9605 103.357 71.9688 103.422C71.9757 103.486 71.9952 103.548 72.0262 103.605C72.0573 103.662 72.0992 103.712 72.1496 103.753C72.2 103.793 72.2579 103.823 72.3201 103.842C72.3822 103.86 72.4473 103.866 72.5116 103.859L130.821 97.3725C130.888 97.3679 130.953 97.35 131.012 97.3197C131.072 97.2895 131.125 97.2476 131.167 97.1965C131.21 97.1454 131.243 97.0862 131.262 97.0224C131.282 96.9586 131.288 96.8915 131.281 96.8251C131.274 96.7589 131.253 96.6949 131.221 96.637C131.188 96.579 131.144 96.5283 131.091 96.4878C131.038 96.4474 130.977 96.4182 130.913 96.4018C130.848 96.3854 130.781 96.3824 130.715 96.3927Z" fill="black"/>
<path opacity="0.3" d="M115.886 101.605L72.7933 106.398C72.6633 106.413 72.5445 106.479 72.463 106.581C72.3815 106.683 72.3439 106.813 72.3586 106.943C72.3732 107.073 72.4389 107.192 72.5411 107.274C72.6433 107.355 72.7737 107.393 72.9037 107.378L115.992 102.58C116.122 102.566 116.241 102.501 116.323 102.399C116.405 102.298 116.443 102.167 116.429 102.038C116.415 101.908 116.35 101.789 116.248 101.707C116.146 101.625 116.016 101.586 115.886 101.601V101.605Z" fill="black"/>
<path opacity="0.3" d="M143.181 90.9972L138.038 91.5696C137.346 91.6466 136.848 92.2698 136.925 92.9616L137.497 98.1049C137.574 98.7967 138.197 99.2952 138.889 99.2182L144.032 98.6458C144.724 98.5688 145.223 97.9456 145.146 97.2537L144.573 92.1105C144.496 91.4187 143.873 90.9202 143.181 90.9972Z" stroke="#263238" stroke-linecap="round" stroke-linejoin="round"/>
<path d="M138.957 94.9576L140.645 96.5538L142.876 93.1406" stroke="#92E3A9" stroke-width="3" stroke-linecap="round" stroke-linejoin="round"/>
<path opacity="0.3" d="M132.174 109.544L81.4733 115.184C81.3516 115.207 81.2432 115.276 81.1698 115.375C81.0964 115.475 81.0634 115.599 81.0773 115.722C81.0913 115.845 81.1512 115.959 81.245 116.04C81.3389 116.121 81.4598 116.163 81.5837 116.159L132.285 110.519C132.353 110.517 132.419 110.501 132.48 110.471C132.542 110.442 132.596 110.4 132.64 110.349C132.685 110.297 132.718 110.237 132.738 110.173C132.758 110.108 132.764 110.039 132.757 109.972C132.749 109.905 132.728 109.839 132.694 109.781C132.66 109.722 132.614 109.671 132.559 109.631C132.504 109.591 132.442 109.562 132.376 109.547C132.31 109.532 132.241 109.531 132.174 109.544Z" fill="black"/>
<path opacity="0.3" d="M132.571 113.064L74.2567 119.55C74.1923 119.556 74.1298 119.575 74.0729 119.606C74.016 119.637 73.9659 119.679 73.9255 119.729C73.8852 119.78 73.8554 119.838 73.8381 119.901C73.8207 119.963 73.816 120.028 73.8243 120.092C73.8312 120.157 73.8507 120.219 73.8817 120.276C73.9127 120.333 73.9546 120.383 74.0051 120.423C74.0555 120.464 74.1134 120.494 74.1755 120.512C74.2377 120.531 74.3028 120.536 74.3671 120.529L132.677 114.043C132.807 114.028 132.926 113.962 133.008 113.86C133.09 113.757 133.128 113.626 133.114 113.496C133.099 113.367 133.033 113.249 132.931 113.168C132.83 113.087 132.7 113.049 132.571 113.064Z" fill="black"/>
<path opacity="0.3" d="M117.76 118.275L74.6669 123.068C74.6024 123.074 74.5399 123.093 74.483 123.124C74.4261 123.155 74.376 123.197 74.3357 123.248C74.2953 123.299 74.2656 123.357 74.2482 123.419C74.2308 123.481 74.2262 123.547 74.2345 123.611C74.2413 123.675 74.2609 123.738 74.2919 123.794C74.3229 123.851 74.3648 123.901 74.4152 123.942C74.4656 123.983 74.5236 124.013 74.5857 124.031C74.6478 124.049 74.7129 124.055 74.7773 124.048L117.865 119.255C117.93 119.248 117.992 119.228 118.049 119.197C118.106 119.166 118.156 119.124 118.197 119.074C118.237 119.024 118.267 118.966 118.286 118.903C118.304 118.841 118.309 118.776 118.302 118.712C118.296 118.647 118.277 118.585 118.246 118.527C118.215 118.47 118.173 118.42 118.123 118.379C118.072 118.339 118.014 118.308 117.952 118.29C117.889 118.273 117.824 118.267 117.76 118.275Z" fill="black"/>
<path opacity="0.3" d="M145.037 107.669L139.893 108.241C139.201 108.318 138.703 108.942 138.78 109.634L139.352 114.777C139.429 115.469 140.053 115.967 140.744 115.89L145.888 115.318C146.58 115.241 147.078 114.617 147.001 113.926L146.429 108.782C146.352 108.091 145.728 107.592 145.037 107.669Z" stroke="#263238" stroke-linecap="round" stroke-linejoin="round"/>
<path d="M140.809 111.623L142.497 113.219L144.728 109.811" stroke="#92E3A9" stroke-width="3" stroke-linecap="round" stroke-linejoin="round"/>
<path opacity="0.3" d="M134.032 126.209L83.3305 131.849C83.2661 131.856 83.2038 131.876 83.147 131.907C83.0902 131.938 83.0401 131.98 82.9996 132.03C82.959 132.08 82.9287 132.138 82.9105 132.2C82.8923 132.262 82.8865 132.328 82.8935 132.392C82.9004 132.456 82.92 132.519 82.951 132.575C82.982 132.632 83.024 132.682 83.0744 132.723C83.1248 132.763 83.1827 132.794 83.2448 132.812C83.3069 132.83 83.3719 132.836 83.4363 132.829L134.137 127.189C134.202 127.182 134.264 127.163 134.321 127.132C134.378 127.101 134.428 127.059 134.469 127.009C134.509 126.958 134.539 126.9 134.558 126.838C134.576 126.776 134.582 126.711 134.574 126.646C134.559 126.517 134.494 126.399 134.393 126.317C134.291 126.235 134.161 126.197 134.032 126.209Z" fill="black"/>
<path opacity="0.3" d="M134.426 129.72L76.1117 136.206C76.0439 136.208 75.9773 136.225 75.9161 136.254C75.8549 136.283 75.8005 136.325 75.7561 136.377C75.7118 136.428 75.6786 136.488 75.6586 136.553C75.6386 136.618 75.6322 136.686 75.6398 136.753C75.6475 136.821 75.669 136.886 75.703 136.945C75.737 137.003 75.7828 137.054 75.8374 137.095C75.8921 137.135 75.9545 137.163 76.0207 137.178C76.0869 137.193 76.1555 137.194 76.2221 137.181L134.532 130.695C134.6 130.694 134.667 130.678 134.729 130.649C134.79 130.62 134.845 130.579 134.89 130.527C134.935 130.476 134.969 130.416 134.989 130.351C135.01 130.286 135.017 130.218 135.009 130.15C135.002 130.082 134.981 130.017 134.947 129.958C134.913 129.899 134.867 129.847 134.812 129.807C134.757 129.767 134.695 129.738 134.628 129.723C134.562 129.708 134.493 129.707 134.426 129.72Z" fill="black"/>
<path opacity="0.3" d="M119.597 134.945L76.5042 139.738C76.3743 139.753 76.2555 139.818 76.174 139.921C76.0924 140.023 76.0549 140.153 76.0695 140.283C76.0841 140.413 76.1498 140.532 76.252 140.613C76.3543 140.695 76.4847 140.733 76.6146 140.718L119.707 135.925C119.837 135.909 119.955 135.842 120.036 135.74C120.117 135.637 120.154 135.507 120.14 135.377C120.133 135.313 120.113 135.251 120.082 135.194C120.051 135.138 120.009 135.088 119.959 135.048C119.908 135.007 119.85 134.978 119.788 134.96C119.726 134.942 119.661 134.937 119.597 134.945Z" fill="black"/>
<path opacity="0.3" d="M146.892 124.339L141.749 124.911C141.057 124.988 140.559 125.612 140.635 126.303L141.208 131.447C141.285 132.139 141.908 132.637 142.6 132.56L147.743 131.988C148.435 131.911 148.933 131.287 148.856 130.596L148.284 125.452C148.207 124.76 147.584 124.262 146.892 124.339Z" stroke="#263238" stroke-linecap="round" stroke-linejoin="round"/>
<path d="M142.664 128.293L144.352 129.889L146.583 126.48" stroke="#92E3A9" stroke-width="3" stroke-linecap="round" stroke-linejoin="round"/>
<path opacity="0.3" d="M135.444 138.921L84.7425 144.57C84.6126 144.584 84.4938 144.65 84.4122 144.752C84.3307 144.854 84.2931 144.985 84.3078 145.115C84.3224 145.245 84.3881 145.363 84.4903 145.445C84.5925 145.526 84.723 145.564 84.8529 145.549L135.554 139.91C135.619 139.904 135.681 139.884 135.738 139.854C135.795 139.823 135.845 139.781 135.885 139.73C135.926 139.679 135.955 139.621 135.973 139.559C135.99 139.496 135.995 139.431 135.987 139.367C135.981 139.302 135.962 139.238 135.932 139.181C135.901 139.123 135.859 139.071 135.809 139.03C135.758 138.988 135.7 138.957 135.637 138.939C135.575 138.92 135.509 138.914 135.444 138.921Z" fill="black"/>
<path opacity="0.3" d="M135.837 142.453L77.5273 148.939C77.4592 148.941 77.3922 148.957 77.3305 148.986C77.2688 149.015 77.2137 149.056 77.1688 149.107C77.1239 149.158 77.0902 149.218 77.0697 149.283C77.0492 149.348 77.0424 149.417 77.0497 149.485C77.0571 149.552 77.0784 149.618 77.1124 149.677C77.1463 149.736 77.1922 149.787 77.247 149.828C77.3018 149.868 77.3645 149.897 77.4309 149.912C77.4974 149.927 77.5662 149.928 77.6331 149.915L135.947 143.429C136.069 143.405 136.177 143.337 136.251 143.237C136.324 143.137 136.357 143.013 136.343 142.89C136.329 142.767 136.269 142.653 136.175 142.573C136.082 142.492 135.961 142.449 135.837 142.453Z" fill="black"/>
<path opacity="0.3" d="M121.005 147.659L77.9165 152.453C77.8521 152.459 77.7897 152.479 77.7329 152.51C77.6761 152.541 77.626 152.583 77.5854 152.633C77.5448 152.684 77.5145 152.742 77.4964 152.804C77.4782 152.866 77.4724 152.931 77.4795 152.995C77.4945 153.126 77.5605 153.245 77.6631 153.327C77.7656 153.409 77.8964 153.447 78.0269 153.432L121.115 148.639C121.179 148.632 121.242 148.612 121.298 148.581C121.355 148.549 121.405 148.507 121.445 148.457C121.486 148.406 121.516 148.348 121.534 148.286C121.552 148.224 121.557 148.158 121.55 148.094C121.543 148.03 121.523 147.967 121.491 147.911C121.46 147.854 121.418 147.804 121.367 147.764C121.317 147.723 121.259 147.693 121.196 147.676C121.134 147.658 121.069 147.652 121.005 147.659Z" fill="black"/>
<path opacity="0.3" d="M148.31 137.054L143.167 137.626C142.475 137.703 141.976 138.326 142.053 139.018L142.626 144.162C142.703 144.853 143.326 145.352 144.018 145.275L149.161 144.702C149.853 144.625 150.351 144.002 150.274 143.31L149.702 138.167C149.625 137.475 149.002 136.977 148.31 137.054Z" stroke="#263238" stroke-linecap="round" stroke-linejoin="round"/>
<path d="M144.074 141.012L145.762 142.608L147.993 139.199" stroke="#92E3A9" stroke-width="3" stroke-linecap="round" stroke-linejoin="round"/>
<path d="M93.2942 106.384C93.3387 105.855 93.2077 105.327 92.9216 104.88L92.3558 103.877L91.2334 104.512L91.8452 105.588C92.1488 106.126 92.0246 106.458 91.6474 106.669C91.2702 106.881 90.9206 106.826 90.617 106.287L89.306 103.96L87.8984 104.236L89.398 106.881C90.0834 108.091 91.077 108.436 92.2408 107.801C92.4258 107.695 92.5973 107.566 92.7514 107.419C92.6861 107.267 92.6746 107.098 92.7189 106.939C92.7633 106.78 92.8608 106.641 92.9952 106.545C93.0854 106.475 93.1864 106.421 93.2942 106.384Z" fill="#92E3A9"/>
<path d="M87.174 102.963L87.4408 103.423H88.991L88.3148 102.227C88.0112 101.689 88.1308 101.349 88.508 101.137C88.8852 100.925 89.2394 100.99 89.543 101.533L90.003 102.338L91.1208 101.703L90.7068 100.971C90.0214 99.7661 89.0278 99.4165 87.864 100.079C87.5969 100.223 87.3596 100.417 87.1648 100.649C87.4291 100.734 87.7061 100.773 87.9836 100.764L86.8796 101.178C86.7987 101.48 86.7831 101.795 86.8339 102.103C86.8847 102.41 87.0006 102.704 87.174 102.963Z" fill="#92E3A9"/>
<path d="M95.7708 98.0579C95.9184 97.9842 96.0723 97.9241 96.2308 97.8785C96.8242 97.6117 96.9576 96.7561 96.907 96.1535L96.2952 95.3945L94.6484 96.3145L95.6788 98.1269C95.7058 98.0993 95.7368 98.076 95.7708 98.0579Z" fill="#92E3A9"/>
<path d="M102.789 101.66L103.907 101.025L99.6334 93.4902L98.5708 94.0882C98.9112 94.171 99.155 94.332 99.1642 94.5804C98.833 94.6264 98.4282 94.5804 98.0694 94.6448L100.222 100.225L97.499 96.8298C97.5064 96.905 97.4951 96.9808 97.4662 97.0506C97.4373 97.1204 97.3917 97.182 97.3334 97.23C97.2092 97.3174 97.0298 97.3174 96.9332 97.4324C96.8366 97.5474 96.8504 97.6854 96.7676 97.7866C96.6848 97.8878 96.556 97.9154 96.4548 97.989C96.3536 98.0626 96.2432 98.2512 96.1282 98.3754C96.0727 98.4338 96.003 98.4767 95.9258 98.4996L98.9526 103.836L99.983 103.247L96.9608 97.92L100.843 102.759L101.966 102.124L99.6978 96.2686L102.789 101.66Z" fill="#92E3A9"/>
<path d="M105.617 95.1019C105.698 95.1428 105.771 95.1997 105.83 95.2693C105.89 95.3388 105.934 95.4196 105.962 95.5067C106.058 94.9383 105.935 94.3544 105.617 93.8737L105.06 92.8893C104.375 91.6841 103.422 91.3575 102.236 92.0291L100.492 93.0181L104.77 100.558L105.879 99.9273C105.52 99.7019 105.12 99.5087 104.779 99.2649C104.62 99.1629 104.488 99.0221 104.398 98.8555C104.355 98.7715 104.337 98.6768 104.347 98.5828C104.357 98.4889 104.393 98.3999 104.453 98.3265C104.531 98.2608 104.626 98.2186 104.727 98.2048C104.828 98.1909 104.93 98.206 105.023 98.2483L104.347 97.0523L104.908 96.7349C105.217 96.5677 105.485 96.3354 105.695 96.0541C105.46 95.6815 105.051 94.8903 105.617 95.1019ZM104.296 95.6815L103.735 95.9989L102.286 93.4459L102.847 93.1285C103.225 92.9169 103.528 92.9721 103.832 93.5103L104.476 94.6419C104.779 95.1571 104.674 95.4469 104.296 95.6815Z" fill="#92E3A9"/>
<path d="M111.961 96.4764L111.354 95.4L109.404 96.504L106.552 91.4762L106.423 91.5774C106.34 91.6546 106.239 91.7099 106.129 91.7384C106.073 91.7508 106.015 91.7428 105.965 91.7157C105.915 91.6887 105.877 91.6444 105.857 91.5912C105.841 91.52 105.841 91.4462 105.857 91.375C105.858 90.9469 105.723 90.5297 105.471 90.1836L104.551 90.7172L108.824 98.252L111.961 96.4764Z" fill="#92E3A9"/>
<path d="M111.426 93.8402C111.555 93.5044 111.955 93.3802 112.18 93.0766C112.2 93.0454 112.219 93.0131 112.236 92.98L111.776 92.2072L112.939 91.5494C112.918 91.4759 112.88 91.4083 112.829 91.3516C112.662 91.27 112.484 91.2141 112.3 91.186C112.272 91.1288 112.257 91.0656 112.258 91.0018C112.259 90.9379 112.275 90.8752 112.306 90.8189C112.336 90.7627 112.379 90.7144 112.432 90.6782C112.484 90.6421 112.545 90.619 112.608 90.611C112.686 90.611 112.778 90.611 112.838 90.5742C112.88 90.5241 112.901 90.46 112.898 90.3948L112.792 90.2108L111.164 91.1308L109.977 89.0332L112.019 87.8694L111.407 86.793L108.188 88.633L111.352 94.2128C111.358 94.0856 111.383 93.9599 111.426 93.8402Z" fill="#92E3A9"/>
<path d="M115.709 94.3518L115.097 93.2754L113.05 94.4346L112.438 93.3812L111.684 94.0896L111.422 94.3426L112.48 96.2056L115.709 94.3518Z" fill="#92E3A9"/>
<path d="M114.185 85.5966C114.185 85.7576 114.07 85.937 113.913 85.9508C113.834 85.9498 113.755 85.9374 113.679 85.914C113.537 85.9166 113.395 85.9027 113.256 85.8726C113.225 85.8602 113.197 85.8432 113.173 85.822L111.82 86.5902L112.432 87.6712L113.67 86.9674L117.35 93.4074L118.532 92.7358L114.852 86.2958L116.094 85.592L115.482 84.5156L114.212 85.2332C114.189 85.3528 114.199 85.477 114.185 85.5966Z" fill="#92E3A9"/>
<path d="M119.352 90.1599L120.272 91.7837L121.514 91.0799C121.543 90.9984 121.58 90.9199 121.624 90.8453C121.898 90.4457 122.266 90.1202 122.696 89.8977L123.267 89.5435L122.889 88.8719L120.842 90.0357L119.591 87.8277L121.22 86.9077L120.608 85.8313L118.979 86.7513L117.793 84.6399L119.84 83.4807L119.228 82.4043L116.008 84.2443L118.331 88.3429C118.892 88.0439 119.173 89.1203 119.352 90.1599Z" fill="#92E3A9"/>
<path d="M95.5298 105.046C95.723 105.079 95.838 105.272 95.9898 105.401C96.045 105.451 96.1089 105.492 96.1784 105.52C96.2664 105.485 96.3524 105.445 96.436 105.401C97.5952 104.743 97.839 103.694 97.1582 102.484L97.0892 102.365L95.4976 102.323L96.0174 103.243C96.321 103.781 96.2014 104.122 95.8242 104.333C95.447 104.545 95.0928 104.476 94.7892 103.938L92.4892 99.8668C92.181 99.3286 92.3052 98.9928 92.6824 98.7766C93.0596 98.5604 93.4092 98.634 93.7174 99.1722L95.2768 101.932C95.7555 101.814 96.2464 101.752 96.7396 101.748L94.941 98.5788C94.2602 97.3736 93.2344 97.047 92.0706 97.7048C90.9068 98.3626 90.663 99.416 91.3484 100.621L93.5702 104.54C93.7106 104.843 93.9205 105.107 94.1827 105.313C94.4449 105.518 94.7521 105.659 95.079 105.723C95.0765 105.695 95.0765 105.667 95.079 105.64C95.0238 105.341 95.2446 104.991 95.5298 105.046Z" fill="#92E3A9"/>
<path d="M111.412 83.4122L115.023 81.3652C113.988 81.6504 113.078 82.5152 112.01 82.3956C111.817 82.345 111.615 82.345 111.422 82.3956C111.301 82.4734 111.214 82.5938 111.178 82.7327C111.142 82.8717 111.16 83.0191 111.228 83.1454C111.275 83.2437 111.337 83.3338 111.412 83.4122Z" fill="#92E3A9"/>
<path d="M102.356 88.5505C102.348 88.471 102.364 88.3909 102.402 88.3205C102.491 88.3514 102.584 88.367 102.678 88.3665L103.925 87.6627C104.12 87.442 104.343 87.2472 104.587 87.0831C104.824 86.9567 105.074 86.8579 105.333 86.7887L105.609 86.7059L107.909 85.4087C107.933 85.3617 107.966 85.3196 108.005 85.2845C108.041 85.2609 108.079 85.2423 108.12 85.2293L105.747 84.5117L105.107 84.8705L105.038 85.3765L102.301 86.8393C102.03 87.0085 101.729 87.1227 101.413 87.1751C101.296 87.1889 101.177 87.1889 101.059 87.1751L97.1584 89.3877C97.1894 89.5726 97.2419 89.7532 97.3148 89.9259C97.0859 89.8833 96.8683 89.794 96.6754 89.6637L95.875 90.1237C96.4454 90.5009 97.0066 90.8873 97.554 91.2967L102.356 88.5505Z" fill="#92E3A9"/>
<path d="M119.052 79.0854L117.166 78.0273L116.273 78.5333C116.799 79.0741 117.478 79.4402 118.219 79.5822L119.052 79.0854Z" fill="#92E3A9"/>
<path d="M129.196 90.2204L122.075 77.667C121.798 77.1815 121.34 76.8254 120.801 76.6763C120.263 76.5272 119.687 76.5973 119.2 76.8712L118.344 77.3588L118.671 77.6762C119.011 78.0166 119.361 78.3616 119.678 78.725L120.111 78.4812C120.171 78.4477 120.241 78.4391 120.308 78.4572C120.374 78.4752 120.43 78.5185 120.465 78.5778L127.59 91.1358C127.623 91.1963 127.631 91.2674 127.612 91.3337C127.593 91.4 127.549 91.4561 127.489 91.49L117.797 97.01C118.634 97.0606 119.48 96.941 120.318 97.0376C120.619 97.0756 120.919 97.1294 121.215 97.1986L128.4 93.123C128.644 92.9858 128.858 92.8016 129.031 92.581C129.203 92.3604 129.33 92.1078 129.404 91.8379C129.478 91.5679 129.498 91.2859 129.462 91.0083C129.426 90.7306 129.336 90.4628 129.196 90.2204Z" fill="#92E3A9"/>
<path d="M85.5606 106.196L82.2118 100.28C82.1945 100.251 82.1833 100.218 82.1788 100.183C82.1743 100.149 82.1766 100.114 82.1856 100.081C82.1946 100.048 82.21 100.016 82.2311 99.9891C82.2522 99.9617 82.2784 99.9388 82.3084 99.9216L91.9684 94.4384C91.9362 94.3648 91.8948 94.2912 91.8672 94.2176C92.0037 94.2119 92.1403 94.2275 92.272 94.2636L96.1774 92.051C96.0486 92.0096 95.9244 91.959 95.8002 91.913L93.9602 91.1816L92.4882 92.0188L94.089 92.9986C93.5324 92.6582 92.3962 92.6122 91.4164 92.626L81.4206 98.3162C80.9342 98.5923 80.5773 99.0501 80.4281 99.5891C80.2789 100.128 80.3496 100.704 80.6248 101.191L83.532 106.316C83.6654 106.279 83.8034 106.247 83.9368 106.224C84.3053 106.171 84.678 106.152 85.05 106.168C85.2206 106.167 85.3911 106.176 85.5606 106.196Z" fill="#92E3A9"/>
<path d="M97.4948 108.505C97.6587 108.652 97.845 108.771 98.0468 108.859C98.2538 108.951 98.5298 109.172 98.3688 109.319C97.6236 109.659 96.7036 109.406 95.9722 109.779C95.572 109.972 95.1856 110.354 94.7578 110.239C95.2753 110.553 95.7408 110.946 96.1378 111.403L114.404 101.044C114.404 100.97 114.427 100.896 114.441 100.818C114.442 100.674 114.475 100.531 114.539 100.401C114.603 100.271 114.696 100.157 114.81 100.069C114.924 99.9799 115.058 99.9184 115.199 99.8889C115.341 99.8594 115.488 99.8626 115.628 99.8983C115.865 99.8879 116.102 99.9127 116.332 99.9719L118.609 98.6793C118.296 98.1408 117.926 97.638 117.505 97.1797L97.4948 108.505Z" fill="#92E3A9"/>
<path d="M94.5345 111.545C94.0939 111.402 93.6881 111.169 93.3431 110.86L89.6999 112.93C89.6703 112.947 89.6377 112.958 89.6038 112.962C89.5699 112.967 89.5355 112.965 89.5026 112.956C89.4696 112.947 89.4387 112.931 89.4118 112.91C89.3849 112.889 89.3624 112.863 89.3457 112.833L86.1257 107.189C85.8171 107.082 85.489 107.045 85.1643 107.079C84.7917 107.152 84.4651 107.585 84.6675 107.902C84.8576 107.907 85.0431 107.962 85.2048 108.062C85.3665 108.163 85.4985 108.304 85.5875 108.472C85.3891 108.63 85.171 108.762 84.9389 108.863L87.6989 113.744C87.836 113.99 88.021 114.207 88.2431 114.381C88.4651 114.555 88.7197 114.683 88.9918 114.757C89.264 114.831 89.5482 114.85 89.8278 114.813C90.1074 114.775 90.3767 114.683 90.6199 114.54L95.3947 111.83L95.3395 111.798C95.0759 111.699 94.8072 111.615 94.5345 111.545Z" fill="#92E3A9"/>
<g opacity="0.2">
<path opacity="0.2" d="M93.2942 106.384C93.3387 105.855 93.2077 105.327 92.9216 104.88L92.3558 103.877L91.2334 104.512L91.8452 105.588C92.1488 106.126 92.0246 106.458 91.6474 106.669C91.2702 106.881 90.9206 106.826 90.617 106.287L89.306 103.96L87.8984 104.236L89.398 106.881C90.0834 108.091 91.077 108.436 92.2408 107.801C92.4258 107.695 92.5973 107.566 92.7514 107.419C92.6861 107.267 92.6746 107.098 92.7189 106.939C92.7633 106.78 92.8608 106.641 92.9952 106.545C93.0854 106.475 93.1864 106.421 93.2942 106.384Z" fill="black"/>
<path opacity="0.2" d="M87.174 102.963L87.4408 103.423H88.991L88.3148 102.227C88.0112 101.689 88.1308 101.349 88.508 101.137C88.8852 100.925 89.2394 100.99 89.543 101.533L90.003 102.338L91.1208 101.703L90.7068 100.971C90.0214 99.7661 89.0278 99.4165 87.864 100.079C87.5969 100.223 87.3596 100.417 87.1648 100.649C87.4291 100.734 87.7061 100.773 87.9836 100.764L86.8796 101.178C86.7987 101.48 86.7831 101.795 86.8339 102.103C86.8847 102.41 87.0006 102.704 87.174 102.963Z" fill="black"/>
<path opacity="0.2" d="M95.7708 98.0579C95.9184 97.9842 96.0723 97.9241 96.2308 97.8785C96.8242 97.6117 96.9576 96.7561 96.907 96.1535L96.2952 95.3945L94.6484 96.3145L95.6788 98.1269C95.7058 98.0993 95.7368 98.076 95.7708 98.0579Z" fill="black"/>
<path opacity="0.2" d="M102.789 101.66L103.907 101.025L99.6334 93.4902L98.5708 94.0882C98.9112 94.171 99.155 94.332 99.1642 94.5804C98.833 94.6264 98.4282 94.5804 98.0694 94.6448L100.222 100.225L97.499 96.8298C97.5064 96.905 97.4951 96.9808 97.4662 97.0506C97.4373 97.1204 97.3917 97.182 97.3334 97.23C97.2092 97.3174 97.0298 97.3174 96.9332 97.4324C96.8366 97.5474 96.8504 97.6854 96.7676 97.7866C96.6848 97.8878 96.556 97.9154 96.4548 97.989C96.3536 98.0626 96.2432 98.2512 96.1282 98.3754C96.0727 98.4338 96.003 98.4767 95.9258 98.4996L98.9526 103.836L99.983 103.247L96.9608 97.92L100.843 102.759L101.966 102.124L99.6978 96.2686L102.789 101.66Z" fill="black"/>
<path opacity="0.2" d="M105.617 95.1019C105.698 95.1428 105.771 95.1997 105.83 95.2693C105.89 95.3388 105.934 95.4196 105.962 95.5067C106.058 94.9383 105.935 94.3544 105.617 93.8737L105.06 92.8893C104.375 91.6841 103.422 91.3575 102.236 92.0291L100.492 93.0181L104.77 100.558L105.879 99.9273C105.52 99.7019 105.12 99.5087 104.779 99.2649C104.62 99.1629 104.488 99.0221 104.398 98.8555C104.355 98.7715 104.337 98.6768 104.347 98.5828C104.357 98.4889 104.393 98.3999 104.453 98.3265C104.531 98.2608 104.626 98.2186 104.727 98.2048C104.828 98.1909 104.93 98.206 105.023 98.2483L104.347 97.0523L104.908 96.7349C105.217 96.5677 105.485 96.3354 105.695 96.0541C105.46 95.6815 105.051 94.8903 105.617 95.1019ZM104.296 95.6815L103.735 95.9989L102.286 93.4459L102.847 93.1285C103.225 92.9169 103.528 92.9721 103.832 93.5103L104.476 94.6419C104.779 95.1571 104.674 95.4469 104.296 95.6815Z" fill="black"/>
<path opacity="0.2" d="M111.961 96.4764L111.354 95.4L109.404 96.504L106.552 91.4762L106.423 91.5774C106.34 91.6546 106.239 91.7099 106.129 91.7384C106.073 91.7508 106.015 91.7428 105.965 91.7157C105.915 91.6887 105.877 91.6444 105.857 91.5912C105.841 91.52 105.841 91.4462 105.857 91.375C105.858 90.9469 105.723 90.5297 105.471 90.1836L104.551 90.7172L108.824 98.252L111.961 96.4764Z" fill="black"/>
<path opacity="0.2" d="M111.426 93.8402C111.555 93.5044 111.955 93.3802 112.18 93.0766C112.2 93.0454 112.219 93.0131 112.236 92.98L111.776 92.2072L112.939 91.5494C112.918 91.4759 112.88 91.4083 112.829 91.3516C112.662 91.27 112.484 91.2141 112.3 91.186C112.272 91.1288 112.257 91.0656 112.258 91.0018C112.259 90.9379 112.275 90.8752 112.306 90.8189C112.336 90.7627 112.379 90.7144 112.432 90.6782C112.484 90.6421 112.545 90.619 112.608 90.611C112.686 90.611 112.778 90.611 112.838 90.5742C112.88 90.5241 112.901 90.46 112.898 90.3948L112.792 90.2108L111.164 91.1308L109.977 89.0332L112.019 87.8694L111.407 86.793L108.188 88.633L111.352 94.2128C111.358 94.0856 111.383 93.9599 111.426 93.8402Z" fill="black"/>
<path opacity="0.2" d="M115.709 94.3518L115.097 93.2754L113.05 94.4346L112.438 93.3812L111.684 94.0896L111.422 94.3426L112.48 96.2056L115.709 94.3518Z" fill="black"/>
<path opacity="0.2" d="M114.185 85.5966C114.185 85.7576 114.07 85.937 113.913 85.9508C113.834 85.9498 113.755 85.9374 113.679 85.914C113.537 85.9166 113.395 85.9027 113.256 85.8726C113.225 85.8602 113.197 85.8432 113.173 85.822L111.82 86.5902L112.432 87.6712L113.67 86.9674L117.35 93.4074L118.532 92.7358L114.852 86.2958L116.094 85.592L115.482 84.5156L114.212 85.2332C114.189 85.3528 114.199 85.477 114.185 85.5966Z" fill="black"/>
<path opacity="0.2" d="M119.352 90.1599L120.272 91.7837L121.514 91.0799C121.543 90.9984 121.58 90.9199 121.624 90.8453C121.898 90.4457 122.266 90.1202 122.696 89.8977L123.267 89.5435L122.889 88.8719L120.842 90.0357L119.591 87.8277L121.22 86.9077L120.608 85.8313L118.979 86.7513L117.793 84.6399L119.84 83.4807L119.228 82.4043L116.008 84.2443L118.331 88.3429C118.892 88.0439 119.173 89.1203 119.352 90.1599Z" fill="black"/>
<path opacity="0.2" d="M95.5298 105.046C95.723 105.079 95.838 105.272 95.9898 105.401C96.045 105.451 96.1089 105.492 96.1784 105.52C96.2664 105.485 96.3524 105.445 96.436 105.401C97.5952 104.743 97.839 103.694 97.1582 102.484L97.0892 102.365L95.4976 102.323L96.0174 103.243C96.321 103.781 96.2014 104.122 95.8242 104.333C95.447 104.545 95.0928 104.476 94.7892 103.938L92.4892 99.8668C92.181 99.3286 92.3052 98.9928 92.6824 98.7766C93.0596 98.5604 93.4092 98.634 93.7174 99.1722L95.2768 101.932C95.7555 101.814 96.2464 101.752 96.7396 101.748L94.941 98.5788C94.2602 97.3736 93.2344 97.047 92.0706 97.7048C90.9068 98.3626 90.663 99.416 91.3484 100.621L93.5702 104.54C93.7106 104.843 93.9205 105.107 94.1827 105.313C94.4449 105.518 94.7521 105.659 95.079 105.723C95.0765 105.695 95.0765 105.667 95.079 105.64C95.0238 105.341 95.2446 104.991 95.5298 105.046Z" fill="black"/>
<path opacity="0.2" d="M111.412 83.4122L115.023 81.3652C113.988 81.6504 113.078 82.5152 112.01 82.3956C111.817 82.345 111.615 82.345 111.422 82.3956C111.301 82.4734 111.214 82.5938 111.178 82.7327C111.142 82.8717 111.16 83.0191 111.228 83.1454C111.275 83.2437 111.337 83.3338 111.412 83.4122Z" fill="black"/>
<path opacity="0.2" d="M102.356 88.5505C102.348 88.471 102.364 88.3909 102.402 88.3205C102.491 88.3514 102.584 88.367 102.678 88.3665L103.925 87.6627C104.12 87.442 104.343 87.2472 104.587 87.0831C104.824 86.9567 105.074 86.8579 105.333 86.7887L105.609 86.7059L107.909 85.4087C107.933 85.3617 107.966 85.3196 108.005 85.2845C108.041 85.2609 108.079 85.2423 108.12 85.2293L105.747 84.5117L105.107 84.8705L105.038 85.3765L102.301 86.8393C102.03 87.0085 101.729 87.1227 101.413 87.1751C101.296 87.1889 101.177 87.1889 101.059 87.1751L97.1584 89.3877C97.1894 89.5726 97.2419 89.7532 97.3148 89.9259C97.0859 89.8833 96.8683 89.794 96.6754 89.6637L95.875 90.1237C96.4454 90.5009 97.0066 90.8873 97.554 91.2967L102.356 88.5505Z" fill="black"/>
<path opacity="0.2" d="M119.052 79.0854L117.166 78.0273L116.273 78.5333C116.799 79.0741 117.478 79.4402 118.219 79.5822L119.052 79.0854Z" fill="black"/>
<path opacity="0.2" d="M129.196 90.2204L122.075 77.667C121.798 77.1815 121.34 76.8254 120.801 76.6763C120.263 76.5272 119.687 76.5973 119.2 76.8712L118.344 77.3588L118.671 77.6762C119.011 78.0166 119.361 78.3616 119.678 78.725L120.111 78.4812C120.171 78.4477 120.241 78.4391 120.308 78.4572C120.374 78.4752 120.43 78.5185 120.465 78.5778L127.59 91.1358C127.623 91.1963 127.631 91.2674 127.612 91.3337C127.593 91.4 127.549 91.4561 127.489 91.49L117.797 97.01C118.634 97.0606 119.48 96.941 120.318 97.0376C120.619 97.0756 120.919 97.1294 121.215 97.1986L128.4 93.123C128.644 92.9858 128.858 92.8016 129.031 92.581C129.203 92.3604 129.33 92.1078 129.404 91.8379C129.478 91.5679 129.498 91.2859 129.462 91.0083C129.426 90.7306 129.336 90.4628 129.196 90.2204Z" fill="black"/>
<path opacity="0.2" d="M85.5606 106.196L82.2118 100.28C82.1945 100.251 82.1833 100.218 82.1788 100.183C82.1743 100.149 82.1766 100.114 82.1856 100.081C82.1946 100.048 82.21 100.016 82.2311 99.9891C82.2522 99.9617 82.2784 99.9388 82.3084 99.9216L91.9684 94.4384C91.9362 94.3648 91.8948 94.2912 91.8672 94.2176C92.0037 94.2119 92.1403 94.2275 92.272 94.2636L96.1774 92.051C96.0486 92.0096 95.9244 91.959 95.8002 91.913L93.9602 91.1816L92.4882 92.0188L94.089 92.9986C93.5324 92.6582 92.3962 92.6122 91.4164 92.626L81.4206 98.3162C80.9342 98.5923 80.5773 99.0501 80.4281 99.5891C80.2789 100.128 80.3496 100.704 80.6248 101.191L83.532 106.316C83.6654 106.279 83.8034 106.247 83.9368 106.224C84.3053 106.171 84.678 106.152 85.05 106.168C85.2206 106.167 85.3911 106.176 85.5606 106.196Z" fill="black"/>
<path opacity="0.2" d="M97.4948 108.505C97.6587 108.652 97.845 108.771 98.0468 108.859C98.2538 108.951 98.5298 109.172 98.3688 109.319C97.6236 109.659 96.7036 109.406 95.9722 109.779C95.572 109.972 95.1856 110.354 94.7578 110.239C95.2753 110.553 95.7408 110.946 96.1378 111.403L114.404 101.044C114.404 100.97 114.427 100.896 114.441 100.818C114.442 100.674 114.475 100.531 114.539 100.401C114.603 100.271 114.696 100.157 114.81 100.069C114.924 99.9799 115.058 99.9184 115.199 99.8889C115.341 99.8594 115.488 99.8626 115.628 99.8983C115.865 99.8879 116.102 99.9127 116.332 99.9719L118.609 98.6793C118.296 98.1408 117.926 97.638 117.505 97.1797L97.4948 108.505Z" fill="black"/>
<path opacity="0.2" d="M94.5345 111.545C94.0939 111.402 93.6881 111.169 93.3431 110.86L89.6999 112.93C89.6703 112.947 89.6377 112.958 89.6038 112.962C89.5699 112.967 89.5355 112.965 89.5026 112.956C89.4696 112.947 89.4387 112.931 89.4118 112.91C89.3849 112.889 89.3624 112.863 89.3457 112.833L86.1257 107.189C85.8171 107.082 85.489 107.045 85.1643 107.079C84.7917 107.152 84.4651 107.585 84.6675 107.902C84.8576 107.907 85.0431 107.962 85.2048 108.062C85.3665 108.163 85.4985 108.304 85.5875 108.472C85.3891 108.63 85.171 108.762 84.9389 108.863L87.6989 113.744C87.836 113.99 88.021 114.207 88.2431 114.381C88.4651 114.555 88.7197 114.683 88.9918 114.757C89.264 114.831 89.5482 114.85 89.8278 114.813C90.1074 114.775 90.3767 114.683 90.6199 114.54L95.3947 111.83L95.3395 111.798C95.0759 111.699 94.8072 111.615 94.5345 111.545Z" fill="black"/>
</g>
<path opacity="0.3" d="M73.8189 95.1172C76.6249 97.178 78.9709 107.077 79.1825 116.153C79.3941 125.229 83.7825 140.533 84.3069 143.04C84.8313 145.547 84.6381 149.163 87.8949 144.13C91.1517 139.098 100.678 130.362 104.648 133.265C108.618 136.168 101.934 145.924 98.3139 151.177C94.6937 156.431 94.3257 165.681 89.9879 171.473C85.6501 177.264 81.7309 186.009 77.4805 185.875C73.2301 185.742 45.0781 206.626 45.0781 206.626L45.6301 178.041L70.9301 136.641L73.8189 95.1172Z" fill="black" fill-opacity="0.7"/>
<path d="M106.958 134.668C106.815 135.565 101.861 142.13 98.9491 147.042C96.0373 151.955 93.3095 160.507 92.5781 161.762C91.8467 163.018 82.9181 170.861 80.4709 174.141C78.0237 177.421 73.6537 178.87 69.2883 181.961C66.4823 183.948 57.7377 194.202 51.8451 201.281C48.5699 205.214 46.1733 208.181 46.1733 208.181L8.50391 198.36C8.50391 198.36 11.6227 195.789 15.7259 192.32H15.7535L15.7949 192.288C22.5385 186.561 31.9363 178.479 34.5307 175.429C38.7121 170.516 44.5357 164.679 44.5357 164.679C44.1815 157.857 44.9037 151.394 44.2643 148.938C43.9331 147.654 43.3443 140.354 42.8843 138.109C41.7665 132.373 36.9043 126.43 36.3569 124.088C35.8095 121.747 29.3925 111.779 32.5251 109.939C33.0946 109.58 33.7715 109.432 34.4387 109.52C38.6707 110.104 42.1575 120.326 44.5587 122.929C45.5876 124.162 46.5196 125.472 47.3463 126.848C49.2415 129.852 51.0999 133.229 51.0999 133.229C51.8267 130.317 46.5505 119.944 45.0923 110.118C43.6341 100.293 39.4527 95.0164 45.0923 94.4092C45.5557 94.3572 46.0248 94.3979 46.4723 94.5288C50.4421 95.688 52.1625 103.936 54.5361 111.94C54.7569 112.676 56.5647 117.961 57.9723 122.037C58.8923 124.705 59.6283 126.853 59.6283 126.853C59.8077 121.848 58.2483 117.193 57.9907 112.657C57.8803 110.84 58.4507 103.559 57.7331 96.2814C57.1167 90.1404 57.3973 87.6518 59.7985 87.1688C60.3129 87.0762 60.8371 87.0515 61.3579 87.0952C65.5209 87.3574 66.9975 98.4204 66.9975 102.735C66.9975 105.242 67.4253 110.137 67.7841 113.807C68.0463 116.462 68.2717 118.476 68.2717 118.476C68.2717 118.476 68.9985 112.381 68.4557 99.2346C68.3315 96.355 68.5201 94.2942 69.6517 93.4616C70.2727 93.0016 71.1697 92.9234 72.4577 93.273C76.0963 94.2574 77.2785 107.74 77.2785 112.837C77.2785 117.934 80.1903 126.664 80.7377 133.537C81.2851 140.409 83.6679 148.855 83.6679 148.855C83.6679 148.855 85.0157 149.402 85.9219 149.223C86.8281 149.043 93.1117 139.761 93.1117 139.761C96.0373 133.408 101.732 131.481 104.832 132.194C106.258 132.52 107.178 133.399 106.958 134.668Z" fill="white"/>
<path opacity="0.4" d="M106.956 134.668C106.814 135.565 101.86 142.129 98.9478 147.042C96.036 151.955 93.3082 160.506 92.5768 161.762C91.8454 163.018 82.9168 170.861 80.4696 174.141C78.0224 177.421 73.6524 178.87 69.287 181.961C66.481 183.948 57.7364 194.201 51.8438 201.281C52.4924 198.714 53.946 195.434 57.7456 192.283C64.342 186.805 64.7375 182.508 68.2842 178.87C71.8308 175.231 78.0776 176.321 80.3224 171.97C82.5672 167.618 90.3964 163.598 92.034 159.775C93.6716 155.952 90.3964 155.143 93.3082 150.543C96.22 145.943 99.0444 144.825 98.6304 143.022C98.2164 141.219 96.9928 138.486 99.5182 136.209C101.096 134.792 102.95 133.012 104.845 132.193C106.257 132.52 107.177 133.399 106.956 134.668Z" fill="#92E3A9"/>
<path opacity="0.4" d="M59.7598 156.261C58.55 155.654 59.5206 154.444 58.6696 153.437C57.8186 152.429 55.8774 158.934 55.4496 158.957C55.0218 158.98 53.72 155.649 53.2048 155.318C52.6896 154.987 52.386 156.381 51.6546 158.957C50.9232 161.533 48.2368 162.839 46.6774 164.679C45.118 166.519 35.7386 176.524 33.434 180.282C31.1294 184.041 16.897 191.479 15.793 192.279C22.5366 186.561 31.9344 178.479 34.5288 175.429C38.7102 170.517 44.5338 164.679 44.5338 164.679C44.1796 157.857 44.9018 151.394 44.2624 148.938C43.9312 147.655 43.3424 140.354 42.8824 138.11C41.7646 132.373 36.9024 126.43 36.355 124.089C35.8076 121.747 29.3906 111.779 32.5232 109.939C33.0927 109.581 33.7696 109.433 34.4368 109.521C33.7238 110.027 33.0292 110.753 33.6778 111.821C34.8324 113.688 36.102 115.652 36.102 117.718C36.102 119.783 39.621 122.69 40.9872 124.618C42.3534 126.545 41.0792 125.864 41.99 128.505C42.9008 131.145 43.991 130.593 44.5338 133.261C45.0766 135.929 48.1126 137.631 47.6296 140.957C47.1466 144.283 49.0832 148.91 49.0832 148.91C49.0832 148.91 50.661 144.425 50.086 142.01C49.511 139.595 50.178 136.55 49.626 135.731C49.166 134.995 47.9056 130 47.326 126.895C49.2212 129.899 51.0796 133.275 51.0796 133.275C51.8064 130.363 46.5302 119.99 45.072 110.165C43.6138 100.339 39.4324 95.0627 45.072 94.4555C45.5353 94.4036 46.0044 94.4442 46.452 94.5751C48.8578 99.0693 47.1834 102.395 46.6498 104.346C46.0656 106.471 49.5432 111.926 50.0584 115.685C50.5184 119.194 51.466 118.831 51.5902 118.767C51.4844 118.863 50.5874 119.778 51.1302 122.382C51.696 125.142 55.7302 131.697 55.7302 133.528C55.7302 135.359 55.399 138.372 55.399 139.264C55.399 140.157 58.619 146.127 59.0054 147.691C59.3918 149.255 58.8536 144.678 59.7322 143.091C60.6108 141.504 61.0754 135.966 61.1904 136.265C62.7038 140.111 60.9742 156.859 59.7598 156.261Z" fill="#92E3A9"/>
<path opacity="0.4" d="M62.3698 115.156C61.3394 116.715 61.367 128.887 59.6098 128.928C58.7588 128.928 58.3448 125.869 57.9998 122.028C58.9198 124.696 59.6558 126.844 59.6558 126.844C59.8352 121.84 58.2758 117.184 58.0182 112.649C57.9078 110.832 58.4782 103.55 57.7606 96.2728C57.1442 90.1318 57.4248 87.6432 59.826 87.1602C60.332 88.7978 61.574 90.7298 61.8914 92.5238C62.3238 94.9986 61.4774 97.0456 60.7506 97.3538C60.0238 97.662 59.8996 99.2582 60.8104 99.4928C61.7212 99.7274 60.8104 111.342 61.2336 112.833C61.6568 114.323 63.4048 113.619 62.3698 115.156Z" fill="#92E3A9"/>
<path opacity="0.4" d="M71.8225 101.53C69.9319 102.363 69.8307 103.853 69.2649 105.992C68.6991 108.131 70.0745 111.254 69.2649 116.163C68.4553 121.071 71.4085 124.236 69.2649 129.728C67.1213 135.22 68.1287 125.128 67.7699 120.528C67.6463 118.288 67.6555 116.042 67.7975 113.803C68.0597 116.457 68.2851 118.472 68.2851 118.472C68.2851 118.472 69.0119 112.377 68.4691 99.23C68.3449 96.3504 68.5335 94.2896 69.6651 93.457C71.6063 95.2188 73.4325 100.822 71.8225 101.53Z" fill="#92E3A9"/>
<path d="M46.1719 208.185C46.1719 208.185 64.9169 185.074 69.2869 181.965C73.6569 178.855 78.0269 177.415 80.4695 174.145C82.9121 170.874 91.8499 163.04 92.5767 161.766C93.3035 160.492 96.0359 151.94 98.9477 147.046C101.86 142.152 106.814 135.546 106.956 134.672C107.591 130.665 97.4021 130.486 93.1241 139.769C93.1241 139.769 86.8451 149.047 85.9343 149.231C85.0235 149.415 83.6803 148.863 83.6803 148.863C83.6803 148.863 81.2975 140.422 80.7501 133.545C80.2027 126.668 77.2909 117.928 77.2909 112.845C77.2909 107.762 76.1087 94.2656 72.4701 93.2812C68.8315 92.2968 68.2795 94.79 68.4681 99.2612C69.0109 112.408 68.2841 118.503 68.2841 118.503C68.2841 118.503 67.0099 107.081 67.0099 102.762C67.0099 98.4424 65.5333 87.3794 61.3703 87.1218C57.5477 86.878 57.0141 89.0262 57.7455 96.3218C58.4769 103.617 57.8927 110.881 58.0031 112.698C58.2745 117.247 59.8431 121.898 59.6407 126.893C59.6407 126.893 54.9073 113.19 54.5439 111.971C51.9081 103.038 50.0819 93.8378 45.0771 94.3898C39.4375 94.997 43.6235 100.273 45.0771 110.099C46.5307 119.924 51.8115 130.297 51.0847 133.209C51.0847 133.209 46.7193 125.283 44.5435 122.91C41.7835 119.924 37.6159 106.916 32.5191 109.919C29.3865 111.759 35.8219 121.76 36.3647 124.101C36.9075 126.443 41.7743 132.381 42.8921 138.122C43.3521 140.367 43.9271 147.667 44.2721 148.95C44.9115 151.407 44.1893 157.87 44.5435 164.692C44.5435 164.692 38.7199 170.515 34.5385 175.428C30.3571 180.341 8.51172 198.359 8.51172 198.359" stroke="#263238" stroke-linecap="round" stroke-linejoin="round"/>
<path d="M83.6836 148.859C84.5232 150.932 84.5232 153.25 83.6836 155.322" stroke="#263238" stroke-linecap="round" stroke-linejoin="round"/>
<path d="M85.2148 149.246C85.737 149.63 86.124 150.169 86.3199 150.787C86.5158 151.404 86.5106 152.068 86.305 152.682" stroke="#263238" stroke-linecap="round" stroke-linejoin="round"/>
<path d="M68.2852 118.471C68.2852 118.471 69.7434 128.752 69.104 130.661" stroke="#263238" stroke-linecap="round" stroke-linejoin="round"/>
<path d="M59.6406 126.844C59.7968 127.837 59.7968 128.849 59.6406 129.843" stroke="#263238" stroke-linecap="round" stroke-linejoin="round"/>
<path d="M51.0898 133.211C51.0898 133.211 51.3612 134.761 51.0898 135.125" stroke="#263238" stroke-linecap="round" stroke-linejoin="round"/>
<path d="M97.2188 141.945C97.2188 141.945 98.8655 142.838 99.4037 144.13" stroke="#263238" stroke-linecap="round" stroke-linejoin="round"/>
<path d="M59.7031 99.2297C60.2369 99.3578 60.7944 99.3496 61.3242 99.2057C61.8539 99.0618 62.3389 98.7869 62.7345 98.4062" stroke="#263238" stroke-linecap="round" stroke-linejoin="round"/>
<path d="M60.2578 114.014C60.2578 114.014 63.533 115.104 64.7198 114.014" stroke="#263238" stroke-linecap="round" stroke-linejoin="round"/>
<path d="M70.9258 117.197C70.9258 117.197 73.1062 116.378 74.5644 116.833" stroke="#263238" stroke-linecap="round" stroke-linejoin="round"/>
<path d="M50.0898 120.108C50.0898 120.108 51.8194 117.831 53.1856 118.471" stroke="#263238" stroke-linecap="round" stroke-linejoin="round"/>
<path d="M42.9893 126.844C42.9893 126.844 41.4437 127.571 40.9883 128.343" stroke="#263238" stroke-linecap="round" stroke-linejoin="round"/>
<path d="M44.5352 164.68C44.9143 164.254 45.2503 163.792 45.538 163.3C45.8094 162.752 45.446 156.929 45.538 153.18" stroke="#263238" stroke-linecap="round" stroke-linejoin="round"/>
<path d="M63.6262 187.605C61.4826 190.007 54.9092 194.358 52.2734 196.994" stroke="#263238" stroke-linecap="round" stroke-linejoin="round"/>
<path d="M72.2889 133.211C71.1987 136.307 72.3809 140.217 72.2889 141.951C72.1969 143.685 71.8289 151.611 71.8289 151.611" stroke="#263238" stroke-linecap="round" stroke-linejoin="round"/>
<path d="M62.3705 133.211C60.9169 135.667 61.3723 138.943 61.8277 140.571C62.2831 142.199 61.8783 148.851 61.8783 148.851" stroke="#263238" stroke-linecap="round" stroke-linejoin="round"/>
<path d="M46.7202 141.035C46.5997 142.637 46.9178 144.242 47.6402 145.677" stroke="#263238" stroke-linecap="round" stroke-linejoin="round"/>
<path d="M55.7279 136.213C54.9091 139.217 56.0039 140.578 56.0959 141.034" stroke="#263238" stroke-linecap="round" stroke-linejoin="round"/>
<path opacity="0.3" d="M129.636 116.38L128.086 107.383C128.018 106.983 128.031 106.573 128.125 106.179C128.218 105.784 128.391 105.413 128.632 105.087C128.873 104.761 129.178 104.487 129.527 104.281C129.877 104.076 130.265 103.943 130.667 103.891L134.14 103.431C134.14 103.431 132.981 101.081 136.711 94.2311C140.442 87.3817 158.377 69.1887 171.975 99.7511C185.572 130.314 197.997 192.593 197.997 192.593C197.997 192.593 161.294 149.85 160.125 147.66C158.957 145.471 147.783 146.782 145.203 140.907C142.622 135.033 137.203 118.271 137.203 118.271L133.008 118.846C132.236 118.95 131.454 118.752 130.826 118.292C130.197 117.832 129.771 117.147 129.636 116.38Z" fill="black" fill-opacity="0.7"/>
<path d="M161.983 95.7366L154.94 97.0154L145.151 98.7956L132.331 101.128C132.085 101.173 131.833 101.169 131.588 101.116C131.344 101.064 131.112 100.963 130.907 100.821C130.701 100.679 130.526 100.497 130.39 100.287C130.255 100.077 130.163 99.842 130.118 99.596L127.303 84.117C127.215 83.6206 127.326 83.1094 127.613 82.6949C127.9 82.2803 128.339 81.9962 128.835 81.9044L136.292 80.5244L147.138 78.5556L158.487 76.4902C158.732 76.4451 158.985 76.4489 159.229 76.5015C159.474 76.5541 159.705 76.6545 159.911 76.7968C160.116 76.9391 160.292 77.1206 160.427 77.3308C160.562 77.5411 160.655 77.7759 160.699 78.022L163.514 93.501C163.563 93.7486 163.562 94.0033 163.511 94.2504C163.459 94.4974 163.36 94.7318 163.217 94.94C163.075 95.1481 162.892 95.3257 162.68 95.4625C162.468 95.5992 162.231 95.6924 161.983 95.7366Z" fill="#92E3A9"/>
<path opacity="0.3" d="M157.002 85.4593L154.941 97.0145L145.152 98.7947C142.319 97.5481 137.645 95.3769 136.711 94.1947C135.598 92.8147 135.755 84.6819 136.293 80.5235L147.14 78.5547C150.962 81.1905 157.002 85.4593 157.002 85.4593Z" fill="black" fill-opacity="0.7"/>
<path opacity="0.3" d="M134.277 100.772L132.331 101.126C132.085 101.172 131.833 101.168 131.588 101.115C131.344 101.062 131.112 100.962 130.907 100.82C130.701 100.678 130.526 100.496 130.39 100.286C130.255 100.076 130.163 99.8407 130.118 99.5946L127.303 84.1156C127.215 83.6193 127.326 83.1081 127.613 82.6935C127.9 82.279 128.339 81.9948 128.835 81.903L130.776 81.5488C130.281 81.6405 129.842 81.9249 129.555 82.3396C129.269 82.7543 129.159 83.2656 129.249 83.7614L132.064 99.2404C132.108 99.4865 132.201 99.7214 132.336 99.9316C132.471 100.142 132.647 100.323 132.852 100.466C133.058 100.608 133.29 100.708 133.534 100.761C133.778 100.813 134.031 100.817 134.277 100.772Z" fill="black" fill-opacity="0.7"/>
<path d="M161.983 95.7366L154.94 97.0154L145.151 98.7956L132.331 101.128C132.085 101.173 131.833 101.169 131.588 101.116C131.344 101.064 131.112 100.963 130.907 100.821C130.701 100.679 130.526 100.497 130.39 100.287C130.255 100.077 130.163 99.842 130.118 99.596L127.303 84.117C127.215 83.6206 127.326 83.1094 127.613 82.6949C127.9 82.2803 128.339 81.9962 128.835 81.9044L136.292 80.5244L147.138 78.5556L158.487 76.4902C158.732 76.4451 158.985 76.4489 159.229 76.5015C159.474 76.5541 159.705 76.6545 159.911 76.7968C160.116 76.9391 160.292 77.1206 160.427 77.3308C160.562 77.5411 160.655 77.7759 160.699 78.022L163.514 93.501C163.563 93.7486 163.562 94.0033 163.511 94.2504C163.459 94.4974 163.36 94.7318 163.217 94.94C163.075 95.1481 162.892 95.3257 162.68 95.4625C162.468 95.5992 162.231 95.6924 161.983 95.7366V95.7366Z" stroke="#263238" stroke-linecap="round" stroke-linejoin="round"/>
<path d="M159.89 75.6705L130.358 81.0947C129.328 81.284 128.646 82.2731 128.835 83.3038L131.666 98.7167C131.855 99.7474 132.844 100.43 133.875 100.24L163.407 94.816C164.438 94.6266 165.12 93.6376 164.93 92.6069L162.1 77.194C161.91 76.1633 160.921 75.4812 159.89 75.6705Z" stroke="#263238" stroke-width="0.996394" stroke-linecap="round" stroke-linejoin="round"/>
<path d="M159.063 77.5319L131.233 82.5894C130.733 82.6803 130.402 83.1592 130.493 83.6591L133.264 98.9113C133.355 99.4112 133.834 99.7428 134.334 99.6519L162.164 94.5944C162.664 94.5036 162.995 94.0247 162.904 93.5248L160.133 78.2726C160.042 77.7727 159.563 77.4411 159.063 77.5319Z" stroke="#263238" stroke-linecap="round" stroke-linejoin="round"/>
<path d="M163.93 95.382L161.998 95.7316C162.492 95.6389 162.928 95.3546 163.213 94.9408C163.497 94.5271 163.606 94.0176 163.516 93.5236L160.701 78.0446C160.657 77.7986 160.564 77.5637 160.429 77.3535C160.294 77.1432 160.118 76.9617 159.913 76.8194C159.707 76.6771 159.475 76.5768 159.231 76.5242C158.987 76.4716 158.734 76.4677 158.488 76.5128L160.434 76.1586C160.93 76.07 161.442 76.1814 161.856 76.4683C162.271 76.7553 162.555 77.1947 162.647 77.6904L165.462 93.1694C165.55 93.6658 165.439 94.177 165.152 94.5915C164.865 95.0061 164.426 95.2903 163.93 95.382V95.382Z" stroke="#263238" stroke-linecap="round" stroke-linejoin="round"/>
<path d="M219.879 144.965L200.83 196.062C200.83 196.062 192.863 180.882 185.503 166.833C179.624 155.6 174.132 145.066 173.391 143.516C171.731 140.024 166.059 132.71 166.059 132.71C166.059 132.71 160.24 129.38 157.577 123.579C154.913 117.779 151.983 97.0282 151.983 97.0282C151.983 97.0282 144.333 94.1486 142.507 92.8882C140.681 91.6278 139.016 79.9806 139.016 78.6512C139.016 77.3218 140.856 74.6584 140.856 74.6584C140.856 74.6584 140.446 72.708 142.783 70.7392C143.547 70.1122 144.394 69.5936 145.299 69.1982H145.345C145.345 69.1982 145.042 64.796 147.332 63.5126C147.442 63.4507 147.556 63.3969 147.673 63.3516C149.715 62.565 156.413 61.5484 156.413 61.5484C157.36 60.7165 158.462 60.0802 159.656 59.6762C160.843 59.3496 167.356 60.863 170.995 61.76C172.458 62.1188 173.456 62.3764 173.456 62.3764C173.456 62.3764 179.611 62.657 180.774 63.3516C181.586 63.8839 182.328 64.516 182.982 65.233L183.097 65.3664C183.097 65.3664 188.585 66.5072 189.749 68.5174C190.913 70.5276 191.41 80.5004 190.582 86.9818C189.754 93.4632 191.239 104.462 191.239 104.462C191.239 104.462 192.955 112.958 194.285 116.183C195.614 119.407 219.879 144.965 219.879 144.965Z" fill="white"/>
<path opacity="0.4" d="M185.503 166.832C179.624 155.599 174.132 145.065 173.391 143.515C171.731 140.024 166.059 132.71 166.059 132.71C166.059 132.71 160.24 129.379 157.577 123.579C154.913 117.778 151.983 97.0273 151.983 97.0273C151.983 97.0273 144.333 94.1477 142.507 92.8873C140.681 91.6269 139.016 79.9797 139.016 78.6503C139.016 77.3209 140.856 74.6575 140.856 74.6575C140.856 74.6575 140.446 72.7071 142.783 70.7383C142.783 71.2627 142.783 72.1459 142.783 73.5351C142.728 76.1709 145.833 92.0639 146.601 91.5809C147.369 91.0979 148.556 89.9341 148.243 88.9083C148.243 88.9083 146.739 82.7397 145.318 69.1973H145.364C145.364 69.1973 145.06 64.7951 147.351 63.5117C146.957 64.465 146.704 65.4707 146.601 66.4971C146.55 68.6407 149.099 87.0085 150.097 87.4731C151.095 87.9377 153.625 85.4905 153.625 85.4905C153.625 85.4905 152.76 80.2787 153.069 78.0569C153.069 78.0569 160.764 82.7489 160.994 88.0757C161.017 88.6599 162.494 97.0089 162.494 97.0089C162.494 97.0089 155.875 109.613 162.632 121.113C162.632 121.113 159.196 119.052 158.377 115.777C158.377 115.777 157.379 125.409 164.477 130.497C164.477 130.497 169.569 125.497 174.597 124.862C174.597 124.862 174.689 125.193 171.321 127.847C167.954 130.502 167.499 131.684 167.499 131.684C167.499 131.684 171.142 128.004 174.054 127.847C174.054 127.847 171.05 131.32 171.142 132.047C171.234 132.774 179.73 147.301 182.821 157.435C184.082 161.667 184.942 164.721 185.503 166.832Z" fill="#92E3A9"/>
<path opacity="0.4" d="M161.648 70.4268C161.648 70.4268 164.1 72.2668 164.827 70.4268C165.244 69.4422 165.51 68.3999 165.614 67.3356C165.614 67.3356 166.557 66.9032 167.454 69.1756C168.351 71.448 177.344 72.0276 179.45 73.1914C181.557 74.3552 182.394 73.1914 182.394 73.1914C182.885 73.5947 183.222 74.1549 183.347 74.7775C183.473 75.4002 183.38 76.0471 183.084 76.6092C182.063 78.7206 184.957 78.9092 186.079 77.3544C187.201 75.7996 186.332 81.8026 183.558 82.4144C183.558 82.4144 183.636 85.0364 181.852 86.835H183.365C183.365 86.835 179.335 90.032 178.264 90.2068C177.192 90.3816 182.252 92.171 181.313 92.5482C180.375 92.9254 177.716 92.8932 177.716 92.8932C177.716 92.8932 179.437 94.0846 179.45 94.8712C179.464 95.6578 178.636 96.2512 178.264 95.5934C177.891 94.9356 174.919 85.5148 173.438 82.0326C171.957 78.5504 165.839 75.795 161.648 70.4268Z" fill="#92E3A9"/>
<path opacity="0.4" d="M182.979 65.2015C177.818 63.7893 170.895 61.7791 170.895 61.7791L170.991 61.7285C172.454 62.0873 173.452 62.3449 173.452 62.3449C173.452 62.3449 179.607 62.6255 180.771 63.3201C181.583 63.8524 182.324 64.4844 182.979 65.2015Z" fill="#92E3A9"/>
<path d="M175.719 73.3202C171.23 72.4002 168.023 76.2366 168.023 76.2366C168.023 76.2366 172.485 80.2754 173.474 82.0096C174.463 83.7438 176.106 89.5904 176.106 89.5904C177.987 89.894 181.455 87.9528 182.288 82.8008C183.121 77.6488 180.186 74.2356 175.719 73.3202Z" fill="#92E3A9"/>
<path d="M200.83 196.062C200.83 196.062 175.07 147.007 173.391 143.516C171.712 140.024 166.059 132.71 166.059 132.71C166.059 132.71 160.24 129.38 157.577 123.579C154.913 117.779 151.983 97.0282 151.983 97.0282C151.983 97.0282 144.333 94.1486 142.507 92.8882C140.681 91.6278 139.016 79.9806 139.016 78.6512C139.016 77.3218 140.856 74.6584 140.856 74.6584C140.856 74.6584 140.193 71.5074 145.345 69.1752C145.345 69.1752 145.014 64.3498 147.673 63.3286C149.715 62.542 156.413 61.5254 156.413 61.5254C157.36 60.6934 158.462 60.0571 159.656 59.6532C161.316 59.1932 173.456 62.3534 173.456 62.3534C173.456 62.3534 179.611 62.634 180.774 63.3286C181.626 63.89 182.4 64.5595 183.079 65.3204C183.079 65.3204 188.567 66.4612 189.731 68.4714C190.894 70.4816 191.391 80.4544 190.563 86.9358C189.735 93.4172 191.221 104.416 191.221 104.416C191.221 104.416 192.937 112.912 194.266 116.137C195.596 119.361 219.879 144.965 219.879 144.965" stroke="#263238" stroke-linecap="round" stroke-linejoin="round"/>
<path d="M179.022 96.3511C179.022 96.3511 177.859 96.1027 176.364 90.6149C174.869 85.1271 174.473 82.5603 171.373 79.3081C169.174 77.0081 164.141 73.2499 161.648 70.4255C159.155 67.6011 156.4 65.3195 154.247 67.0675C152.526 68.4475 151.404 72.0309 152.917 77.5601C154.863 84.6625 161 88.0435 161 88.0435L162.499 96.9767C162.499 96.9767 155.99 110.013 163.327 122.318" stroke="#263238" stroke-linecap="round" stroke-linejoin="round"/>
<path d="M168 76.2374C168 76.2374 171.22 72.4056 175.696 73.321C180.172 74.2364 183.079 77.645 182.265 82.8016C181.45 87.9582 177.964 89.8948 176.082 89.5912" stroke="#263238" stroke-linecap="round" stroke-linejoin="round"/>
<path d="M156.397 61.5156C155.725 63.2056 155.208 64.9531 154.852 66.7366" stroke="#263238" stroke-linecap="round" stroke-linejoin="round"/>
<path d="M153.676 79.5312C153.676 79.5312 154.062 85.2123 154.863 86.9557C155.663 88.6991 156.992 90.1159 157.572 92.3607C158.152 94.6055 158.239 98.0969 158.405 98.5983C158.57 99.0997 159.532 99.2285 159.532 99.2285C160.912 99.2607 161.468 98.5431 162.264 97.4483" stroke="#263238" stroke-linecap="round" stroke-linejoin="round"/>
<path d="M145.359 69.166C145.359 69.166 146.606 81.3008 147.604 86.4574C148.602 91.614 150.364 92.3592 153.258 94.0244C156.151 95.6896 157.747 99.0844 158 99.595C158.253 100.106 159.201 100.161 159.201 100.161C159.758 100.114 160.294 99.9299 160.762 99.6239C161.229 99.3179 161.613 98.9 161.878 98.4082" stroke="#263238" stroke-linecap="round" stroke-linejoin="round"/>
<path d="M140.861 74.6484C140.548 75.1314 143.216 87.4548 144.606 91.029C145.995 94.6032 146.151 95.169 149.827 96.181C153.502 97.193 156.294 98.8766 157.288 98.2832" stroke="#263238" stroke-linecap="round" stroke-linejoin="round"/>
<path d="M166.383 67.832C166.383 67.832 168.292 72.4044 167.031 75.4128" stroke="#263238" stroke-linecap="round" stroke-linejoin="round"/>
<path d="M173.449 62.3438C176.578 63.5805 179.796 64.5755 183.077 65.32" stroke="#263238" stroke-linecap="round" stroke-linejoin="round"/>
<path d="M186.09 78.1465C186.09 78.1465 184.627 80.8191 182.41 81.3941" stroke="#263238" stroke-linecap="round" stroke-linejoin="round"/>
<path d="M182.405 75.2344C182.405 75.2344 181.881 76.6144 181.324 76.9962" stroke="#263238" stroke-linecap="round" stroke-linejoin="round"/>
<path d="M184.245 86.209C184.245 86.209 180.919 88.7252 177.727 89.3784" stroke="#263238" stroke-linecap="round" stroke-linejoin="round"/>
<path d="M176.363 90.6191C176.363 90.6191 177.743 92.3625 181.327 92.5281" stroke="#263238" stroke-linecap="round" stroke-linejoin="round"/>
<path d="M165.598 82.9886C165.598 82.9886 168.854 79.8606 170.713 80.293" stroke="#263238" stroke-linecap="round" stroke-linejoin="round"/>
<path d="M171.975 83.625C171.975 83.625 169.509 85.465 169.059 85.465" stroke="#263238" stroke-linecap="round" stroke-linejoin="round"/>
<path d="M146.586 93.3802C146.586 93.3802 147.405 93.532 148.044 92.543" stroke="#263238" stroke-linecap="round" stroke-linejoin="round"/>
<path d="M149.5 88.8996C149.5 88.8996 151.478 87.676 152.771 87.4414" stroke="#263238" stroke-linecap="round" stroke-linejoin="round"/>
<path d="M166.922 130.391C167.331 130.028 171.154 126.937 173.518 125.842" stroke="#263238" stroke-linecap="round" stroke-linejoin="round"/>
<path d="M171.881 128.928C171.61 128.845 169.438 131.118 168.293 132.028" stroke="#263238" stroke-linecap="round" stroke-linejoin="round"/>
<path d="M172.957 135.668C172.957 135.668 180.239 149.468 181.876 154.988" stroke="#263238" stroke-linecap="round" stroke-linejoin="round"/>
<path d="M194.285 116.154C194.902 119.544 196.903 122.042 197.997 123.395" stroke="#263238" stroke-linecap="round" stroke-linejoin="round"/>
<path opacity="0.4" d="M171.329 74.649C170.271 75.3022 171.385 77.4366 171.973 78.5268C172.562 79.617 175.193 81.3512 175.741 82.9888C176.288 84.6264 179.747 84.5804 180.801 82.9888C181.854 81.3972 181.721 78.2186 178.85 75.799C175.98 73.3794 172.834 73.729 171.329 74.649Z" fill="white"/>
<path d="M151.134 166.323C146.45 165.526 141.633 166.341 137.471 168.633C133.308 170.926 130.045 174.561 128.214 178.945C126.382 183.33 126.091 188.206 127.386 192.778C128.682 197.35 131.488 201.348 135.347 204.121" stroke="#263238" stroke-linecap="round" stroke-linejoin="round"/>
<path d="M159.897 169.989C157.947 168.58 155.768 167.519 153.457 166.852" stroke="#263238" stroke-linecap="round" stroke-linejoin="round"/>
<path d="M157.781 205.427C160.616 203.857 163.05 201.653 164.892 198.986C166.733 196.32 167.933 193.263 168.397 190.056C168.862 186.849 168.577 183.578 167.567 180.499C166.557 177.419 164.848 174.616 162.574 172.307" stroke="#263238" stroke-linecap="round" stroke-linejoin="round"/>
<path d="M158.797 212.06L160.048 213.164L158.098 206.48" stroke="#263238" stroke-linecap="round" stroke-linejoin="round"/>
<path d="M144.078 207.763C147.171 208.294 150.343 208.122 153.361 207.262L157.322 210.758" stroke="#263238" stroke-linecap="round" stroke-linejoin="round"/>
<path d="M139.258 206.338C140.043 206.676 140.848 206.967 141.668 207.207" stroke="#263238" stroke-linecap="round" stroke-linejoin="round"/>
<path d="M149.265 176.82C151.871 177.266 154.215 178.67 155.837 180.757C157.459 182.845 158.24 185.463 158.028 188.098C157.816 190.733 156.625 193.193 154.69 194.994C152.756 196.795 150.217 197.806 147.573 197.829C144.93 197.851 142.374 196.884 140.409 195.117C138.443 193.349 137.21 190.91 136.953 188.279C136.695 185.649 137.432 183.017 139.018 180.902C140.603 178.787 142.923 177.343 145.521 176.853" stroke="#263238" stroke-linecap="round" stroke-linejoin="round"/>
<path d="M145.522 198.805C142.458 198.283 139.727 196.565 137.929 194.03C136.132 191.495 135.414 188.349 135.935 185.285" stroke="#263238" stroke-linecap="round" stroke-linejoin="round"/>
<path d="M158.513 191.23C157.792 193.226 156.543 194.988 154.899 196.329C153.255 197.67 151.279 198.541 149.18 198.848" stroke="#263238" stroke-linecap="round" stroke-linejoin="round"/>
<path d="M136.836 182.359C138.024 179.776 140.109 177.713 142.704 176.554C145.3 175.395 148.228 175.218 150.944 176.057C153.66 176.896 155.978 178.693 157.467 181.114C158.957 183.535 159.516 186.415 159.04 189.217" stroke="#263238" stroke-linecap="round" stroke-linejoin="round"/>
<path d="M154.523 183.025L154.657 182.883" stroke="#263238" stroke-width="2" stroke-linecap="round" stroke-linejoin="round"/>
<path d="M152.648 185.05L153.582 184.043" stroke="#263238" stroke-width="2" stroke-linecap="round" stroke-linejoin="round"/>
<path d="M141.188 186.536L145.7 192.535L151.827 185.934" stroke="#263238" stroke-width="2" stroke-linecap="round" stroke-linejoin="round"/>
</svg>
